G04*
G04 #@! TF.GenerationSoftware,Altium Limited,Altium Designer,25.0.2 (28)*
G04*
G04 Layer_Color=8421504*
%FSLAX25Y25*%
%MOIN*%
G70*
G04*
G04 #@! TF.SameCoordinates,806C6703-1472-4CDD-89B2-E77C97C87F0E*
G04*
G04*
G04 #@! TF.FilePolarity,Positive*
G04*
G01*
G75*
%ADD16O,0.06102X0.02362*%
%ADD17R,0.06102X0.02362*%
%ADD18R,0.03937X0.04921*%
%ADD19R,0.04921X0.03937*%
G04:AMPARAMS|DCode=20|XSize=39.37mil|YSize=39.37mil|CornerRadius=9.84mil|HoleSize=0mil|Usage=FLASHONLY|Rotation=90.000|XOffset=0mil|YOffset=0mil|HoleType=Round|Shape=RoundedRectangle|*
%AMROUNDEDRECTD20*
21,1,0.03937,0.01968,0,0,90.0*
21,1,0.01968,0.03937,0,0,90.0*
1,1,0.01968,0.00984,0.00984*
1,1,0.01968,0.00984,-0.00984*
1,1,0.01968,-0.00984,-0.00984*
1,1,0.01968,-0.00984,0.00984*
%
%ADD20ROUNDEDRECTD20*%
%ADD21R,0.05118X0.05906*%
%ADD22R,0.05906X0.05118*%
%ADD23R,0.06299X0.11811*%
D16*
X317815Y85020D02*
D03*
Y90020D02*
D03*
Y95020D02*
D03*
Y100020D02*
D03*
X296358Y85020D02*
D03*
Y90020D02*
D03*
Y95020D02*
D03*
X57185Y108799D02*
D03*
Y103799D02*
D03*
Y98799D02*
D03*
X78642Y113799D02*
D03*
Y108799D02*
D03*
Y103799D02*
D03*
Y98799D02*
D03*
D17*
X296358Y100020D02*
D03*
X57185Y113799D02*
D03*
D18*
X310039Y108268D02*
D03*
X317913D02*
D03*
X277559Y89567D02*
D03*
X285433D02*
D03*
X277559Y81693D02*
D03*
X285433D02*
D03*
X292323Y165354D02*
D03*
X35433Y109252D02*
D03*
X43307D02*
D03*
Y101378D02*
D03*
X35433D02*
D03*
X70866Y90551D02*
D03*
X78740D02*
D03*
X70866Y82677D02*
D03*
X78740D02*
D03*
X94488Y90551D02*
D03*
X86614D02*
D03*
X70866Y122047D02*
D03*
X78740D02*
D03*
X86614Y82677D02*
D03*
X94488D02*
D03*
X284449Y165354D02*
D03*
D19*
X284449Y100394D02*
D03*
Y108268D02*
D03*
X328740Y94488D02*
D03*
Y86614D02*
D03*
X309055Y66929D02*
D03*
Y74803D02*
D03*
X317913Y66929D02*
D03*
Y74803D02*
D03*
X328740Y66929D02*
D03*
Y74803D02*
D03*
X338583D02*
D03*
Y66929D02*
D03*
X164134Y128878D02*
D03*
Y121004D02*
D03*
X152421Y121005D02*
D03*
Y128879D02*
D03*
X285433Y181102D02*
D03*
Y188976D02*
D03*
X101378Y140748D02*
D03*
Y132874D02*
D03*
X297244Y188976D02*
D03*
Y181102D02*
D03*
X91535Y132874D02*
D03*
Y140748D02*
D03*
D20*
X525591Y-45276D02*
D03*
X403307Y66772D02*
D03*
X435039Y3937D02*
D03*
X499764Y66772D02*
D03*
D21*
X134095Y169134D02*
D03*
X119921D02*
D03*
D22*
X40354Y129528D02*
D03*
Y143701D02*
D03*
D23*
X156496Y189764D02*
D03*
X156496Y172441D02*
D03*
M02*
