G04*
G04 #@! TF.GenerationSoftware,Altium Limited,Altium Designer,25.0.2 (28)*
G04*
G04 Layer_Color=32896*
%FSLAX25Y25*%
%MOIN*%
G70*
G04*
G04 #@! TF.SameCoordinates,806C6703-1472-4CDD-89B2-E77C97C87F0E*
G04*
G04*
G04 #@! TF.FilePolarity,Positive*
G04*
G01*
G75*
%ADD12C,0.01575*%
G36*
X237876Y64969D02*
X233740D01*
Y68650D01*
X237876D01*
Y64969D01*
D02*
G37*
G36*
X53107Y67229D02*
X53490Y67101D01*
X53818Y66992D01*
X54073Y66864D01*
X54273Y66755D01*
X54419Y66664D01*
X54528Y66591D01*
X54583Y66536D01*
X54601Y66518D01*
X54711Y66354D01*
X54802Y66172D01*
X54856Y65990D01*
X54911Y65825D01*
X54929Y65662D01*
X54948Y65534D01*
Y65461D01*
Y65425D01*
X54929Y65151D01*
X54875Y64896D01*
X54802Y64678D01*
X54711Y64495D01*
X54619Y64332D01*
X54547Y64222D01*
X54492Y64149D01*
X54474Y64131D01*
X54291Y63967D01*
X54091Y63840D01*
X53891Y63748D01*
X53708Y63694D01*
X53563Y63657D01*
X53435Y63621D01*
X53326D01*
X53180Y63639D01*
X52998Y63657D01*
X52634Y63730D01*
X52470Y63767D01*
X52342Y63785D01*
X52251Y63821D01*
X52214D01*
X49099Y64623D01*
Y50120D01*
X52852D01*
X53071Y50102D01*
X53453Y50047D01*
X53781Y49956D01*
X54018Y49883D01*
X54219Y49792D01*
X54346Y49701D01*
X54437Y49646D01*
X54456Y49628D01*
X54638Y49446D01*
X54765Y49227D01*
X54856Y49027D01*
X54911Y48826D01*
X54948Y48662D01*
X54984Y48516D01*
Y48425D01*
Y48389D01*
X54966Y48116D01*
X54893Y47861D01*
X54820Y47642D01*
X54711Y47460D01*
X54619Y47314D01*
X54528Y47205D01*
X54474Y47132D01*
X54456Y47114D01*
X54346Y47023D01*
X54219Y46950D01*
X53945Y46840D01*
X53636Y46749D01*
X53344Y46694D01*
X53053Y46658D01*
X52943D01*
X52834Y46640D01*
X42102D01*
X41647Y46658D01*
X41264Y46713D01*
X40955Y46786D01*
X40699Y46877D01*
X40517Y46968D01*
X40390Y47041D01*
X40299Y47095D01*
X40280Y47114D01*
X40098Y47296D01*
X39971Y47514D01*
X39861Y47715D01*
X39807Y47915D01*
X39770Y48098D01*
X39734Y48243D01*
Y48334D01*
Y48371D01*
X39752Y48644D01*
X39825Y48899D01*
X39898Y49100D01*
X40007Y49282D01*
X40098Y49428D01*
X40189Y49537D01*
X40262Y49610D01*
X40280Y49628D01*
X40517Y49792D01*
X40791Y49920D01*
X41082Y49992D01*
X41392Y50065D01*
X41665Y50102D01*
X41793D01*
X41884Y50120D01*
X45619D01*
Y69160D01*
X53107Y67229D01*
D02*
G37*
G36*
X32264D02*
X32646Y67101D01*
X32974Y66992D01*
X33229Y66864D01*
X33430Y66755D01*
X33575Y66664D01*
X33685Y66591D01*
X33739Y66536D01*
X33758Y66518D01*
X33867Y66354D01*
X33958Y66172D01*
X34013Y65990D01*
X34067Y65825D01*
X34086Y65662D01*
X34104Y65534D01*
Y65461D01*
Y65425D01*
X34086Y65151D01*
X34031Y64896D01*
X33958Y64678D01*
X33867Y64495D01*
X33776Y64332D01*
X33703Y64222D01*
X33648Y64149D01*
X33630Y64131D01*
X33448Y63967D01*
X33247Y63840D01*
X33047Y63748D01*
X32865Y63694D01*
X32719Y63657D01*
X32592Y63621D01*
X32482D01*
X32337Y63639D01*
X32154Y63657D01*
X31790Y63730D01*
X31626Y63767D01*
X31498Y63785D01*
X31407Y63821D01*
X31371D01*
X28255Y64623D01*
Y50120D01*
X32008D01*
X32227Y50102D01*
X32610Y50047D01*
X32938Y49956D01*
X33175Y49883D01*
X33375Y49792D01*
X33503Y49701D01*
X33594Y49646D01*
X33612Y49628D01*
X33794Y49446D01*
X33922Y49227D01*
X34013Y49027D01*
X34067Y48826D01*
X34104Y48662D01*
X34140Y48516D01*
Y48425D01*
Y48389D01*
X34122Y48116D01*
X34049Y47861D01*
X33976Y47642D01*
X33867Y47460D01*
X33776Y47314D01*
X33685Y47205D01*
X33630Y47132D01*
X33612Y47114D01*
X33503Y47023D01*
X33375Y46950D01*
X33102Y46840D01*
X32792Y46749D01*
X32500Y46694D01*
X32209Y46658D01*
X32100D01*
X31990Y46640D01*
X21259D01*
X20803Y46658D01*
X20421Y46713D01*
X20111Y46786D01*
X19856Y46877D01*
X19674Y46968D01*
X19546Y47041D01*
X19455Y47095D01*
X19437Y47114D01*
X19254Y47296D01*
X19127Y47514D01*
X19018Y47715D01*
X18963Y47915D01*
X18926Y48098D01*
X18890Y48243D01*
Y48334D01*
Y48371D01*
X18908Y48644D01*
X18981Y48899D01*
X19054Y49100D01*
X19163Y49282D01*
X19254Y49428D01*
X19346Y49537D01*
X19419Y49610D01*
X19437Y49628D01*
X19674Y49792D01*
X19947Y49920D01*
X20238Y49992D01*
X20548Y50065D01*
X20821Y50102D01*
X20949D01*
X21040Y50120D01*
X24775D01*
Y69160D01*
X32264Y67229D01*
D02*
G37*
G36*
X305582Y62018D02*
X305964Y61963D01*
X306292Y61872D01*
X306529Y61799D01*
X306730Y61708D01*
X306857Y61617D01*
X306948Y61562D01*
X306966Y61544D01*
X307149Y61362D01*
X307276Y61143D01*
X307367Y60943D01*
X307422Y60742D01*
X307458Y60578D01*
X307495Y60432D01*
Y60341D01*
Y60305D01*
X307477Y60032D01*
X307404Y59777D01*
X307331Y59558D01*
X307222Y59376D01*
X307131Y59230D01*
X307039Y59121D01*
X306985Y59048D01*
X306966Y59030D01*
X306857Y58938D01*
X306730Y58865D01*
X306456Y58756D01*
X306147Y58665D01*
X305855Y58610D01*
X305564Y58574D01*
X305454D01*
X305345Y58556D01*
X304525D01*
Y51086D01*
X304507Y50594D01*
X304452Y50138D01*
X304361Y49755D01*
X304270Y49428D01*
X304179Y49154D01*
X304124Y49045D01*
X304088Y48954D01*
X304069Y48881D01*
X304033Y48826D01*
X304015Y48808D01*
Y48790D01*
X303723Y48353D01*
X303395Y47952D01*
X303067Y47605D01*
X302740Y47332D01*
X302466Y47095D01*
X302339Y47004D01*
X302229Y46931D01*
X302156Y46877D01*
X302084Y46840D01*
X302047Y46804D01*
X302029D01*
X301537Y46567D01*
X301027Y46385D01*
X300535Y46275D01*
X300079Y46184D01*
X299861Y46148D01*
X299660Y46130D01*
X299496Y46112D01*
X299351D01*
X299223Y46093D01*
X299059D01*
X298604Y46112D01*
X298148Y46148D01*
X297711Y46203D01*
X297310Y46275D01*
X297146Y46294D01*
X296982Y46330D01*
X296836Y46367D01*
X296727Y46385D01*
X296618Y46403D01*
X296545Y46421D01*
X296508Y46439D01*
X296490D01*
X295980Y46585D01*
X295470Y46731D01*
X294978Y46913D01*
X294541Y47077D01*
X294358Y47150D01*
X294176Y47223D01*
X294012Y47296D01*
X293884Y47350D01*
X293775Y47387D01*
X293702Y47423D01*
X293648Y47460D01*
X293630D01*
Y46640D01*
X290149D01*
X289694Y46658D01*
X289311Y46713D01*
X289002Y46786D01*
X288747Y46877D01*
X288564Y46968D01*
X288437Y47041D01*
X288346Y47095D01*
X288327Y47114D01*
X288145Y47296D01*
X288018Y47514D01*
X287908Y47715D01*
X287854Y47915D01*
X287817Y48098D01*
X287781Y48243D01*
Y48334D01*
Y48371D01*
X287799Y48644D01*
X287872Y48899D01*
X287945Y49100D01*
X288054Y49282D01*
X288145Y49428D01*
X288236Y49537D01*
X288309Y49610D01*
X288327Y49628D01*
X288564Y49792D01*
X288838Y49920D01*
X289129Y49992D01*
X289439Y50065D01*
X289712Y50102D01*
X289840D01*
X289931Y50120D01*
X290149D01*
Y62036D01*
X295124D01*
X295342Y62018D01*
X295725Y61963D01*
X296053Y61872D01*
X296290Y61799D01*
X296490Y61708D01*
X296618Y61617D01*
X296709Y61562D01*
X296727Y61544D01*
X296909Y61362D01*
X297037Y61143D01*
X297128Y60943D01*
X297182Y60742D01*
X297219Y60578D01*
X297255Y60432D01*
Y60341D01*
Y60305D01*
X297237Y60032D01*
X297164Y59777D01*
X297091Y59558D01*
X296982Y59376D01*
X296891Y59230D01*
X296800Y59121D01*
X296745Y59048D01*
X296727Y59030D01*
X296618Y58938D01*
X296490Y58865D01*
X296217Y58756D01*
X295907Y58665D01*
X295616Y58610D01*
X295324Y58574D01*
X295215D01*
X295105Y58556D01*
X293630D01*
Y51486D01*
X294267Y51104D01*
X294850Y50794D01*
X295124Y50648D01*
X295360Y50521D01*
X295597Y50411D01*
X295798Y50320D01*
X295998Y50229D01*
X296162Y50156D01*
X296290Y50102D01*
X296417Y50065D01*
X296508Y50029D01*
X296581Y49992D01*
X296618Y49974D01*
X296636D01*
X297073Y49847D01*
X297492Y49737D01*
X297875Y49664D01*
X298221Y49628D01*
X298494Y49591D01*
X298622D01*
X298713Y49573D01*
X298895D01*
X299278Y49591D01*
X299606Y49646D01*
X299879Y49737D01*
X300116Y49828D01*
X300298Y49920D01*
X300407Y50011D01*
X300498Y50065D01*
X300517Y50083D01*
X300699Y50302D01*
X300826Y50557D01*
X300918Y50812D01*
X300972Y51086D01*
X301009Y51322D01*
X301045Y51523D01*
Y51596D01*
Y51650D01*
Y51687D01*
Y51705D01*
Y62036D01*
X305363D01*
X305582Y62018D01*
D02*
G37*
G36*
X279564Y67484D02*
X279801Y67411D01*
X280019Y67338D01*
X280201Y67229D01*
X280347Y67137D01*
X280456Y67046D01*
X280529Y66973D01*
X280547Y66955D01*
X280712Y66718D01*
X280821Y66445D01*
X280912Y66154D01*
X280967Y65862D01*
X281003Y65589D01*
X281021Y65370D01*
Y65297D01*
Y65224D01*
Y65188D01*
Y65170D01*
Y62036D01*
X282278D01*
X282716Y62018D01*
X283080Y61963D01*
X283390Y61872D01*
X283645Y61799D01*
X283827Y61708D01*
X283955Y61617D01*
X284046Y61562D01*
X284064Y61544D01*
X284246Y61343D01*
X284374Y61143D01*
X284465Y60924D01*
X284520Y60724D01*
X284556Y60560D01*
X284592Y60414D01*
Y60323D01*
Y60287D01*
X284574Y60013D01*
X284501Y59777D01*
X284428Y59558D01*
X284319Y59376D01*
X284228Y59230D01*
X284137Y59121D01*
X284082Y59048D01*
X284064Y59030D01*
X283827Y58865D01*
X283554Y58756D01*
X283262Y58665D01*
X282971Y58610D01*
X282698Y58574D01*
X282479Y58556D01*
X281021D01*
Y50903D01*
X281003Y50539D01*
X280948Y50174D01*
X280875Y49828D01*
X280766Y49519D01*
X280657Y49209D01*
X280511Y48936D01*
X280365Y48662D01*
X280220Y48425D01*
X280074Y48225D01*
X279928Y48025D01*
X279782Y47861D01*
X279673Y47733D01*
X279564Y47624D01*
X279491Y47551D01*
X279436Y47496D01*
X279418Y47478D01*
X279090Y47241D01*
X278744Y47023D01*
X278361Y46840D01*
X277978Y46676D01*
X277578Y46549D01*
X277159Y46439D01*
X276758Y46348D01*
X276375Y46275D01*
X276011Y46203D01*
X275665Y46166D01*
X275355Y46130D01*
X275081Y46112D01*
X274863D01*
X274699Y46093D01*
X274553D01*
X273897Y46130D01*
X273205Y46203D01*
X272513Y46294D01*
X272184Y46367D01*
X271857Y46421D01*
X271565Y46476D01*
X271292Y46549D01*
X271055Y46603D01*
X270836Y46640D01*
X270672Y46694D01*
X270545Y46713D01*
X270454Y46749D01*
X270435D01*
X269998Y46877D01*
X269579Y47004D01*
X269215Y47132D01*
X268887Y47259D01*
X268577Y47387D01*
X268304Y47514D01*
X268067Y47624D01*
X267866Y47733D01*
X267684Y47842D01*
X267538Y47934D01*
X267411Y48025D01*
X267302Y48098D01*
X267229Y48152D01*
X267174Y48189D01*
X267156Y48225D01*
X267138D01*
X266955Y48425D01*
X266828Y48608D01*
X266719Y48808D01*
X266664Y48990D01*
X266627Y49154D01*
X266591Y49282D01*
Y49355D01*
Y49391D01*
X266609Y49664D01*
X266664Y49901D01*
X266755Y50120D01*
X266846Y50302D01*
X266937Y50448D01*
X267028Y50557D01*
X267083Y50630D01*
X267101Y50648D01*
X267302Y50812D01*
X267502Y50940D01*
X267684Y51031D01*
X267885Y51104D01*
X268049Y51140D01*
X268176Y51158D01*
X268285D01*
X268486Y51140D01*
X268705Y51086D01*
X268923Y51013D01*
X269142Y50940D01*
X269342Y50849D01*
X269488Y50776D01*
X269597Y50721D01*
X269616Y50703D01*
X269634D01*
X270053Y50503D01*
X270490Y50339D01*
X270927Y50174D01*
X271346Y50047D01*
X271784Y49938D01*
X272184Y49847D01*
X272567Y49774D01*
X272932Y49719D01*
X273278Y49664D01*
X273587Y49628D01*
X273861Y49610D01*
X274098Y49591D01*
X274298Y49573D01*
X274881D01*
X275191Y49591D01*
X275464Y49628D01*
X275719Y49664D01*
X275956Y49701D01*
X276156Y49755D01*
X276339Y49792D01*
X276503Y49847D01*
X276648Y49901D01*
X276758Y49956D01*
X276867Y49992D01*
X276940Y50029D01*
X277013Y50065D01*
X277049Y50102D01*
X277086Y50120D01*
X277232Y50284D01*
X277341Y50503D01*
X277432Y50739D01*
X277486Y50994D01*
X277523Y51231D01*
X277541Y51414D01*
Y51486D01*
Y51541D01*
Y51578D01*
Y51596D01*
Y58556D01*
X271128D01*
X270690Y58574D01*
X270326Y58629D01*
X270016Y58701D01*
X269761Y58793D01*
X269579Y58884D01*
X269451Y58957D01*
X269360Y59011D01*
X269342Y59030D01*
X269160Y59230D01*
X269033Y59430D01*
X268923Y59649D01*
X268868Y59849D01*
X268832Y60013D01*
X268796Y60159D01*
Y60250D01*
Y60287D01*
X268814Y60560D01*
X268887Y60815D01*
X268960Y61015D01*
X269069Y61198D01*
X269160Y61343D01*
X269251Y61453D01*
X269324Y61526D01*
X269342Y61544D01*
X269579Y61708D01*
X269852Y61835D01*
X270144Y61908D01*
X270435Y61981D01*
X270709Y62018D01*
X270927Y62036D01*
X277541D01*
Y65170D01*
X277559Y65607D01*
X277614Y65971D01*
X277705Y66281D01*
X277778Y66536D01*
X277869Y66718D01*
X277960Y66846D01*
X278015Y66937D01*
X278033Y66955D01*
X278234Y67137D01*
X278434Y67265D01*
X278653Y67374D01*
X278853Y67429D01*
X279017Y67465D01*
X279163Y67502D01*
X279290D01*
X279564Y67484D01*
D02*
G37*
G36*
X217033D02*
X217269Y67411D01*
X217488Y67338D01*
X217670Y67229D01*
X217816Y67137D01*
X217925Y67046D01*
X217998Y66973D01*
X218017Y66955D01*
X218180Y66718D01*
X218290Y66445D01*
X218381Y66154D01*
X218436Y65862D01*
X218472Y65589D01*
X218490Y65370D01*
Y65297D01*
Y65224D01*
Y65188D01*
Y65170D01*
Y62036D01*
X219747D01*
X220185Y62018D01*
X220549Y61963D01*
X220859Y61872D01*
X221114Y61799D01*
X221296Y61708D01*
X221424Y61617D01*
X221515Y61562D01*
X221533Y61544D01*
X221715Y61343D01*
X221843Y61143D01*
X221934Y60924D01*
X221988Y60724D01*
X222025Y60560D01*
X222061Y60414D01*
Y60323D01*
Y60287D01*
X222043Y60013D01*
X221970Y59777D01*
X221897Y59558D01*
X221788Y59376D01*
X221697Y59230D01*
X221606Y59121D01*
X221551Y59048D01*
X221533Y59030D01*
X221296Y58865D01*
X221023Y58756D01*
X220731Y58665D01*
X220440Y58610D01*
X220166Y58574D01*
X219948Y58556D01*
X218490D01*
Y50903D01*
X218472Y50539D01*
X218417Y50174D01*
X218344Y49828D01*
X218235Y49519D01*
X218126Y49209D01*
X217980Y48936D01*
X217834Y48662D01*
X217688Y48425D01*
X217543Y48225D01*
X217397Y48025D01*
X217251Y47861D01*
X217142Y47733D01*
X217033Y47624D01*
X216960Y47551D01*
X216905Y47496D01*
X216887Y47478D01*
X216559Y47241D01*
X216213Y47023D01*
X215830Y46840D01*
X215447Y46676D01*
X215047Y46549D01*
X214628Y46439D01*
X214227Y46348D01*
X213844Y46275D01*
X213480Y46203D01*
X213134Y46166D01*
X212824Y46130D01*
X212550Y46112D01*
X212332D01*
X212168Y46093D01*
X212022D01*
X211366Y46130D01*
X210674Y46203D01*
X209981Y46294D01*
X209653Y46367D01*
X209326Y46421D01*
X209034Y46476D01*
X208761Y46549D01*
X208524Y46603D01*
X208305Y46640D01*
X208141Y46694D01*
X208014Y46713D01*
X207923Y46749D01*
X207904D01*
X207467Y46877D01*
X207048Y47004D01*
X206684Y47132D01*
X206356Y47259D01*
X206046Y47387D01*
X205773Y47514D01*
X205536Y47624D01*
X205335Y47733D01*
X205153Y47842D01*
X205007Y47934D01*
X204880Y48025D01*
X204770Y48098D01*
X204698Y48152D01*
X204643Y48189D01*
X204625Y48225D01*
X204607D01*
X204424Y48425D01*
X204297Y48608D01*
X204187Y48808D01*
X204133Y48990D01*
X204096Y49154D01*
X204060Y49282D01*
Y49355D01*
Y49391D01*
X204078Y49664D01*
X204133Y49901D01*
X204224Y50120D01*
X204315Y50302D01*
X204406Y50448D01*
X204497Y50557D01*
X204552Y50630D01*
X204570Y50648D01*
X204770Y50812D01*
X204971Y50940D01*
X205153Y51031D01*
X205354Y51104D01*
X205518Y51140D01*
X205645Y51158D01*
X205754D01*
X205955Y51140D01*
X206173Y51086D01*
X206392Y51013D01*
X206611Y50940D01*
X206811Y50849D01*
X206957Y50776D01*
X207066Y50721D01*
X207084Y50703D01*
X207103D01*
X207522Y50503D01*
X207959Y50339D01*
X208396Y50174D01*
X208815Y50047D01*
X209253Y49938D01*
X209653Y49847D01*
X210036Y49774D01*
X210401Y49719D01*
X210747Y49664D01*
X211056Y49628D01*
X211330Y49610D01*
X211567Y49591D01*
X211767Y49573D01*
X212350D01*
X212660Y49591D01*
X212933Y49628D01*
X213188Y49664D01*
X213425Y49701D01*
X213626Y49755D01*
X213808Y49792D01*
X213972Y49847D01*
X214117Y49901D01*
X214227Y49956D01*
X214336Y49992D01*
X214409Y50029D01*
X214482Y50065D01*
X214518Y50102D01*
X214555Y50120D01*
X214700Y50284D01*
X214810Y50503D01*
X214901Y50739D01*
X214955Y50994D01*
X214992Y51231D01*
X215010Y51414D01*
Y51486D01*
Y51541D01*
Y51578D01*
Y51596D01*
Y58556D01*
X208597D01*
X208159Y58574D01*
X207795Y58629D01*
X207485Y58701D01*
X207230Y58793D01*
X207048Y58884D01*
X206921Y58957D01*
X206829Y59011D01*
X206811Y59030D01*
X206629Y59230D01*
X206501Y59430D01*
X206392Y59649D01*
X206337Y59849D01*
X206301Y60013D01*
X206265Y60159D01*
Y60250D01*
Y60287D01*
X206283Y60560D01*
X206356Y60815D01*
X206429Y61015D01*
X206538Y61198D01*
X206629Y61343D01*
X206720Y61453D01*
X206793Y61526D01*
X206811Y61544D01*
X207048Y61708D01*
X207321Y61835D01*
X207613Y61908D01*
X207904Y61981D01*
X208178Y62018D01*
X208396Y62036D01*
X215010D01*
Y65170D01*
X215028Y65607D01*
X215083Y65971D01*
X215174Y66281D01*
X215247Y66536D01*
X215338Y66718D01*
X215429Y66846D01*
X215484Y66937D01*
X215502Y66955D01*
X215703Y67137D01*
X215903Y67265D01*
X216122Y67374D01*
X216322Y67429D01*
X216486Y67465D01*
X216632Y67502D01*
X216759D01*
X217033Y67484D01*
D02*
G37*
G36*
X180520Y62018D02*
X180902Y61963D01*
X181230Y61872D01*
X181467Y61799D01*
X181668Y61708D01*
X181795Y61617D01*
X181886Y61562D01*
X181904Y61544D01*
X182087Y61362D01*
X182214Y61143D01*
X182305Y60943D01*
X182360Y60742D01*
X182396Y60578D01*
X182433Y60432D01*
Y60341D01*
Y60305D01*
X182415Y60032D01*
X182342Y59777D01*
X182269Y59558D01*
X182159Y59376D01*
X182068Y59230D01*
X181977Y59121D01*
X181923Y59048D01*
X181904Y59030D01*
X181795Y58938D01*
X181668Y58865D01*
X181394Y58756D01*
X181085Y58665D01*
X180793Y58610D01*
X180501Y58574D01*
X180392D01*
X180283Y58556D01*
X179463D01*
Y51086D01*
X179445Y50594D01*
X179390Y50138D01*
X179299Y49755D01*
X179208Y49428D01*
X179117Y49154D01*
X179062Y49045D01*
X179026Y48954D01*
X179007Y48881D01*
X178971Y48826D01*
X178953Y48808D01*
Y48790D01*
X178661Y48353D01*
X178333Y47952D01*
X178005Y47605D01*
X177677Y47332D01*
X177404Y47095D01*
X177277Y47004D01*
X177167Y46931D01*
X177094Y46877D01*
X177022Y46840D01*
X176985Y46804D01*
X176967D01*
X176475Y46567D01*
X175965Y46385D01*
X175473Y46275D01*
X175017Y46184D01*
X174799Y46148D01*
X174598Y46130D01*
X174434Y46112D01*
X174288D01*
X174161Y46093D01*
X173997D01*
X173541Y46112D01*
X173086Y46148D01*
X172649Y46203D01*
X172248Y46275D01*
X172084Y46294D01*
X171920Y46330D01*
X171774Y46367D01*
X171665Y46385D01*
X171555Y46403D01*
X171483Y46421D01*
X171446Y46439D01*
X171428D01*
X170918Y46585D01*
X170408Y46731D01*
X169916Y46913D01*
X169478Y47077D01*
X169296Y47150D01*
X169114Y47223D01*
X168950Y47296D01*
X168823Y47350D01*
X168713Y47387D01*
X168640Y47423D01*
X168586Y47460D01*
X168567D01*
Y46640D01*
X165087D01*
X164632Y46658D01*
X164249Y46713D01*
X163939Y46786D01*
X163684Y46877D01*
X163502Y46968D01*
X163375Y47041D01*
X163284Y47095D01*
X163265Y47114D01*
X163083Y47296D01*
X162956Y47514D01*
X162846Y47715D01*
X162792Y47915D01*
X162755Y48098D01*
X162719Y48243D01*
Y48334D01*
Y48371D01*
X162737Y48644D01*
X162810Y48899D01*
X162883Y49100D01*
X162992Y49282D01*
X163083Y49428D01*
X163174Y49537D01*
X163247Y49610D01*
X163265Y49628D01*
X163502Y49792D01*
X163776Y49920D01*
X164067Y49992D01*
X164377Y50065D01*
X164650Y50102D01*
X164778D01*
X164869Y50120D01*
X165087D01*
Y62036D01*
X170061D01*
X170280Y62018D01*
X170663Y61963D01*
X170991Y61872D01*
X171228Y61799D01*
X171428Y61708D01*
X171555Y61617D01*
X171647Y61562D01*
X171665Y61544D01*
X171847Y61362D01*
X171975Y61143D01*
X172066Y60943D01*
X172120Y60742D01*
X172157Y60578D01*
X172193Y60432D01*
Y60341D01*
Y60305D01*
X172175Y60032D01*
X172102Y59777D01*
X172029Y59558D01*
X171920Y59376D01*
X171829Y59230D01*
X171738Y59121D01*
X171683Y59048D01*
X171665Y59030D01*
X171555Y58938D01*
X171428Y58865D01*
X171155Y58756D01*
X170845Y58665D01*
X170553Y58610D01*
X170262Y58574D01*
X170152D01*
X170043Y58556D01*
X168567D01*
Y51486D01*
X169205Y51104D01*
X169788Y50794D01*
X170061Y50648D01*
X170298Y50521D01*
X170535Y50411D01*
X170736Y50320D01*
X170936Y50229D01*
X171100Y50156D01*
X171228Y50102D01*
X171355Y50065D01*
X171446Y50029D01*
X171519Y49992D01*
X171555Y49974D01*
X171574D01*
X172011Y49847D01*
X172430Y49737D01*
X172813Y49664D01*
X173159Y49628D01*
X173432Y49591D01*
X173560D01*
X173651Y49573D01*
X173833D01*
X174216Y49591D01*
X174544Y49646D01*
X174817Y49737D01*
X175054Y49828D01*
X175236Y49920D01*
X175345Y50011D01*
X175436Y50065D01*
X175454Y50083D01*
X175637Y50302D01*
X175764Y50557D01*
X175855Y50812D01*
X175910Y51086D01*
X175946Y51322D01*
X175983Y51523D01*
Y51596D01*
Y51650D01*
Y51687D01*
Y51705D01*
Y62036D01*
X180301D01*
X180520Y62018D01*
D02*
G37*
G36*
X112814Y67484D02*
X113051Y67411D01*
X113270Y67338D01*
X113452Y67229D01*
X113598Y67137D01*
X113707Y67046D01*
X113780Y66973D01*
X113798Y66955D01*
X113962Y66718D01*
X114071Y66445D01*
X114163Y66154D01*
X114217Y65862D01*
X114254Y65589D01*
X114272Y65370D01*
Y65297D01*
Y65224D01*
Y65188D01*
Y65170D01*
Y62036D01*
X115529D01*
X115966Y62018D01*
X116331Y61963D01*
X116640Y61872D01*
X116895Y61799D01*
X117078Y61708D01*
X117205Y61617D01*
X117296Y61562D01*
X117315Y61544D01*
X117497Y61343D01*
X117624Y61143D01*
X117715Y60924D01*
X117770Y60724D01*
X117806Y60560D01*
X117843Y60414D01*
Y60323D01*
Y60287D01*
X117825Y60013D01*
X117752Y59777D01*
X117679Y59558D01*
X117570Y59376D01*
X117479Y59230D01*
X117387Y59121D01*
X117333Y59048D01*
X117315Y59030D01*
X117078Y58865D01*
X116804Y58756D01*
X116513Y58665D01*
X116221Y58610D01*
X115948Y58574D01*
X115729Y58556D01*
X114272D01*
Y50903D01*
X114254Y50539D01*
X114199Y50174D01*
X114126Y49828D01*
X114017Y49519D01*
X113907Y49209D01*
X113762Y48936D01*
X113616Y48662D01*
X113470Y48425D01*
X113324Y48225D01*
X113179Y48025D01*
X113033Y47861D01*
X112924Y47733D01*
X112814Y47624D01*
X112741Y47551D01*
X112687Y47496D01*
X112668Y47478D01*
X112340Y47241D01*
X111994Y47023D01*
X111612Y46840D01*
X111229Y46676D01*
X110828Y46549D01*
X110409Y46439D01*
X110008Y46348D01*
X109626Y46275D01*
X109261Y46203D01*
X108915Y46166D01*
X108605Y46130D01*
X108332Y46112D01*
X108113D01*
X107949Y46093D01*
X107804D01*
X107148Y46130D01*
X106455Y46203D01*
X105763Y46294D01*
X105435Y46367D01*
X105107Y46421D01*
X104816Y46476D01*
X104542Y46549D01*
X104305Y46603D01*
X104087Y46640D01*
X103923Y46694D01*
X103795Y46713D01*
X103704Y46749D01*
X103686D01*
X103249Y46877D01*
X102830Y47004D01*
X102465Y47132D01*
X102137Y47259D01*
X101828Y47387D01*
X101554Y47514D01*
X101317Y47624D01*
X101117Y47733D01*
X100935Y47842D01*
X100789Y47934D01*
X100662Y48025D01*
X100552Y48098D01*
X100479Y48152D01*
X100425Y48189D01*
X100406Y48225D01*
X100388D01*
X100206Y48425D01*
X100078Y48608D01*
X99969Y48808D01*
X99914Y48990D01*
X99878Y49154D01*
X99841Y49282D01*
Y49355D01*
Y49391D01*
X99860Y49664D01*
X99914Y49901D01*
X100005Y50120D01*
X100097Y50302D01*
X100188Y50448D01*
X100279Y50557D01*
X100333Y50630D01*
X100352Y50648D01*
X100552Y50812D01*
X100752Y50940D01*
X100935Y51031D01*
X101135Y51104D01*
X101299Y51140D01*
X101427Y51158D01*
X101536D01*
X101736Y51140D01*
X101955Y51086D01*
X102174Y51013D01*
X102392Y50940D01*
X102593Y50849D01*
X102738Y50776D01*
X102848Y50721D01*
X102866Y50703D01*
X102884D01*
X103303Y50503D01*
X103741Y50339D01*
X104178Y50174D01*
X104597Y50047D01*
X105034Y49938D01*
X105435Y49847D01*
X105818Y49774D01*
X106182Y49719D01*
X106528Y49664D01*
X106838Y49628D01*
X107111Y49610D01*
X107348Y49591D01*
X107549Y49573D01*
X108132D01*
X108441Y49591D01*
X108715Y49628D01*
X108970Y49664D01*
X109207Y49701D01*
X109407Y49755D01*
X109589Y49792D01*
X109753Y49847D01*
X109899Y49901D01*
X110008Y49956D01*
X110118Y49992D01*
X110190Y50029D01*
X110263Y50065D01*
X110300Y50102D01*
X110336Y50120D01*
X110482Y50284D01*
X110591Y50503D01*
X110682Y50739D01*
X110737Y50994D01*
X110774Y51231D01*
X110792Y51414D01*
Y51486D01*
Y51541D01*
Y51578D01*
Y51596D01*
Y58556D01*
X104378D01*
X103941Y58574D01*
X103577Y58629D01*
X103267Y58701D01*
X103012Y58793D01*
X102830Y58884D01*
X102702Y58957D01*
X102611Y59011D01*
X102593Y59030D01*
X102411Y59230D01*
X102283Y59430D01*
X102174Y59649D01*
X102119Y59849D01*
X102083Y60013D01*
X102046Y60159D01*
Y60250D01*
Y60287D01*
X102064Y60560D01*
X102137Y60815D01*
X102210Y61015D01*
X102320Y61198D01*
X102411Y61343D01*
X102502Y61453D01*
X102575Y61526D01*
X102593Y61544D01*
X102830Y61708D01*
X103103Y61835D01*
X103394Y61908D01*
X103686Y61981D01*
X103959Y62018D01*
X104178Y62036D01*
X110792D01*
Y65170D01*
X110810Y65607D01*
X110865Y65971D01*
X110956Y66281D01*
X111029Y66536D01*
X111120Y66718D01*
X111211Y66846D01*
X111266Y66937D01*
X111284Y66955D01*
X111484Y67137D01*
X111685Y67265D01*
X111903Y67374D01*
X112104Y67429D01*
X112268Y67465D01*
X112413Y67502D01*
X112541D01*
X112814Y67484D01*
D02*
G37*
G36*
X324859Y67192D02*
X325241Y67137D01*
X325569Y67046D01*
X325806Y66973D01*
X326006Y66882D01*
X326134Y66791D01*
X326225Y66737D01*
X326243Y66718D01*
X326426Y66536D01*
X326553Y66317D01*
X326644Y66117D01*
X326699Y65917D01*
X326735Y65734D01*
X326772Y65589D01*
Y65498D01*
Y65479D01*
Y65461D01*
X326753Y65188D01*
X326680Y64933D01*
X326608Y64714D01*
X326498Y64532D01*
X326407Y64404D01*
X326316Y64295D01*
X326261Y64222D01*
X326243Y64204D01*
X326134Y64113D01*
X326006Y64040D01*
X325733Y63931D01*
X325423Y63840D01*
X325132Y63785D01*
X324840Y63748D01*
X324731D01*
X324622Y63730D01*
X323856D01*
Y50120D01*
X324640D01*
X324859Y50102D01*
X325241Y50047D01*
X325569Y49956D01*
X325806Y49883D01*
X326006Y49792D01*
X326134Y49701D01*
X326225Y49646D01*
X326243Y49628D01*
X326426Y49446D01*
X326553Y49227D01*
X326644Y49027D01*
X326699Y48826D01*
X326735Y48662D01*
X326772Y48516D01*
Y48425D01*
Y48389D01*
X326753Y48116D01*
X326680Y47861D01*
X326608Y47642D01*
X326498Y47460D01*
X326407Y47314D01*
X326316Y47205D01*
X326261Y47132D01*
X326243Y47114D01*
X326134Y47023D01*
X326006Y46950D01*
X325733Y46840D01*
X325423Y46749D01*
X325132Y46694D01*
X324840Y46658D01*
X324731D01*
X324622Y46640D01*
X316860D01*
X316405Y46658D01*
X316022Y46713D01*
X315712Y46786D01*
X315457Y46877D01*
X315275Y46968D01*
X315147Y47041D01*
X315056Y47095D01*
X315038Y47114D01*
X314856Y47296D01*
X314728Y47514D01*
X314619Y47715D01*
X314564Y47915D01*
X314528Y48098D01*
X314491Y48243D01*
Y48334D01*
Y48371D01*
X314510Y48644D01*
X314582Y48899D01*
X314655Y49100D01*
X314765Y49282D01*
X314856Y49428D01*
X314947Y49537D01*
X315020Y49610D01*
X315038Y49628D01*
X315275Y49792D01*
X315548Y49920D01*
X315840Y49992D01*
X316149Y50065D01*
X316423Y50102D01*
X316550D01*
X316641Y50120D01*
X320376D01*
Y53709D01*
X316714D01*
X316350Y53727D01*
X316004Y53764D01*
X315694Y53782D01*
X315384Y53819D01*
X315111Y53873D01*
X314856Y53910D01*
X314619Y53964D01*
X314419Y54001D01*
X314236Y54037D01*
X314090Y54092D01*
X313963Y54128D01*
X313854Y54165D01*
X313781Y54183D01*
X313744Y54201D01*
X313726D01*
X313252Y54402D01*
X312779Y54638D01*
X312360Y54893D01*
X311977Y55130D01*
X311813Y55240D01*
X311667Y55349D01*
X311540Y55440D01*
X311430Y55513D01*
X311339Y55586D01*
X311266Y55641D01*
X311230Y55659D01*
X311212Y55677D01*
X310774Y56060D01*
X310410Y56424D01*
X310119Y56752D01*
X309863Y57062D01*
X309681Y57317D01*
X309554Y57517D01*
X309517Y57608D01*
X309481Y57663D01*
X309463Y57681D01*
Y57699D01*
X309226Y58210D01*
X309044Y58720D01*
X308916Y59212D01*
X308843Y59649D01*
X308807Y59849D01*
X308788Y60032D01*
X308770Y60177D01*
Y60323D01*
X308752Y60432D01*
Y60505D01*
Y60560D01*
Y60578D01*
X308770Y61088D01*
X308843Y61562D01*
X308934Y62036D01*
X309080Y62473D01*
X309226Y62892D01*
X309408Y63275D01*
X309590Y63621D01*
X309791Y63949D01*
X309991Y64240D01*
X310173Y64514D01*
X310355Y64732D01*
X310501Y64915D01*
X310629Y65060D01*
X310738Y65170D01*
X310811Y65242D01*
X310829Y65261D01*
X311230Y65607D01*
X311667Y65898D01*
X312105Y66154D01*
X312560Y66372D01*
X313034Y66572D01*
X313489Y66718D01*
X313945Y66846D01*
X314382Y66955D01*
X314801Y67028D01*
X315184Y67083D01*
X315530Y67137D01*
X315821Y67156D01*
X316058Y67174D01*
X316241Y67192D01*
X316405D01*
X324403Y67210D01*
X324640D01*
X324859Y67192D01*
D02*
G37*
G36*
X240008Y62018D02*
X240391Y61963D01*
X240719Y61872D01*
X240955Y61799D01*
X241156Y61708D01*
X241283Y61617D01*
X241374Y61562D01*
X241393Y61544D01*
X241575Y61362D01*
X241703Y61143D01*
X241794Y60943D01*
X241848Y60742D01*
X241885Y60578D01*
X241921Y60432D01*
Y60341D01*
Y60305D01*
X241903Y60032D01*
X241830Y59777D01*
X241757Y59558D01*
X241648Y59376D01*
X241557Y59230D01*
X241466Y59121D01*
X241411Y59048D01*
X241393Y59030D01*
X241283Y58938D01*
X241156Y58865D01*
X240883Y58756D01*
X240573Y58665D01*
X240281Y58610D01*
X239990Y58574D01*
X239880D01*
X239771Y58556D01*
X236747D01*
Y50120D01*
X241156D01*
X241374Y50102D01*
X241757Y50047D01*
X242085Y49956D01*
X242322Y49883D01*
X242522Y49792D01*
X242650Y49701D01*
X242741Y49646D01*
X242759Y49628D01*
X242941Y49446D01*
X243069Y49227D01*
X243160Y49027D01*
X243215Y48826D01*
X243251Y48662D01*
X243288Y48516D01*
Y48425D01*
Y48389D01*
X243269Y48116D01*
X243197Y47861D01*
X243124Y47642D01*
X243014Y47460D01*
X242923Y47314D01*
X242832Y47205D01*
X242777Y47132D01*
X242759Y47114D01*
X242650Y47023D01*
X242522Y46950D01*
X242249Y46840D01*
X241939Y46749D01*
X241648Y46694D01*
X241356Y46658D01*
X241247D01*
X241138Y46640D01*
X229094D01*
X228639Y46658D01*
X228256Y46713D01*
X227946Y46786D01*
X227691Y46877D01*
X227509Y46968D01*
X227382Y47041D01*
X227291Y47095D01*
X227272Y47114D01*
X227090Y47296D01*
X226962Y47514D01*
X226853Y47715D01*
X226799Y47915D01*
X226762Y48098D01*
X226726Y48243D01*
Y48334D01*
Y48371D01*
X226744Y48644D01*
X226817Y48899D01*
X226890Y49100D01*
X226999Y49282D01*
X227090Y49428D01*
X227181Y49537D01*
X227254Y49610D01*
X227272Y49628D01*
X227509Y49792D01*
X227782Y49920D01*
X228074Y49992D01*
X228384Y50065D01*
X228657Y50102D01*
X228784D01*
X228876Y50120D01*
X233267D01*
Y62036D01*
X239789D01*
X240008Y62018D01*
D02*
G37*
G36*
X89511Y62491D02*
X89948Y62455D01*
X90367Y62400D01*
X90768Y62327D01*
X91169Y62236D01*
X91533Y62145D01*
X91879Y62036D01*
X92207Y61926D01*
X92517Y61817D01*
X92790Y61708D01*
X93009Y61617D01*
X93209Y61526D01*
X93374Y61453D01*
X93501Y61398D01*
X93574Y61362D01*
X93592Y61343D01*
X93993Y61125D01*
X94357Y60870D01*
X94704Y60633D01*
X95031Y60360D01*
X95323Y60104D01*
X95596Y59831D01*
X95833Y59576D01*
X96070Y59321D01*
X96252Y59084D01*
X96434Y58865D01*
X96580Y58683D01*
X96689Y58501D01*
X96781Y58373D01*
X96854Y58264D01*
X96890Y58191D01*
X96908Y58173D01*
X97109Y57790D01*
X97291Y57426D01*
X97436Y57062D01*
X97564Y56697D01*
X97673Y56333D01*
X97783Y56005D01*
X97856Y55677D01*
X97910Y55386D01*
X97965Y55112D01*
X98001Y54857D01*
X98020Y54638D01*
X98038Y54456D01*
X98056Y54292D01*
Y54183D01*
Y54110D01*
Y54092D01*
X98038Y53709D01*
X98001Y53327D01*
X97947Y52962D01*
X97874Y52616D01*
X97801Y52270D01*
X97692Y51942D01*
X97601Y51632D01*
X97491Y51359D01*
X97382Y51086D01*
X97291Y50867D01*
X97181Y50648D01*
X97109Y50484D01*
X97036Y50339D01*
X96981Y50247D01*
X96945Y50174D01*
X96926Y50156D01*
X96708Y49810D01*
X96453Y49482D01*
X96198Y49191D01*
X95942Y48899D01*
X95669Y48644D01*
X95378Y48389D01*
X95123Y48170D01*
X94849Y47970D01*
X94612Y47788D01*
X94375Y47624D01*
X94157Y47496D01*
X93993Y47387D01*
X93829Y47296D01*
X93720Y47241D01*
X93647Y47205D01*
X93629Y47186D01*
X93209Y46986D01*
X92809Y46822D01*
X92390Y46676D01*
X91989Y46549D01*
X91606Y46458D01*
X91224Y46367D01*
X90859Y46294D01*
X90531Y46239D01*
X90221Y46184D01*
X89930Y46148D01*
X89693Y46130D01*
X89474Y46112D01*
X89310Y46093D01*
X89073D01*
X88636Y46112D01*
X88199Y46148D01*
X87762Y46203D01*
X87343Y46257D01*
X86942Y46348D01*
X86577Y46439D01*
X86213Y46531D01*
X85885Y46640D01*
X85575Y46749D01*
X85302Y46840D01*
X85065Y46931D01*
X84865Y47023D01*
X84701Y47077D01*
X84573Y47132D01*
X84500Y47168D01*
X84482Y47186D01*
X84081Y47405D01*
X83699Y47642D01*
X83352Y47879D01*
X83025Y48116D01*
X82733Y48371D01*
X82460Y48626D01*
X82223Y48863D01*
X82004Y49100D01*
X81804Y49318D01*
X81640Y49519D01*
X81494Y49701D01*
X81366Y49865D01*
X81275Y49992D01*
X81221Y50083D01*
X81184Y50156D01*
X81166Y50174D01*
X80966Y50521D01*
X80802Y50885D01*
X80656Y51231D01*
X80528Y51578D01*
X80419Y51905D01*
X80328Y52233D01*
X80255Y52525D01*
X80200Y52816D01*
X80146Y53090D01*
X80109Y53327D01*
X80091Y53527D01*
X80073Y53709D01*
X80055Y53855D01*
Y53964D01*
Y54037D01*
Y54055D01*
X80073Y54438D01*
X80109Y54839D01*
X80164Y55203D01*
X80237Y55586D01*
X80310Y55932D01*
X80419Y56260D01*
X80510Y56588D01*
X80619Y56880D01*
X80729Y57153D01*
X80820Y57390D01*
X80929Y57608D01*
X81002Y57790D01*
X81075Y57936D01*
X81130Y58046D01*
X81166Y58118D01*
X81184Y58137D01*
X81403Y58501D01*
X81640Y58847D01*
X81895Y59175D01*
X82168Y59485D01*
X82441Y59758D01*
X82715Y60032D01*
X82988Y60268D01*
X83261Y60487D01*
X83516Y60669D01*
X83735Y60852D01*
X83954Y60997D01*
X84136Y61106D01*
X84282Y61198D01*
X84409Y61270D01*
X84482Y61307D01*
X84500Y61325D01*
X84919Y61526D01*
X85320Y61708D01*
X85739Y61872D01*
X86140Y62018D01*
X86541Y62127D01*
X86924Y62218D01*
X87270Y62291D01*
X87616Y62364D01*
X87926Y62418D01*
X88199Y62455D01*
X88454Y62473D01*
X88673Y62491D01*
X88837Y62510D01*
X89073D01*
X89511Y62491D01*
D02*
G37*
G36*
X151258D02*
X151750Y62437D01*
X152188Y62382D01*
X152607Y62309D01*
X152771Y62254D01*
X152935Y62218D01*
X153080Y62182D01*
X153208Y62163D01*
X153299Y62127D01*
X153372Y62109D01*
X153408Y62090D01*
X153427D01*
X153900Y61926D01*
X154356Y61726D01*
X154793Y61526D01*
X155176Y61325D01*
X155340Y61234D01*
X155485Y61143D01*
X155613Y61070D01*
X155722Y60997D01*
X155813Y60943D01*
X155886Y60906D01*
X155923Y60888D01*
X155941Y60870D01*
Y62036D01*
X160259D01*
X160478Y62018D01*
X160860Y61963D01*
X161188Y61872D01*
X161425Y61799D01*
X161626Y61708D01*
X161753Y61617D01*
X161844Y61562D01*
X161862Y61544D01*
X162045Y61362D01*
X162172Y61143D01*
X162263Y60943D01*
X162318Y60742D01*
X162354Y60578D01*
X162391Y60432D01*
Y60341D01*
Y60305D01*
X162373Y60032D01*
X162300Y59777D01*
X162227Y59558D01*
X162118Y59376D01*
X162026Y59230D01*
X161935Y59121D01*
X161881Y59048D01*
X161862Y59030D01*
X161753Y58938D01*
X161626Y58865D01*
X161352Y58756D01*
X161042Y58665D01*
X160751Y58610D01*
X160459Y58574D01*
X160350D01*
X160241Y58556D01*
X159421D01*
Y42850D01*
X160259D01*
X160478Y42832D01*
X160860Y42777D01*
X161188Y42704D01*
X161425Y42613D01*
X161626Y42522D01*
X161753Y42449D01*
X161844Y42395D01*
X161862Y42376D01*
X162045Y42176D01*
X162172Y41976D01*
X162263Y41757D01*
X162318Y41557D01*
X162354Y41374D01*
X162391Y41229D01*
Y41137D01*
Y41119D01*
Y41101D01*
X162373Y40828D01*
X162300Y40591D01*
X162227Y40372D01*
X162118Y40190D01*
X162026Y40044D01*
X161935Y39953D01*
X161881Y39880D01*
X161862Y39862D01*
X161753Y39771D01*
X161626Y39698D01*
X161352Y39571D01*
X161042Y39498D01*
X160751Y39425D01*
X160459Y39388D01*
X160350D01*
X160241Y39370D01*
X153846D01*
X153390Y39388D01*
X153007Y39443D01*
X152698Y39534D01*
X152443Y39625D01*
X152260Y39698D01*
X152133Y39789D01*
X152042Y39844D01*
X152024Y39862D01*
X151841Y40044D01*
X151714Y40263D01*
X151605Y40463D01*
X151550Y40664D01*
X151514Y40828D01*
X151477Y40973D01*
Y41065D01*
Y41101D01*
X151495Y41374D01*
X151568Y41629D01*
X151641Y41848D01*
X151750Y42030D01*
X151841Y42176D01*
X151933Y42285D01*
X152005Y42358D01*
X152024Y42376D01*
X152260Y42540D01*
X152534Y42650D01*
X152825Y42741D01*
X153135Y42795D01*
X153408Y42832D01*
X153536D01*
X153627Y42850D01*
X155941D01*
Y48571D01*
X155449Y48298D01*
X154993Y48061D01*
X154556Y47861D01*
X154155Y47678D01*
X153991Y47624D01*
X153827Y47551D01*
X153700Y47496D01*
X153572Y47460D01*
X153481Y47423D01*
X153408Y47405D01*
X153372Y47387D01*
X153354D01*
X152862Y47259D01*
X152388Y47168D01*
X151933Y47095D01*
X151532Y47059D01*
X151368Y47041D01*
X151204Y47023D01*
X151058D01*
X150930Y47004D01*
X150712D01*
X150129Y47023D01*
X149582Y47077D01*
X149036Y47168D01*
X148525Y47296D01*
X148033Y47442D01*
X147578Y47587D01*
X147141Y47769D01*
X146740Y47934D01*
X146394Y48116D01*
X146066Y48280D01*
X145792Y48425D01*
X145555Y48571D01*
X145373Y48699D01*
X145228Y48790D01*
X145155Y48845D01*
X145118Y48863D01*
X144590Y49300D01*
X144134Y49755D01*
X143734Y50211D01*
X143406Y50703D01*
X143114Y51177D01*
X142877Y51650D01*
X142677Y52106D01*
X142513Y52543D01*
X142403Y52962D01*
X142312Y53345D01*
X142239Y53673D01*
X142203Y53983D01*
X142167Y54219D01*
X142148Y54402D01*
Y54456D01*
Y54511D01*
Y54529D01*
Y54547D01*
X142185Y55130D01*
X142258Y55677D01*
X142385Y56224D01*
X142549Y56734D01*
X142731Y57208D01*
X142950Y57663D01*
X143169Y58100D01*
X143406Y58483D01*
X143642Y58847D01*
X143861Y59157D01*
X144080Y59430D01*
X144262Y59667D01*
X144426Y59849D01*
X144553Y59977D01*
X144626Y60050D01*
X144663Y60086D01*
X145136Y60505D01*
X145647Y60888D01*
X146157Y61216D01*
X146667Y61489D01*
X147195Y61726D01*
X147687Y61926D01*
X148179Y62072D01*
X148653Y62200D01*
X149090Y62309D01*
X149491Y62382D01*
X149837Y62437D01*
X150147Y62473D01*
X150402Y62491D01*
X150584Y62510D01*
X150748D01*
X151258Y62491D01*
D02*
G37*
%LPC*%
G36*
X320376Y63730D02*
X316386D01*
X316022Y63712D01*
X315676Y63694D01*
X315366Y63639D01*
X315074Y63585D01*
X314801Y63512D01*
X314546Y63439D01*
X314309Y63348D01*
X314109Y63275D01*
X313927Y63184D01*
X313763Y63092D01*
X313635Y63020D01*
X313526Y62947D01*
X313435Y62892D01*
X313380Y62837D01*
X313344Y62819D01*
X313325Y62801D01*
X313125Y62619D01*
X312961Y62455D01*
X312815Y62273D01*
X312688Y62090D01*
X312578Y61908D01*
X312505Y61726D01*
X312360Y61398D01*
X312287Y61106D01*
X312268Y60979D01*
X312250Y60870D01*
X312232Y60797D01*
Y60724D01*
Y60688D01*
Y60669D01*
X312250Y60396D01*
X312287Y60159D01*
X312360Y59904D01*
X312433Y59685D01*
X312651Y59266D01*
X312888Y58902D01*
X313016Y58738D01*
X313143Y58610D01*
X313252Y58483D01*
X313362Y58392D01*
X313435Y58319D01*
X313508Y58264D01*
X313544Y58228D01*
X313562Y58210D01*
X313817Y58027D01*
X314090Y57882D01*
X314382Y57736D01*
X314692Y57626D01*
X315293Y57444D01*
X315858Y57317D01*
X316131Y57280D01*
X316386Y57244D01*
X316605Y57226D01*
X316787Y57208D01*
X316951Y57189D01*
X320376D01*
Y63730D01*
D02*
G37*
G36*
X89183Y59030D02*
X89073D01*
X88582Y59011D01*
X88126Y58957D01*
X87689Y58847D01*
X87270Y58738D01*
X86887Y58592D01*
X86523Y58428D01*
X86213Y58246D01*
X85903Y58082D01*
X85648Y57900D01*
X85411Y57718D01*
X85211Y57554D01*
X85047Y57408D01*
X84919Y57299D01*
X84828Y57208D01*
X84774Y57135D01*
X84755Y57116D01*
X84537Y56843D01*
X84355Y56588D01*
X84191Y56315D01*
X84045Y56041D01*
X83935Y55786D01*
X83826Y55531D01*
X83680Y55058D01*
X83644Y54839D01*
X83608Y54638D01*
X83571Y54475D01*
X83553Y54329D01*
X83535Y54201D01*
Y54110D01*
Y54055D01*
Y54037D01*
X83553Y53727D01*
X83608Y53436D01*
X83680Y53144D01*
X83790Y52871D01*
X83899Y52598D01*
X84045Y52343D01*
X84191Y52106D01*
X84336Y51887D01*
X84482Y51687D01*
X84628Y51505D01*
X84774Y51359D01*
X84883Y51231D01*
X84992Y51122D01*
X85065Y51049D01*
X85120Y50994D01*
X85138Y50976D01*
X85448Y50721D01*
X85757Y50521D01*
X86085Y50320D01*
X86413Y50174D01*
X86760Y50029D01*
X87088Y49920D01*
X87397Y49828D01*
X87707Y49755D01*
X87980Y49683D01*
X88254Y49646D01*
X88472Y49610D01*
X88673Y49591D01*
X88837D01*
X88964Y49573D01*
X89073D01*
X89493Y49591D01*
X89912Y49628D01*
X90294Y49701D01*
X90659Y49792D01*
X91005Y49901D01*
X91333Y50011D01*
X91624Y50138D01*
X91898Y50284D01*
X92153Y50411D01*
X92353Y50539D01*
X92554Y50648D01*
X92699Y50758D01*
X92827Y50849D01*
X92918Y50922D01*
X92973Y50958D01*
X92991Y50976D01*
X93264Y51249D01*
X93519Y51523D01*
X93720Y51778D01*
X93902Y52051D01*
X94066Y52306D01*
X94193Y52561D01*
X94284Y52798D01*
X94375Y53035D01*
X94448Y53236D01*
X94485Y53436D01*
X94521Y53600D01*
X94558Y53746D01*
Y53855D01*
X94576Y53946D01*
Y54001D01*
Y54019D01*
X94558Y54383D01*
X94503Y54748D01*
X94430Y55076D01*
X94339Y55404D01*
X94212Y55713D01*
X94084Y56005D01*
X93938Y56260D01*
X93792Y56515D01*
X93647Y56734D01*
X93501Y56934D01*
X93374Y57098D01*
X93246Y57244D01*
X93155Y57371D01*
X93082Y57444D01*
X93027Y57499D01*
X93009Y57517D01*
X92699Y57790D01*
X92390Y58009D01*
X92062Y58228D01*
X91734Y58392D01*
X91387Y58538D01*
X91059Y58665D01*
X90750Y58756D01*
X90440Y58847D01*
X90167Y58902D01*
X89893Y58957D01*
X89675Y58975D01*
X89456Y59011D01*
X89292D01*
X89183Y59030D01*
D02*
G37*
G36*
X150894D02*
X150785D01*
X150202Y58993D01*
X149673Y58902D01*
X149199Y58793D01*
X148981Y58720D01*
X148781Y58647D01*
X148617Y58574D01*
X148452Y58501D01*
X148325Y58446D01*
X148197Y58392D01*
X148125Y58337D01*
X148052Y58301D01*
X148015Y58282D01*
X147997Y58264D01*
X147578Y57973D01*
X147214Y57663D01*
X146904Y57335D01*
X146649Y57043D01*
X146467Y56788D01*
X146321Y56570D01*
X146266Y56497D01*
X146230Y56442D01*
X146211Y56406D01*
Y56388D01*
X146011Y55987D01*
X145865Y55622D01*
X145774Y55313D01*
X145701Y55039D01*
X145665Y54821D01*
X145628Y54657D01*
Y54566D01*
Y54529D01*
X145647Y54256D01*
X145683Y54001D01*
X145756Y53746D01*
X145865Y53491D01*
X146102Y53035D01*
X146357Y52616D01*
X146503Y52434D01*
X146631Y52270D01*
X146758Y52124D01*
X146867Y52015D01*
X146958Y51905D01*
X147031Y51833D01*
X147086Y51796D01*
X147104Y51778D01*
X147396Y51559D01*
X147687Y51359D01*
X147997Y51177D01*
X148307Y51031D01*
X148617Y50903D01*
X148908Y50794D01*
X149218Y50721D01*
X149491Y50648D01*
X149764Y50594D01*
X150001Y50557D01*
X150220Y50521D01*
X150420Y50503D01*
X150566Y50484D01*
X150785D01*
X151186Y50503D01*
X151568Y50539D01*
X151951Y50612D01*
X152297Y50685D01*
X152607Y50794D01*
X152916Y50903D01*
X153190Y51013D01*
X153445Y51140D01*
X153682Y51268D01*
X153882Y51377D01*
X154046Y51486D01*
X154192Y51596D01*
X154319Y51669D01*
X154392Y51741D01*
X154447Y51778D01*
X154465Y51796D01*
X154720Y52051D01*
X154957Y52288D01*
X155157Y52525D01*
X155322Y52780D01*
X155467Y52999D01*
X155577Y53236D01*
X155686Y53436D01*
X155759Y53636D01*
X155813Y53819D01*
X155868Y53983D01*
X155886Y54128D01*
X155923Y54256D01*
Y54365D01*
X155941Y54438D01*
Y54475D01*
Y54493D01*
X155923Y54729D01*
X155904Y54966D01*
X155777Y55422D01*
X155613Y55859D01*
X155431Y56242D01*
X155340Y56424D01*
X155249Y56570D01*
X155157Y56716D01*
X155085Y56843D01*
X155012Y56934D01*
X154957Y57007D01*
X154939Y57043D01*
X154921Y57062D01*
X154629Y57408D01*
X154301Y57718D01*
X153973Y57973D01*
X153627Y58191D01*
X153281Y58392D01*
X152935Y58556D01*
X152607Y58683D01*
X152279Y58793D01*
X151969Y58865D01*
X151696Y58920D01*
X151441Y58975D01*
X151222Y58993D01*
X151040Y59011D01*
X150894Y59030D01*
D02*
G37*
%LPD*%
D12*
X32548Y-104724D02*
X37795D01*
X32548Y-99477D01*
Y-98165D01*
X33860Y-96853D01*
X36483D01*
X37795Y-98165D01*
X29924D02*
X28612Y-96853D01*
X25988D01*
X24676Y-98165D01*
Y-103412D01*
X25988Y-104724D01*
X28612D01*
X29924Y-103412D01*
Y-98165D01*
X16805Y-104724D02*
X22052D01*
X16805Y-99477D01*
Y-98165D01*
X18117Y-96853D01*
X20740D01*
X22052Y-98165D01*
X10245Y-104724D02*
Y-96853D01*
X14181Y-100789D01*
X8933D01*
X525984Y-104724D02*
Y-96853D01*
X522049D01*
X520737Y-98165D01*
Y-100789D01*
X522049Y-102101D01*
X525984D01*
X523360D02*
X520737Y-104724D01*
X514177D02*
X516801D01*
X518113Y-103412D01*
Y-100789D01*
X516801Y-99477D01*
X514177D01*
X512865Y-100789D01*
Y-102101D01*
X518113D01*
X510241Y-99477D02*
X507618Y-104724D01*
X504994Y-99477D01*
X494498Y-104724D02*
X491875D01*
X493186D01*
Y-96853D01*
X494498Y-98165D01*
X487939Y-104724D02*
Y-103412D01*
X486627D01*
Y-104724D01*
X487939D01*
X481379Y-98165D02*
X480067Y-96853D01*
X477444D01*
X476132Y-98165D01*
Y-103412D01*
X477444Y-104724D01*
X480067D01*
X481379Y-103412D01*
Y-98165D01*
X277953Y-104724D02*
Y-99477D01*
X274017D01*
X272705Y-100789D01*
Y-104724D01*
X268769D02*
X266145D01*
X264834Y-103412D01*
Y-100789D01*
X266145Y-99477D01*
X268769D01*
X270081Y-100789D01*
Y-103412D01*
X268769Y-104724D01*
X262210Y-99477D02*
X256962Y-104724D01*
X259586Y-102101D01*
X256962Y-99477D01*
X262210Y-104724D01*
X250403D02*
X253026D01*
X254338Y-103412D01*
Y-100789D01*
X253026Y-99477D01*
X250403D01*
X249091Y-100789D01*
Y-102101D01*
X254338D01*
X245155Y-98165D02*
Y-99477D01*
X246467D01*
X243843D01*
X245155D01*
Y-103412D01*
X243843Y-104724D01*
M02*
