G04*
G04 #@! TF.GenerationSoftware,Altium Limited,Altium Designer,25.0.2 (28)*
G04*
G04 Layer_Physical_Order=2*
G04 Layer_Color=16711680*
%FSLAX25Y25*%
%MOIN*%
G70*
G04*
G04 #@! TF.SameCoordinates,806C6703-1472-4CDD-89B2-E77C97C87F0E*
G04*
G04*
G04 #@! TF.FilePolarity,Positive*
G04*
G01*
G75*
%ADD12C,0.01575*%
%ADD15C,0.02362*%
%ADD47C,0.03937*%
G04:AMPARAMS|DCode=48|XSize=102.36mil|YSize=78.74mil|CornerRadius=19.68mil|HoleSize=0mil|Usage=FLASHONLY|Rotation=270.000|XOffset=0mil|YOffset=0mil|HoleType=Round|Shape=RoundedRectangle|*
%AMROUNDEDRECTD48*
21,1,0.10236,0.03937,0,0,270.0*
21,1,0.06299,0.07874,0,0,270.0*
1,1,0.03937,-0.01968,-0.03150*
1,1,0.03937,-0.01968,0.03150*
1,1,0.03937,0.01968,0.03150*
1,1,0.03937,0.01968,-0.03150*
%
%ADD48ROUNDEDRECTD48*%
G04:AMPARAMS|DCode=49|XSize=102.36mil|YSize=78.74mil|CornerRadius=19.68mil|HoleSize=0mil|Usage=FLASHONLY|Rotation=180.000|XOffset=0mil|YOffset=0mil|HoleType=Round|Shape=RoundedRectangle|*
%AMROUNDEDRECTD49*
21,1,0.10236,0.03937,0,0,180.0*
21,1,0.06299,0.07874,0,0,180.0*
1,1,0.03937,-0.03150,0.01968*
1,1,0.03937,0.03150,0.01968*
1,1,0.03937,0.03150,-0.01968*
1,1,0.03937,-0.03150,-0.01968*
%
%ADD49ROUNDEDRECTD49*%
G04:AMPARAMS|DCode=50|XSize=137.8mil|YSize=98.43mil|CornerRadius=24.61mil|HoleSize=0mil|Usage=FLASHONLY|Rotation=0.000|XOffset=0mil|YOffset=0mil|HoleType=Round|Shape=RoundedRectangle|*
%AMROUNDEDRECTD50*
21,1,0.13780,0.04921,0,0,0.0*
21,1,0.08858,0.09843,0,0,0.0*
1,1,0.04921,0.04429,-0.02461*
1,1,0.04921,-0.04429,-0.02461*
1,1,0.04921,-0.04429,0.02461*
1,1,0.04921,0.04429,0.02461*
%
%ADD50ROUNDEDRECTD50*%
G04:AMPARAMS|DCode=51|XSize=118.11mil|YSize=118.11mil|CornerRadius=29.53mil|HoleSize=0mil|Usage=FLASHONLY|Rotation=0.000|XOffset=0mil|YOffset=0mil|HoleType=Round|Shape=RoundedRectangle|*
%AMROUNDEDRECTD51*
21,1,0.11811,0.05906,0,0,0.0*
21,1,0.05906,0.11811,0,0,0.0*
1,1,0.05906,0.02953,-0.02953*
1,1,0.05906,-0.02953,-0.02953*
1,1,0.05906,-0.02953,0.02953*
1,1,0.05906,0.02953,0.02953*
%
%ADD51ROUNDEDRECTD51*%
%ADD52C,0.10236*%
%ADD53R,0.11811X0.09843*%
%ADD54C,0.07874*%
%ADD55R,0.07874X0.07874*%
%ADD56R,0.07874X0.07874*%
%ADD57C,0.11811*%
%ADD58R,0.11811X0.11811*%
%ADD59C,0.11457*%
%ADD60C,0.03150*%
%ADD61C,0.02362*%
G36*
X-17953Y238579D02*
X548976D01*
X549010Y238586D01*
X550603Y238460D01*
X552190Y238079D01*
X553698Y237455D01*
X555089Y236602D01*
X556330Y235542D01*
X557390Y234302D01*
X558242Y232910D01*
X558867Y231403D01*
X559248Y229816D01*
X559373Y228223D01*
X559366Y228189D01*
X559366Y-112520D01*
X559373Y-112554D01*
X559248Y-114146D01*
X558867Y-115733D01*
X558242Y-117241D01*
X557390Y-118632D01*
X556330Y-119873D01*
X555089Y-120933D01*
X553698Y-121786D01*
X552190Y-122410D01*
X550603Y-122791D01*
X549010Y-122916D01*
X548976Y-122910D01*
X-17953D01*
X-17987Y-122916D01*
X-19580Y-122791D01*
X-21166Y-122410D01*
X-22674Y-121786D01*
X-24065Y-120933D01*
X-25306Y-119873D01*
X-26366Y-118632D01*
X-27219Y-117241D01*
X-27843Y-115733D01*
X-28224Y-114146D01*
X-28350Y-112554D01*
X-28343Y-112520D01*
X-28343Y228189D01*
X-28350Y228223D01*
X-28224Y229816D01*
X-27843Y231403D01*
X-27219Y232910D01*
X-26366Y234302D01*
X-25306Y235542D01*
X-24065Y236602D01*
X-22674Y237455D01*
X-21166Y238079D01*
X-19580Y238460D01*
X-17987Y238586D01*
X-17953Y238579D01*
D02*
G37*
%LPC*%
G36*
X323583Y230011D02*
X321417D01*
Y223858D01*
X327570D01*
Y226024D01*
X327434Y227056D01*
X327035Y228017D01*
X326402Y228843D01*
X325576Y229476D01*
X324615Y229875D01*
X323583Y230011D01*
D02*
G37*
G36*
X319843D02*
X317677D01*
X316645Y229875D01*
X315684Y229476D01*
X314858Y228843D01*
X314224Y228017D01*
X313826Y227056D01*
X313690Y226024D01*
Y223858D01*
X319843D01*
Y230011D01*
D02*
G37*
G36*
X70163Y231965D02*
X68837D01*
X67537Y231706D01*
X66313Y231199D01*
X65211Y230463D01*
X64274Y229525D01*
X63537Y228423D01*
X63030Y227199D01*
X62772Y225899D01*
Y224573D01*
X63030Y223274D01*
X63537Y222049D01*
X64274Y220947D01*
X65211Y220010D01*
X66313Y219274D01*
X67537Y218766D01*
X68837Y218508D01*
X70163D01*
X71463Y218766D01*
X72687Y219274D01*
X73789Y220010D01*
X74726Y220947D01*
X75463Y222049D01*
X75970Y223274D01*
X76228Y224573D01*
Y225899D01*
X75970Y227199D01*
X75463Y228423D01*
X74726Y229525D01*
X73789Y230463D01*
X72687Y231199D01*
X71463Y231706D01*
X70163Y231965D01*
D02*
G37*
G36*
X342598Y230011D02*
X336693D01*
X335661Y229875D01*
X334700Y229476D01*
X333874Y228843D01*
X333240Y228017D01*
X332842Y227056D01*
X332706Y226024D01*
Y220118D01*
X332842Y219086D01*
X333240Y218125D01*
X333874Y217299D01*
X334700Y216665D01*
X335661Y216267D01*
X336693Y216131D01*
X342598D01*
X343630Y216267D01*
X344592Y216665D01*
X345418Y217299D01*
X346051Y218125D01*
X346449Y219086D01*
X346585Y220118D01*
Y226024D01*
X346449Y227056D01*
X346051Y228017D01*
X345418Y228843D01*
X344592Y229476D01*
X343630Y229875D01*
X342598Y230011D01*
D02*
G37*
G36*
X327570Y222284D02*
X321417D01*
Y216131D01*
X323583D01*
X324615Y216267D01*
X325576Y216665D01*
X326402Y217299D01*
X327035Y218125D01*
X327434Y219086D01*
X327570Y220118D01*
Y222284D01*
D02*
G37*
G36*
X319843D02*
X313690D01*
Y220118D01*
X313826Y219086D01*
X314224Y218125D01*
X314858Y217299D01*
X315684Y216665D01*
X316645Y216267D01*
X317677Y216131D01*
X319843D01*
Y222284D01*
D02*
G37*
G36*
X376378Y213955D02*
Y208661D01*
X381672D01*
X381473Y209659D01*
X381012Y210772D01*
X380343Y211774D01*
X379491Y212626D01*
X378489Y213296D01*
X377375Y213757D01*
X376378Y213955D01*
D02*
G37*
G36*
X374803Y213955D02*
X373806Y213757D01*
X372692Y213296D01*
X371691Y212626D01*
X370838Y211774D01*
X370169Y210772D01*
X369708Y209659D01*
X369509Y208661D01*
X374803D01*
Y213955D01*
D02*
G37*
G36*
X472835Y213955D02*
Y208661D01*
X478129D01*
X477930Y209659D01*
X477469Y210772D01*
X476799Y211774D01*
X475947Y212626D01*
X474945Y213296D01*
X473832Y213757D01*
X472835Y213955D01*
D02*
G37*
G36*
X471260Y213955D02*
X470263Y213757D01*
X469149Y213296D01*
X468147Y212626D01*
X467295Y211774D01*
X466625Y210772D01*
X466164Y209659D01*
X465966Y208661D01*
X471260D01*
Y213955D01*
D02*
G37*
G36*
X123228Y210671D02*
X120866D01*
Y206496D01*
X126223D01*
Y207677D01*
X126120Y208452D01*
X125821Y209174D01*
X125346Y209794D01*
X124725Y210270D01*
X124003Y210569D01*
X123228Y210671D01*
D02*
G37*
G36*
X119291D02*
X116929D01*
X116154Y210569D01*
X115432Y210270D01*
X114812Y209794D01*
X114336Y209174D01*
X114037Y208452D01*
X113935Y207677D01*
Y206496D01*
X119291D01*
Y210671D01*
D02*
G37*
G36*
X381672Y207087D02*
X376378D01*
Y201793D01*
X377375Y201991D01*
X378489Y202452D01*
X379491Y203122D01*
X380343Y203974D01*
X381012Y204976D01*
X381473Y206089D01*
X381672Y207087D01*
D02*
G37*
G36*
X478129Y207087D02*
X472835D01*
Y201793D01*
X473832Y201991D01*
X474945Y202452D01*
X475947Y203122D01*
X476799Y203974D01*
X477469Y204976D01*
X477930Y206089D01*
X478129Y207087D01*
D02*
G37*
G36*
X471260D02*
X465966D01*
X466164Y206089D01*
X466625Y204976D01*
X467295Y203974D01*
X468147Y203122D01*
X469149Y202452D01*
X470263Y201991D01*
X471260Y201793D01*
Y207087D01*
D02*
G37*
G36*
X374803Y207087D02*
X369509D01*
X369708Y206089D01*
X370169Y204976D01*
X370838Y203974D01*
X371691Y203122D01*
X372692Y202452D01*
X373806Y201991D01*
X374803Y201793D01*
Y207087D01*
D02*
G37*
G36*
X536429Y213992D02*
X535224D01*
X534042Y213757D01*
X532929Y213296D01*
X531927Y212626D01*
X531074Y211774D01*
X530405Y210772D01*
X529944Y209659D01*
X529709Y208477D01*
Y207271D01*
X529944Y206089D01*
X530405Y204976D01*
X531074Y203974D01*
X531927Y203122D01*
X532929Y202452D01*
X534042Y201991D01*
X535224Y201756D01*
X536429D01*
X537611Y201991D01*
X538725Y202452D01*
X539727Y203122D01*
X540579Y203974D01*
X541249Y204976D01*
X541710Y206089D01*
X541945Y207271D01*
Y208477D01*
X541710Y209659D01*
X541249Y210772D01*
X540579Y211774D01*
X539727Y212626D01*
X538725Y213296D01*
X537611Y213757D01*
X536429Y213992D01*
D02*
G37*
G36*
X439973D02*
X438767D01*
X437585Y213757D01*
X436472Y213296D01*
X435470Y212626D01*
X434618Y211774D01*
X433948Y210772D01*
X433487Y209659D01*
X433252Y208477D01*
Y207271D01*
X433487Y206089D01*
X433948Y204976D01*
X434618Y203974D01*
X435470Y203122D01*
X436472Y202452D01*
X437585Y201991D01*
X438767Y201756D01*
X439973D01*
X441155Y201991D01*
X442268Y202452D01*
X443270Y203122D01*
X444122Y203974D01*
X444792Y204976D01*
X445253Y206089D01*
X445488Y207271D01*
Y208477D01*
X445253Y209659D01*
X444792Y210772D01*
X444122Y211774D01*
X443270Y212626D01*
X442268Y213296D01*
X441155Y213757D01*
X439973Y213992D01*
D02*
G37*
G36*
X126223Y204921D02*
X120866D01*
Y200746D01*
X123228D01*
X124003Y200848D01*
X124725Y201147D01*
X125346Y201623D01*
X125821Y202243D01*
X126120Y202965D01*
X126223Y203740D01*
Y204921D01*
D02*
G37*
G36*
X119291D02*
X113935D01*
Y203740D01*
X114037Y202965D01*
X114336Y202243D01*
X114812Y201623D01*
X115432Y201147D01*
X116154Y200848D01*
X116929Y200746D01*
X119291D01*
Y204921D01*
D02*
G37*
G36*
X342598Y211507D02*
X336693D01*
X335661Y211371D01*
X334700Y210972D01*
X333874Y210339D01*
X333240Y209513D01*
X332842Y208552D01*
X332706Y207520D01*
Y201614D01*
X332842Y200582D01*
X333240Y199621D01*
X333874Y198795D01*
X334700Y198161D01*
X335661Y197763D01*
X336693Y197627D01*
X342598D01*
X343630Y197763D01*
X344592Y198161D01*
X345418Y198795D01*
X346051Y199621D01*
X346449Y200582D01*
X346585Y201614D01*
Y207520D01*
X346449Y208552D01*
X346051Y209513D01*
X345418Y210339D01*
X344592Y210972D01*
X343630Y211371D01*
X342598Y211507D01*
D02*
G37*
G36*
X323583D02*
X317677D01*
X316645Y211371D01*
X315684Y210972D01*
X314858Y210339D01*
X314224Y209513D01*
X313826Y208552D01*
X313690Y207520D01*
Y201614D01*
X313826Y200582D01*
X314224Y199621D01*
X314858Y198795D01*
X315684Y198161D01*
X316645Y197763D01*
X317677Y197627D01*
X323583D01*
X324615Y197763D01*
X325576Y198161D01*
X326402Y198795D01*
X327035Y199621D01*
X327434Y200582D01*
X327570Y201614D01*
Y207520D01*
X327434Y208552D01*
X327035Y209513D01*
X326402Y210339D01*
X325576Y210972D01*
X324615Y211371D01*
X323583Y211507D01*
D02*
G37*
G36*
X286221Y196523D02*
Y195276D01*
X287468D01*
X287282Y195724D01*
X286669Y196337D01*
X286221Y196523D01*
D02*
G37*
G36*
X284646D02*
X284198Y196337D01*
X283584Y195724D01*
X283398Y195276D01*
X284646D01*
Y196523D01*
D02*
G37*
G36*
X287468Y193701D02*
X286221D01*
Y192454D01*
X286669Y192639D01*
X287282Y193253D01*
X287468Y193701D01*
D02*
G37*
G36*
X284646D02*
X283398D01*
X283584Y193253D01*
X284198Y192639D01*
X284646Y192454D01*
Y193701D01*
D02*
G37*
G36*
X15663Y231965D02*
X14337D01*
X13037Y231706D01*
X11813Y231199D01*
X10711Y230463D01*
X9774Y229525D01*
X9037Y228423D01*
X8530Y227199D01*
X8272Y225899D01*
Y224573D01*
X8530Y223274D01*
X9037Y222049D01*
X9774Y220947D01*
X10711Y220010D01*
X11813Y219274D01*
X13037Y218766D01*
X14337Y218508D01*
X15663D01*
X16963Y218766D01*
X17155Y218846D01*
X43395Y192607D01*
X44015Y192131D01*
X44737Y191832D01*
X45512Y191730D01*
X97400D01*
Y190748D01*
X97502Y189973D01*
X97801Y189251D01*
X98277Y188631D01*
X98897Y188155D01*
X99619Y187856D01*
X100394Y187754D01*
X104331D01*
X105106Y187856D01*
X105828Y188155D01*
X106448Y188631D01*
X106924Y189251D01*
X107223Y189973D01*
X107325Y190748D01*
Y197047D01*
X107223Y197822D01*
X106924Y198544D01*
X106448Y199164D01*
X105828Y199640D01*
X105106Y199939D01*
X104331Y200041D01*
X100394D01*
X99619Y199939D01*
X98897Y199640D01*
X98277Y199164D01*
X97801Y198544D01*
X97502Y197822D01*
X97488Y197719D01*
X46752D01*
X21390Y223081D01*
X21470Y223274D01*
X21728Y224573D01*
Y225899D01*
X21470Y227199D01*
X20963Y228423D01*
X20226Y229525D01*
X19289Y230463D01*
X18187Y231199D01*
X16963Y231706D01*
X15663Y231965D01*
D02*
G37*
G36*
X342598Y193003D02*
X336693D01*
X335661Y192867D01*
X334700Y192469D01*
X333874Y191835D01*
X333240Y191009D01*
X332842Y190048D01*
X332706Y189016D01*
Y183110D01*
X332842Y182078D01*
X333240Y181117D01*
X333874Y180291D01*
X334700Y179657D01*
X335661Y179259D01*
X336693Y179123D01*
X342598D01*
X343630Y179259D01*
X344592Y179657D01*
X345418Y180291D01*
X346051Y181117D01*
X346449Y182078D01*
X346585Y183110D01*
Y189016D01*
X346449Y190048D01*
X346051Y191009D01*
X345418Y191835D01*
X344592Y192469D01*
X343630Y192867D01*
X342598Y193003D01*
D02*
G37*
G36*
X323583D02*
X317677D01*
X316645Y192867D01*
X315684Y192469D01*
X314858Y191835D01*
X314224Y191009D01*
X313826Y190048D01*
X313690Y189016D01*
Y183110D01*
X313826Y182078D01*
X314224Y181117D01*
X314858Y180291D01*
X315684Y179657D01*
X316645Y179259D01*
X317677Y179123D01*
X323583D01*
X324615Y179259D01*
X325576Y179657D01*
X326402Y180291D01*
X327035Y181117D01*
X327434Y182078D01*
X327570Y183110D01*
Y189016D01*
X327434Y190048D01*
X327035Y191009D01*
X326402Y191835D01*
X325576Y192469D01*
X324615Y192867D01*
X323583Y193003D01*
D02*
G37*
G36*
X123228Y187049D02*
X116929D01*
X116154Y186947D01*
X115432Y186648D01*
X114812Y186172D01*
X114336Y185552D01*
X114037Y184830D01*
X113935Y184055D01*
Y180118D01*
X114037Y179343D01*
X114336Y178621D01*
X114812Y178001D01*
X115432Y177525D01*
X116154Y177226D01*
X116929Y177124D01*
X123228D01*
X124003Y177226D01*
X124725Y177525D01*
X125346Y178001D01*
X125821Y178621D01*
X126120Y179343D01*
X126223Y180118D01*
Y184055D01*
X126120Y184830D01*
X125821Y185552D01*
X125346Y186172D01*
X124725Y186648D01*
X124003Y186947D01*
X123228Y187049D01*
D02*
G37*
G36*
X536429Y189189D02*
X535224D01*
X534042Y188954D01*
X532929Y188493D01*
X531927Y187823D01*
X531074Y186971D01*
X530405Y185969D01*
X529944Y184855D01*
X529709Y183674D01*
Y182468D01*
X529944Y181286D01*
X530405Y180173D01*
X531074Y179171D01*
X531927Y178319D01*
X532929Y177649D01*
X534042Y177188D01*
X535224Y176953D01*
X536429D01*
X537611Y177188D01*
X538725Y177649D01*
X539727Y178319D01*
X540579Y179171D01*
X541249Y180173D01*
X541710Y181286D01*
X541945Y182468D01*
Y183674D01*
X541710Y184855D01*
X541249Y185969D01*
X540579Y186971D01*
X539727Y187823D01*
X538725Y188493D01*
X537611Y188954D01*
X536429Y189189D01*
D02*
G37*
G36*
X472650D02*
X471445D01*
X470263Y188954D01*
X469149Y188493D01*
X468147Y187823D01*
X467295Y186971D01*
X466625Y185969D01*
X466164Y184855D01*
X465929Y183674D01*
Y182468D01*
X466164Y181286D01*
X466625Y180173D01*
X467295Y179171D01*
X468147Y178319D01*
X469149Y177649D01*
X470263Y177188D01*
X471445Y176953D01*
X472650D01*
X473832Y177188D01*
X474945Y177649D01*
X475947Y178319D01*
X476799Y179171D01*
X477469Y180173D01*
X477930Y181286D01*
X478165Y182468D01*
Y183674D01*
X477930Y184855D01*
X477469Y185969D01*
X476799Y186971D01*
X475947Y187823D01*
X474945Y188493D01*
X473832Y188954D01*
X472650Y189189D01*
D02*
G37*
G36*
X439973D02*
X438767D01*
X437585Y188954D01*
X436472Y188493D01*
X435470Y187823D01*
X434618Y186971D01*
X433948Y185969D01*
X433487Y184855D01*
X433252Y183674D01*
Y182468D01*
X433487Y181286D01*
X433948Y180173D01*
X434618Y179171D01*
X435470Y178319D01*
X436472Y177649D01*
X437585Y177188D01*
X438767Y176953D01*
X439973D01*
X441155Y177188D01*
X442268Y177649D01*
X443270Y178319D01*
X444122Y179171D01*
X444792Y180173D01*
X445253Y181286D01*
X445488Y182468D01*
Y183674D01*
X445253Y184855D01*
X444792Y185969D01*
X444122Y186971D01*
X443270Y187823D01*
X442268Y188493D01*
X441155Y188954D01*
X439973Y189189D01*
D02*
G37*
G36*
X376193D02*
X374988D01*
X373806Y188954D01*
X372692Y188493D01*
X371691Y187823D01*
X370838Y186971D01*
X370169Y185969D01*
X369708Y184855D01*
X369472Y183674D01*
Y182468D01*
X369708Y181286D01*
X370169Y180173D01*
X370838Y179171D01*
X371691Y178319D01*
X372692Y177649D01*
X373806Y177188D01*
X374988Y176953D01*
X376193D01*
X377375Y177188D01*
X378489Y177649D01*
X379491Y178319D01*
X380343Y179171D01*
X381012Y180173D01*
X381473Y181286D01*
X381709Y182468D01*
Y183674D01*
X381473Y184855D01*
X381012Y185969D01*
X380343Y186971D01*
X379491Y187823D01*
X378489Y188493D01*
X377375Y188954D01*
X376193Y189189D01*
D02*
G37*
G36*
X239862Y172290D02*
X236221D01*
Y167126D01*
X243353D01*
Y168799D01*
X243234Y169703D01*
X242885Y170545D01*
X242330Y171267D01*
X241607Y171822D01*
X240766Y172171D01*
X239862Y172290D01*
D02*
G37*
G36*
X234646D02*
X231004D01*
X230100Y172171D01*
X229259Y171822D01*
X228536Y171267D01*
X227981Y170545D01*
X227632Y169703D01*
X227514Y168799D01*
Y167126D01*
X234646D01*
Y172290D01*
D02*
G37*
G36*
X278346Y167809D02*
Y166142D01*
X280014D01*
X279958Y166348D01*
X279619Y166935D01*
X279140Y167415D01*
X278553Y167754D01*
X278346Y167809D01*
D02*
G37*
G36*
X276772D02*
X276565Y167754D01*
X275978Y167415D01*
X275499Y166935D01*
X275160Y166348D01*
X275104Y166142D01*
X276772D01*
Y167809D01*
D02*
G37*
G36*
X280014Y164567D02*
X278346D01*
Y162900D01*
X278553Y162955D01*
X279140Y163294D01*
X279619Y163773D01*
X279958Y164360D01*
X280014Y164567D01*
D02*
G37*
G36*
X276772D02*
X275104D01*
X275160Y164360D01*
X275499Y163773D01*
X275978Y163294D01*
X276565Y162955D01*
X276772Y162900D01*
Y164567D01*
D02*
G37*
G36*
X243353Y165551D02*
X236221D01*
Y160388D01*
X239862D01*
X240766Y160506D01*
X241607Y160855D01*
X242330Y161410D01*
X242885Y162133D01*
X243234Y162975D01*
X243353Y163878D01*
Y165551D01*
D02*
G37*
G36*
X234646D02*
X227514D01*
Y163878D01*
X227632Y162975D01*
X227981Y162133D01*
X228536Y161410D01*
X229259Y160855D01*
X230100Y160506D01*
X231004Y160388D01*
X234646D01*
Y165551D01*
D02*
G37*
G36*
X198130Y172290D02*
X189272D01*
X188368Y172171D01*
X187526Y171822D01*
X186803Y171267D01*
X186249Y170545D01*
X185900Y169703D01*
X185781Y168799D01*
Y163878D01*
X185900Y162975D01*
X186249Y162133D01*
X186803Y161410D01*
X187526Y160855D01*
X188368Y160506D01*
X189272Y160388D01*
X198130D01*
X199033Y160506D01*
X199875Y160855D01*
X200598Y161410D01*
X201153Y162133D01*
X201501Y162975D01*
X201620Y163878D01*
Y168799D01*
X201501Y169703D01*
X201153Y170545D01*
X200598Y171267D01*
X199875Y171822D01*
X199033Y172171D01*
X198130Y172290D01*
D02*
G37*
G36*
X70163Y171728D02*
X68837D01*
X67537Y171470D01*
X66313Y170963D01*
X65211Y170226D01*
X64274Y169289D01*
X63537Y168187D01*
X63030Y166963D01*
X62772Y165663D01*
Y164337D01*
X63030Y163037D01*
X63537Y161813D01*
X64274Y160711D01*
X65211Y159774D01*
X66313Y159037D01*
X67537Y158530D01*
X68837Y158272D01*
X70163D01*
X71463Y158530D01*
X72687Y159037D01*
X73789Y159774D01*
X74726Y160711D01*
X75463Y161813D01*
X75970Y163037D01*
X76228Y164337D01*
Y165663D01*
X75970Y166963D01*
X75463Y168187D01*
X74726Y169289D01*
X73789Y170226D01*
X72687Y170963D01*
X71463Y171470D01*
X70163Y171728D01*
D02*
G37*
G36*
X15663D02*
X14337D01*
X13037Y171470D01*
X11813Y170963D01*
X10711Y170226D01*
X9774Y169289D01*
X9037Y168187D01*
X8530Y166963D01*
X8272Y165663D01*
Y164337D01*
X8530Y163037D01*
X9037Y161813D01*
X9774Y160711D01*
X10711Y159774D01*
X11813Y159037D01*
X13037Y158530D01*
X14337Y158272D01*
X15663D01*
X16963Y158530D01*
X18187Y159037D01*
X19289Y159774D01*
X20226Y160711D01*
X20963Y161813D01*
X21470Y163037D01*
X21728Y164337D01*
Y165663D01*
X21470Y166963D01*
X20963Y168187D01*
X20226Y169289D01*
X19289Y170226D01*
X18187Y170963D01*
X16963Y171470D01*
X15663Y171728D01*
D02*
G37*
G36*
X536429Y164386D02*
X535224D01*
X534042Y164151D01*
X532929Y163689D01*
X531927Y163020D01*
X531074Y162168D01*
X530405Y161166D01*
X529944Y160052D01*
X529709Y158870D01*
Y157665D01*
X529944Y156483D01*
X530405Y155370D01*
X531074Y154368D01*
X531927Y153516D01*
X532929Y152846D01*
X534042Y152385D01*
X535224Y152150D01*
X536429D01*
X537611Y152385D01*
X538725Y152846D01*
X539727Y153516D01*
X540579Y154368D01*
X541249Y155370D01*
X541710Y156483D01*
X541945Y157665D01*
Y158870D01*
X541710Y160052D01*
X541249Y161166D01*
X540579Y162168D01*
X539727Y163020D01*
X538725Y163689D01*
X537611Y164151D01*
X536429Y164386D01*
D02*
G37*
G36*
X293670Y179389D02*
X293670Y179389D01*
X217520D01*
X216669Y179220D01*
X215947Y178738D01*
X215947Y178738D01*
X212994Y175785D01*
X212512Y175064D01*
X212343Y174213D01*
X212343Y174213D01*
Y172290D01*
X210138D01*
X209234Y172171D01*
X208393Y171822D01*
X207670Y171267D01*
X207115Y170545D01*
X206766Y169703D01*
X206647Y168799D01*
Y163878D01*
X206766Y162975D01*
X207115Y162133D01*
X207670Y161410D01*
X208393Y160855D01*
X209234Y160506D01*
X210138Y160388D01*
X217523D01*
X217823Y159937D01*
X222579Y155181D01*
Y151994D01*
X222079Y151895D01*
X222019Y152041D01*
X221464Y152763D01*
X220741Y153318D01*
X219900Y153667D01*
X218996Y153786D01*
X210138D01*
X209234Y153667D01*
X208393Y153318D01*
X207670Y152763D01*
X207115Y152041D01*
X206766Y151199D01*
X206647Y150295D01*
Y145374D01*
X206766Y144471D01*
X207115Y143629D01*
X207670Y142906D01*
X208393Y142351D01*
X209234Y142002D01*
X210138Y141884D01*
X218996D01*
X219900Y142002D01*
X220741Y142351D01*
X221464Y142906D01*
X222019Y143629D01*
X222079Y143775D01*
X222579Y143675D01*
Y139961D01*
X222579Y139961D01*
X222749Y139110D01*
X223231Y138388D01*
X228025Y133594D01*
X227981Y133537D01*
X227632Y132695D01*
X227514Y131791D01*
Y126870D01*
X227632Y125967D01*
X227981Y125125D01*
X228536Y124402D01*
X229259Y123847D01*
X230100Y123498D01*
X231004Y123380D01*
X239862D01*
X240766Y123498D01*
X241607Y123847D01*
X242330Y124402D01*
X242885Y125125D01*
X243234Y125967D01*
X243353Y126870D01*
Y131791D01*
X243234Y132695D01*
X242885Y133537D01*
X242330Y134259D01*
X241607Y134814D01*
X240766Y135163D01*
X239862Y135282D01*
X232477D01*
X232177Y135732D01*
X232177Y135732D01*
X227027Y140882D01*
Y145238D01*
X227527Y145271D01*
X227632Y144471D01*
X227981Y143629D01*
X228536Y142906D01*
X229259Y142351D01*
X230100Y142002D01*
X231004Y141884D01*
X239862D01*
X240766Y142002D01*
X241607Y142351D01*
X242330Y142906D01*
X242885Y143629D01*
X243234Y144471D01*
X243353Y145374D01*
Y145611D01*
X427032D01*
X521556Y51087D01*
Y42968D01*
X517086D01*
X516874Y42968D01*
X516586Y43349D01*
Y44291D01*
X516586Y44291D01*
X516447Y44989D01*
X516052Y45580D01*
X430422Y131210D01*
X429831Y131605D01*
X429134Y131744D01*
X429134Y131744D01*
X284449D01*
X283751Y131605D01*
X283160Y131210D01*
X283160Y131210D01*
X272333Y120383D01*
X271938Y119792D01*
X271800Y119095D01*
X271800Y119094D01*
Y104331D01*
X271800Y104331D01*
X271938Y103633D01*
X272333Y103042D01*
X275378Y99998D01*
Y99960D01*
X275710Y99158D01*
X276324Y98545D01*
X277125Y98213D01*
X277993D01*
X278795Y98545D01*
X279408Y99158D01*
X279740Y99960D01*
Y100828D01*
X279408Y101629D01*
X278795Y102243D01*
X277993Y102575D01*
X277955D01*
X275445Y105086D01*
Y118340D01*
X285204Y128099D01*
X428379D01*
X512941Y43536D01*
Y-27559D01*
X512941Y-27559D01*
X513080Y-28256D01*
X513475Y-28848D01*
X523318Y-38690D01*
X523318Y-38690D01*
X523909Y-39085D01*
X524259Y-39155D01*
X524355Y-39251D01*
X525157Y-39583D01*
X526024D01*
X526826Y-39251D01*
X527440Y-38637D01*
X527772Y-37835D01*
Y-36968D01*
X527440Y-36166D01*
X526826Y-35552D01*
X526024Y-35221D01*
X525157D01*
X525048Y-35266D01*
X516586Y-26804D01*
Y28777D01*
X516874Y29158D01*
X517086Y29158D01*
X530685D01*
Y42968D01*
X526003D01*
Y52008D01*
X526003Y52008D01*
X525834Y52859D01*
X525352Y53580D01*
X525352Y53580D01*
X429525Y149407D01*
X428804Y149889D01*
X427953Y150058D01*
X427953Y150058D01*
X243353D01*
Y150295D01*
X243234Y151199D01*
X242885Y152041D01*
X242330Y152763D01*
X241607Y153318D01*
X240766Y153667D01*
X239862Y153786D01*
X231004D01*
X230100Y153667D01*
X229259Y153318D01*
X228536Y152763D01*
X227981Y152041D01*
X227632Y151199D01*
X227527Y150398D01*
X227027Y150431D01*
Y156102D01*
X227027Y156102D01*
X226858Y156953D01*
X226376Y157675D01*
X226376Y157675D01*
X221975Y162075D01*
X222019Y162133D01*
X222368Y162975D01*
X222486Y163878D01*
Y168799D01*
X222368Y169703D01*
X222019Y170545D01*
X221464Y171267D01*
X220741Y171822D01*
X219900Y172171D01*
X218996Y172290D01*
X216791D01*
Y173291D01*
X218441Y174942D01*
X292749D01*
X298003Y169687D01*
X298003Y169687D01*
X298725Y169205D01*
X299576Y169036D01*
X299576Y169036D01*
X458134D01*
X466443Y160726D01*
X466164Y160052D01*
X465929Y158870D01*
Y157665D01*
X466164Y156483D01*
X466625Y155370D01*
X467295Y154368D01*
X468147Y153516D01*
X469149Y152846D01*
X470263Y152385D01*
X471445Y152150D01*
X472650D01*
X473832Y152385D01*
X474945Y152846D01*
X475947Y153516D01*
X476799Y154368D01*
X477469Y155370D01*
X477930Y156483D01*
X478165Y157665D01*
Y158870D01*
X477930Y160052D01*
X477469Y161166D01*
X476799Y162168D01*
X475947Y163020D01*
X474945Y163689D01*
X473832Y164151D01*
X472650Y164386D01*
X471445D01*
X470263Y164151D01*
X469589Y163872D01*
X460628Y172832D01*
X459906Y173314D01*
X459055Y173484D01*
X459055Y173484D01*
X300497D01*
X295243Y178738D01*
X294521Y179220D01*
X293670Y179389D01*
D02*
G37*
G36*
X439973Y164386D02*
X438767D01*
X437585Y164151D01*
X436472Y163689D01*
X435470Y163020D01*
X434618Y162168D01*
X433948Y161166D01*
X433487Y160052D01*
X433252Y158870D01*
Y157665D01*
X433487Y156483D01*
X433948Y155370D01*
X434618Y154368D01*
X435470Y153516D01*
X436472Y152846D01*
X437585Y152385D01*
X438767Y152150D01*
X439973D01*
X441155Y152385D01*
X442268Y152846D01*
X443270Y153516D01*
X444122Y154368D01*
X444792Y155370D01*
X445253Y156483D01*
X445488Y157665D01*
Y158870D01*
X445253Y160052D01*
X444792Y161166D01*
X444122Y162168D01*
X443270Y163020D01*
X442268Y163689D01*
X441155Y164151D01*
X439973Y164386D01*
D02*
G37*
G36*
X376193D02*
X374988D01*
X373806Y164151D01*
X372692Y163689D01*
X371691Y163020D01*
X370838Y162168D01*
X370169Y161166D01*
X369708Y160052D01*
X369472Y158870D01*
Y157665D01*
X369708Y156483D01*
X370169Y155370D01*
X370838Y154368D01*
X371691Y153516D01*
X372692Y152846D01*
X373806Y152385D01*
X374988Y152150D01*
X376193D01*
X377375Y152385D01*
X378489Y152846D01*
X379491Y153516D01*
X380343Y154368D01*
X381012Y155370D01*
X381473Y156483D01*
X381709Y157665D01*
Y158870D01*
X381473Y160052D01*
X381012Y161166D01*
X380343Y162168D01*
X379491Y163020D01*
X378489Y163689D01*
X377375Y164151D01*
X376193Y164386D01*
D02*
G37*
G36*
X198130Y153786D02*
X189272D01*
X188368Y153667D01*
X187526Y153318D01*
X186803Y152763D01*
X186249Y152041D01*
X185900Y151199D01*
X185781Y150295D01*
Y145374D01*
X185900Y144471D01*
X186249Y143629D01*
X186803Y142906D01*
X187526Y142351D01*
X188368Y142002D01*
X189272Y141884D01*
X198130D01*
X199033Y142002D01*
X199875Y142351D01*
X200598Y142906D01*
X201153Y143629D01*
X201501Y144471D01*
X201620Y145374D01*
Y150295D01*
X201501Y151199D01*
X201153Y152041D01*
X200598Y152763D01*
X199875Y153318D01*
X199033Y153667D01*
X198130Y153786D01*
D02*
G37*
G36*
Y135282D02*
X194488D01*
Y130118D01*
X201620D01*
Y131791D01*
X201501Y132695D01*
X201153Y133537D01*
X200598Y134259D01*
X199875Y134814D01*
X199033Y135163D01*
X198130Y135282D01*
D02*
G37*
G36*
X192913D02*
X189272D01*
X188368Y135163D01*
X187526Y134814D01*
X186803Y134259D01*
X186249Y133537D01*
X185900Y132695D01*
X185781Y131791D01*
Y130118D01*
X192913D01*
Y135282D01*
D02*
G37*
G36*
X101969Y129594D02*
Y128347D01*
X103216D01*
X103030Y128795D01*
X102417Y129408D01*
X101969Y129594D01*
D02*
G37*
G36*
X100394D02*
X99946Y129408D01*
X99332Y128795D01*
X99146Y128347D01*
X100394D01*
Y129594D01*
D02*
G37*
G36*
X103216Y126772D02*
X101969D01*
Y125524D01*
X102417Y125710D01*
X103030Y126324D01*
X103216Y126772D01*
D02*
G37*
G36*
X100394D02*
X99146D01*
X99332Y126324D01*
X99946Y125710D01*
X100394Y125524D01*
Y126772D01*
D02*
G37*
G36*
X218996Y135282D02*
X210138D01*
X209234Y135163D01*
X208393Y134814D01*
X207670Y134259D01*
X207115Y133537D01*
X206766Y132695D01*
X206647Y131791D01*
Y126870D01*
X206766Y125967D01*
X207115Y125125D01*
X207670Y124402D01*
X208393Y123847D01*
X209234Y123498D01*
X210138Y123380D01*
X218996D01*
X219900Y123498D01*
X220741Y123847D01*
X221464Y124402D01*
X222019Y125125D01*
X222368Y125967D01*
X222486Y126870D01*
Y131791D01*
X222368Y132695D01*
X222019Y133537D01*
X221464Y134259D01*
X220741Y134814D01*
X219900Y135163D01*
X218996Y135282D01*
D02*
G37*
G36*
X201620Y128543D02*
X194488D01*
Y123380D01*
X198130D01*
X199033Y123498D01*
X199875Y123847D01*
X200598Y124402D01*
X201153Y125125D01*
X201501Y125967D01*
X201620Y126870D01*
Y128543D01*
D02*
G37*
G36*
X192913D02*
X185781D01*
Y126870D01*
X185900Y125967D01*
X186249Y125125D01*
X186803Y124402D01*
X187526Y123847D01*
X188368Y123498D01*
X189272Y123380D01*
X192913D01*
Y128543D01*
D02*
G37*
G36*
X59842Y124082D02*
Y122835D01*
X61090D01*
X60904Y123283D01*
X60291Y123896D01*
X59842Y124082D01*
D02*
G37*
G36*
X58268D02*
X57820Y123896D01*
X57206Y123283D01*
X57020Y122835D01*
X58268D01*
Y124082D01*
D02*
G37*
G36*
X61090Y121260D02*
X59842D01*
Y120013D01*
X60291Y120198D01*
X60904Y120812D01*
X61090Y121260D01*
D02*
G37*
G36*
X58268D02*
X57020D01*
X57206Y120812D01*
X57820Y120198D01*
X58268Y120013D01*
Y121260D01*
D02*
G37*
G36*
X51968Y100460D02*
Y99213D01*
X53216D01*
X53030Y99661D01*
X52417Y100274D01*
X51968Y100460D01*
D02*
G37*
G36*
X50394D02*
X49946Y100274D01*
X49332Y99661D01*
X49146Y99213D01*
X50394D01*
Y100460D01*
D02*
G37*
G36*
X35827Y97704D02*
Y96457D01*
X37074D01*
X36888Y96905D01*
X36275Y97518D01*
X35827Y97704D01*
D02*
G37*
G36*
X34252D02*
X33804Y97518D01*
X33190Y96905D01*
X33005Y96457D01*
X34252D01*
Y97704D01*
D02*
G37*
G36*
X53216Y97638D02*
X51968D01*
Y96390D01*
X52417Y96576D01*
X53030Y97190D01*
X53216Y97638D01*
D02*
G37*
G36*
X50394D02*
X49146D01*
X49332Y97190D01*
X49946Y96576D01*
X50394Y96390D01*
Y97638D01*
D02*
G37*
G36*
X37074Y94882D02*
X35827D01*
Y93635D01*
X36275Y93820D01*
X36888Y94434D01*
X37074Y94882D01*
D02*
G37*
G36*
X34252D02*
X33005D01*
X33190Y94434D01*
X33804Y93820D01*
X34252Y93635D01*
Y94882D01*
D02*
G37*
G36*
X297047Y80775D02*
Y79528D01*
X298294D01*
X298109Y79976D01*
X297495Y80589D01*
X297047Y80775D01*
D02*
G37*
G36*
X295472D02*
X295024Y80589D01*
X294411Y79976D01*
X294225Y79528D01*
X295472D01*
Y80775D01*
D02*
G37*
G36*
X96063Y79200D02*
Y77953D01*
X97310D01*
X97125Y78401D01*
X96511Y79014D01*
X96063Y79200D01*
D02*
G37*
G36*
X94488D02*
X94040Y79014D01*
X93427Y78401D01*
X93241Y77953D01*
X94488D01*
Y79200D01*
D02*
G37*
G36*
X71653D02*
Y77953D01*
X72901D01*
X72715Y78401D01*
X72102Y79014D01*
X71653Y79200D01*
D02*
G37*
G36*
X70079D02*
X69631Y79014D01*
X69017Y78401D01*
X68831Y77953D01*
X70079D01*
Y79200D01*
D02*
G37*
G36*
X298294Y77953D02*
X297047D01*
Y76705D01*
X297495Y76891D01*
X298109Y77505D01*
X298294Y77953D01*
D02*
G37*
G36*
X295472D02*
X294225D01*
X294411Y77505D01*
X295024Y76891D01*
X295472Y76705D01*
Y77953D01*
D02*
G37*
G36*
X97310Y76378D02*
X96063D01*
Y75131D01*
X96511Y75316D01*
X97125Y75930D01*
X97310Y76378D01*
D02*
G37*
G36*
X94488D02*
X93241D01*
X93427Y75930D01*
X94040Y75316D01*
X94488Y75131D01*
Y76378D01*
D02*
G37*
G36*
X72901D02*
X71653D01*
Y75131D01*
X72102Y75316D01*
X72715Y75930D01*
X72901Y76378D01*
D02*
G37*
G36*
X70079D02*
X68831D01*
X69017Y75930D01*
X69631Y75316D01*
X70079Y75131D01*
Y76378D01*
D02*
G37*
G36*
X387437Y89937D02*
X377563D01*
Y80063D01*
X380184D01*
X380248Y79978D01*
X380116Y79324D01*
X379469Y78951D01*
X378549Y78031D01*
X377899Y76906D01*
X377563Y75650D01*
Y74350D01*
X377899Y73094D01*
X378549Y71969D01*
X379469Y71049D01*
X380594Y70399D01*
X381850Y70063D01*
X383150D01*
X384406Y70399D01*
X385531Y71049D01*
X386451Y71969D01*
X387101Y73094D01*
X387437Y74350D01*
Y75650D01*
X387101Y76906D01*
X386451Y78031D01*
X385531Y78951D01*
X384884Y79324D01*
X384752Y79978D01*
X384816Y80063D01*
X387437D01*
Y89937D01*
D02*
G37*
G36*
X374937D02*
X365063D01*
Y80063D01*
X367684D01*
X367748Y79978D01*
X367616Y79324D01*
X366969Y78951D01*
X366049Y78031D01*
X365399Y76906D01*
X365063Y75650D01*
Y74350D01*
X365399Y73094D01*
X366049Y71969D01*
X366969Y71049D01*
X368094Y70399D01*
X369350Y70063D01*
X370650D01*
X371906Y70399D01*
X373031Y71049D01*
X373951Y71969D01*
X374601Y73094D01*
X374937Y74350D01*
Y75650D01*
X374601Y76906D01*
X373951Y78031D01*
X373031Y78951D01*
X372384Y79324D01*
X372252Y79978D01*
X372316Y80063D01*
X374937D01*
Y89937D01*
D02*
G37*
G36*
X547437Y87437D02*
X537563D01*
Y77563D01*
X540184D01*
X540248Y77478D01*
X540116Y76824D01*
X539469Y76451D01*
X538549Y75531D01*
X537899Y74406D01*
X537563Y73150D01*
Y71850D01*
X537899Y70594D01*
X538549Y69469D01*
X539469Y68549D01*
X540594Y67899D01*
X541850Y67563D01*
X543150D01*
X544406Y67899D01*
X545531Y68549D01*
X546451Y69469D01*
X547101Y70594D01*
X547437Y71850D01*
Y73150D01*
X547101Y74406D01*
X546451Y75531D01*
X545531Y76451D01*
X544884Y76824D01*
X544752Y77478D01*
X544816Y77563D01*
X547437D01*
Y87437D01*
D02*
G37*
G36*
X534937D02*
X525063D01*
Y77563D01*
X527684D01*
X527748Y77478D01*
X527616Y76824D01*
X526969Y76451D01*
X526049Y75531D01*
X525399Y74406D01*
X525063Y73150D01*
Y71850D01*
X525399Y70594D01*
X526049Y69469D01*
X526969Y68549D01*
X528094Y67899D01*
X529350Y67563D01*
X530650D01*
X531906Y67899D01*
X533031Y68549D01*
X533951Y69469D01*
X534601Y70594D01*
X534937Y71850D01*
Y73150D01*
X534601Y74406D01*
X533951Y75531D01*
X533031Y76451D01*
X532384Y76824D01*
X532252Y77478D01*
X532316Y77563D01*
X534937D01*
Y87437D01*
D02*
G37*
G36*
X329528Y57153D02*
Y55905D01*
X330775D01*
X330589Y56354D01*
X329976Y56967D01*
X329528Y57153D01*
D02*
G37*
G36*
X327953D02*
X327505Y56967D01*
X326891Y56354D01*
X326706Y55905D01*
X327953D01*
Y57153D01*
D02*
G37*
G36*
X330775Y54331D02*
X329528D01*
Y53083D01*
X329976Y53269D01*
X330589Y53883D01*
X330775Y54331D01*
D02*
G37*
G36*
X327953D02*
X326706D01*
X326891Y53883D01*
X327505Y53269D01*
X327953Y53083D01*
Y54331D01*
D02*
G37*
G36*
X408661Y116397D02*
X408661Y116397D01*
X290354D01*
X290140Y116354D01*
X289920D01*
X289718Y116270D01*
X289503Y116228D01*
X289321Y116106D01*
X289119Y116022D01*
X288964Y115867D01*
X288782Y115746D01*
X288660Y115564D01*
X288505Y115409D01*
X288422Y115206D01*
X288300Y115024D01*
X288257Y114809D01*
X288173Y114607D01*
Y114388D01*
X288130Y114173D01*
X288173Y113958D01*
Y113739D01*
X288257Y113537D01*
X288300Y113322D01*
X288422Y113140D01*
X288505Y112938D01*
X288660Y112783D01*
X288782Y112601D01*
X288964Y112479D01*
X289119Y112324D01*
X289321Y112240D01*
X289503Y112119D01*
X289718Y112076D01*
X289920Y111992D01*
X290140D01*
X290354Y111949D01*
X407740D01*
X480565Y39124D01*
X480131Y38077D01*
X479866Y36743D01*
Y35383D01*
X480131Y34049D01*
X480652Y32792D01*
X481408Y31661D01*
X482370Y30699D01*
X483501Y29943D01*
X484757Y29423D01*
X486092Y29158D01*
X487452D01*
X488786Y29423D01*
X490043Y29943D01*
X491174Y30699D01*
X492135Y31661D01*
X492891Y32792D01*
X493412Y34049D01*
X493677Y35383D01*
Y36743D01*
X493412Y38077D01*
X492891Y39334D01*
X492135Y40465D01*
X491174Y41427D01*
X490043Y42183D01*
X488786Y42703D01*
X487452Y42968D01*
X486092D01*
X484757Y42703D01*
X483710Y42269D01*
X410234Y115746D01*
X409512Y116228D01*
X408661Y116397D01*
D02*
G37*
G36*
X409499Y42968D02*
X408139D01*
X406805Y42703D01*
X405548Y42183D01*
X404417Y41427D01*
X403455Y40465D01*
X402699Y39334D01*
X402179Y38077D01*
X401913Y36743D01*
Y35383D01*
X402179Y34049D01*
X402699Y32792D01*
X403455Y31661D01*
X404417Y30699D01*
X405548Y29943D01*
X406805Y29423D01*
X408139Y29158D01*
X409499D01*
X410833Y29423D01*
X412090Y29943D01*
X413221Y30699D01*
X414183Y31661D01*
X414938Y32792D01*
X415459Y34049D01*
X415724Y35383D01*
Y36743D01*
X415459Y38077D01*
X414938Y39334D01*
X414183Y40465D01*
X413221Y41427D01*
X412090Y42183D01*
X410833Y42703D01*
X409499Y42968D01*
D02*
G37*
G36*
X390995D02*
X389635D01*
X388301Y42703D01*
X387044Y42183D01*
X385913Y41427D01*
X384951Y40465D01*
X384195Y39334D01*
X383675Y38077D01*
X383410Y36743D01*
Y35383D01*
X383675Y34049D01*
X384195Y32792D01*
X384951Y31661D01*
X385913Y30699D01*
X387044Y29943D01*
X388301Y29423D01*
X389635Y29158D01*
X390995D01*
X392329Y29423D01*
X393586Y29943D01*
X394717Y30699D01*
X395679Y31661D01*
X396434Y32792D01*
X396955Y34049D01*
X397220Y35383D01*
Y36743D01*
X396955Y38077D01*
X396434Y39334D01*
X395679Y40465D01*
X394717Y41427D01*
X393586Y42183D01*
X392329Y42703D01*
X390995Y42968D01*
D02*
G37*
G36*
X230449Y35449D02*
X216638D01*
Y23606D01*
X230449D01*
Y35449D01*
D02*
G37*
G36*
X193047D02*
X179236D01*
Y23606D01*
X193047D01*
Y35449D01*
D02*
G37*
G36*
X165449D02*
X151638D01*
Y23606D01*
X165449D01*
Y35449D01*
D02*
G37*
G36*
X128047D02*
X114236D01*
Y23606D01*
X128047D01*
Y35449D01*
D02*
G37*
G36*
X100449D02*
X86638D01*
Y23606D01*
X100449D01*
Y35449D01*
D02*
G37*
G36*
X63047D02*
X49236D01*
Y23606D01*
X63047D01*
Y35449D01*
D02*
G37*
G36*
X35449D02*
X21638D01*
Y23606D01*
X35449D01*
Y35449D01*
D02*
G37*
G36*
X-1953D02*
X-15764D01*
Y23606D01*
X-1953D01*
Y35449D01*
D02*
G37*
G36*
X354184Y31905D02*
X352824D01*
X351490Y31640D01*
X350233Y31120D01*
X349102Y30364D01*
X348140Y29402D01*
X347384Y28271D01*
X346864Y27014D01*
X346598Y25680D01*
Y24320D01*
X346864Y22986D01*
X347384Y21729D01*
X348140Y20598D01*
X349102Y19636D01*
X350233Y18880D01*
X351490Y18360D01*
X352824Y18094D01*
X354184D01*
X355518Y18360D01*
X356775Y18880D01*
X357906Y19636D01*
X358868Y20598D01*
X359624Y21729D01*
X360144Y22986D01*
X360409Y24320D01*
Y25680D01*
X360144Y27014D01*
X359624Y28271D01*
X358868Y29402D01*
X357906Y30364D01*
X356775Y31120D01*
X355518Y31640D01*
X354184Y31905D01*
D02*
G37*
G36*
X335680D02*
X334320D01*
X332986Y31640D01*
X331729Y31120D01*
X330598Y30364D01*
X329636Y29402D01*
X328880Y28271D01*
X328360Y27014D01*
X328095Y25680D01*
Y24320D01*
X328360Y22986D01*
X328880Y21729D01*
X329636Y20598D01*
X330598Y19636D01*
X331729Y18880D01*
X332986Y18360D01*
X334320Y18094D01*
X335680D01*
X337014Y18360D01*
X338271Y18880D01*
X339402Y19636D01*
X340364Y20598D01*
X341120Y21729D01*
X341640Y22986D01*
X341905Y24320D01*
Y25680D01*
X341640Y27014D01*
X341120Y28271D01*
X340364Y29402D01*
X339402Y30364D01*
X338271Y31120D01*
X337014Y31640D01*
X335680Y31905D01*
D02*
G37*
G36*
X323402D02*
X309591D01*
Y18094D01*
X323402D01*
Y31905D01*
D02*
G37*
G36*
X289184D02*
X287824D01*
X286490Y31640D01*
X285233Y31120D01*
X284102Y30364D01*
X283140Y29402D01*
X282384Y28271D01*
X281864Y27014D01*
X281598Y25680D01*
Y24320D01*
X281864Y22986D01*
X282384Y21729D01*
X283140Y20598D01*
X284102Y19636D01*
X285233Y18880D01*
X286490Y18360D01*
X287824Y18094D01*
X289184D01*
X290518Y18360D01*
X291775Y18880D01*
X292906Y19636D01*
X293868Y20598D01*
X294623Y21729D01*
X295144Y22986D01*
X295409Y24320D01*
Y25680D01*
X295144Y27014D01*
X294623Y28271D01*
X293868Y29402D01*
X292906Y30364D01*
X291775Y31120D01*
X290518Y31640D01*
X289184Y31905D01*
D02*
G37*
G36*
X270680D02*
X269320D01*
X267986Y31640D01*
X266729Y31120D01*
X265598Y30364D01*
X264636Y29402D01*
X263880Y28271D01*
X263360Y27014D01*
X263094Y25680D01*
Y24320D01*
X263360Y22986D01*
X263880Y21729D01*
X264636Y20598D01*
X265598Y19636D01*
X266729Y18880D01*
X267986Y18360D01*
X269320Y18094D01*
X270680D01*
X272014Y18360D01*
X273271Y18880D01*
X274402Y19636D01*
X275364Y20598D01*
X276120Y21729D01*
X276640Y22986D01*
X276905Y24320D01*
Y25680D01*
X276640Y27014D01*
X276120Y28271D01*
X275364Y29402D01*
X274402Y30364D01*
X273271Y31120D01*
X272014Y31640D01*
X270680Y31905D01*
D02*
G37*
G36*
X258402D02*
X244590D01*
Y18094D01*
X258402D01*
Y31905D01*
D02*
G37*
G36*
X336064Y96669D02*
X335196D01*
X334394Y96337D01*
X333781Y95724D01*
X333449Y94922D01*
Y94054D01*
X333781Y93253D01*
X334394Y92639D01*
X335196Y92307D01*
X335234D01*
X358414Y69127D01*
Y43307D01*
X358414Y43307D01*
X358553Y42610D01*
X358948Y42018D01*
X398318Y2648D01*
X398318Y2648D01*
X398909Y2253D01*
X399606Y2115D01*
X399606Y2115D01*
X419998D01*
X420024Y2088D01*
X420826Y1756D01*
X421694D01*
X422495Y2088D01*
X423109Y2702D01*
X423441Y3503D01*
Y4371D01*
X423109Y5173D01*
X422495Y5786D01*
X421694Y6118D01*
X420826D01*
X420024Y5786D01*
X419998Y5759D01*
X400361D01*
X362059Y44062D01*
Y69882D01*
X361920Y70579D01*
X361525Y71171D01*
X361525Y71171D01*
X337811Y94884D01*
Y94922D01*
X337479Y95724D01*
X336865Y96337D01*
X336064Y96669D01*
D02*
G37*
G36*
X215335Y4937D02*
X214035D01*
X212779Y4601D01*
X211654Y3951D01*
X210735Y3031D01*
X210085Y1906D01*
X210014Y1642D01*
X209514D01*
X209443Y1906D01*
X208793Y3031D01*
X207874Y3951D01*
X206748Y4601D01*
X205492Y4937D01*
X204193D01*
X202937Y4601D01*
X201811Y3951D01*
X200892Y3031D01*
X200242Y1906D01*
X200171Y1642D01*
X199671D01*
X199601Y1906D01*
X198951Y3031D01*
X198031Y3951D01*
X196906Y4601D01*
X195650Y4937D01*
X194350D01*
X193094Y4601D01*
X191969Y3951D01*
X191049Y3031D01*
X190399Y1906D01*
X190063Y650D01*
Y-650D01*
X190399Y-1906D01*
X191049Y-3031D01*
X191969Y-3951D01*
X193094Y-4601D01*
X194350Y-4937D01*
X195650D01*
X196906Y-4601D01*
X198031Y-3951D01*
X198951Y-3031D01*
X199601Y-1906D01*
X199671Y-1642D01*
X200171D01*
X200242Y-1906D01*
X200892Y-3031D01*
X201811Y-3951D01*
X202937Y-4601D01*
X204193Y-4937D01*
X205492D01*
X206748Y-4601D01*
X207874Y-3951D01*
X208793Y-3031D01*
X209443Y-1906D01*
X209514Y-1642D01*
X210014D01*
X210085Y-1906D01*
X210735Y-3031D01*
X211654Y-3951D01*
X212779Y-4601D01*
X214035Y-4937D01*
X215335D01*
X216591Y-4601D01*
X217716Y-3951D01*
X218636Y-3031D01*
X219286Y-1906D01*
X219622Y-650D01*
Y650D01*
X219286Y1906D01*
X218636Y3031D01*
X217716Y3951D01*
X216591Y4601D01*
X215335Y4937D01*
D02*
G37*
G36*
X150335D02*
X149035D01*
X147779Y4601D01*
X146654Y3951D01*
X145734Y3031D01*
X145085Y1906D01*
X145014Y1642D01*
X144514D01*
X144443Y1906D01*
X143793Y3031D01*
X142874Y3951D01*
X141748Y4601D01*
X140492Y4937D01*
X139193D01*
X137937Y4601D01*
X136811Y3951D01*
X135892Y3031D01*
X135242Y1906D01*
X135171Y1642D01*
X134671D01*
X134601Y1906D01*
X133951Y3031D01*
X133031Y3951D01*
X131906Y4601D01*
X130650Y4937D01*
X129350D01*
X128094Y4601D01*
X126969Y3951D01*
X126049Y3031D01*
X125399Y1906D01*
X125063Y650D01*
Y-650D01*
X125399Y-1906D01*
X126049Y-3031D01*
X126969Y-3951D01*
X128094Y-4601D01*
X129350Y-4937D01*
X130650D01*
X131906Y-4601D01*
X133031Y-3951D01*
X133951Y-3031D01*
X134601Y-1906D01*
X134671Y-1642D01*
X135171D01*
X135242Y-1906D01*
X135892Y-3031D01*
X136811Y-3951D01*
X137937Y-4601D01*
X139193Y-4937D01*
X140492D01*
X141748Y-4601D01*
X142874Y-3951D01*
X143793Y-3031D01*
X144443Y-1906D01*
X144514Y-1642D01*
X145014D01*
X145085Y-1906D01*
X145734Y-3031D01*
X146654Y-3951D01*
X147779Y-4601D01*
X149035Y-4937D01*
X150335D01*
X151591Y-4601D01*
X152716Y-3951D01*
X153636Y-3031D01*
X154286Y-1906D01*
X154622Y-650D01*
Y650D01*
X154286Y1906D01*
X153636Y3031D01*
X152716Y3951D01*
X151591Y4601D01*
X150335Y4937D01*
D02*
G37*
G36*
X85335D02*
X84035D01*
X82779Y4601D01*
X81654Y3951D01*
X80734Y3031D01*
X80085Y1906D01*
X80014Y1642D01*
X79514D01*
X79443Y1906D01*
X78793Y3031D01*
X77874Y3951D01*
X76748Y4601D01*
X75493Y4937D01*
X74193D01*
X72937Y4601D01*
X71811Y3951D01*
X70892Y3031D01*
X70242Y1906D01*
X70171Y1642D01*
X69671D01*
X69601Y1906D01*
X68951Y3031D01*
X68031Y3951D01*
X66906Y4601D01*
X65650Y4937D01*
X64350D01*
X63094Y4601D01*
X61969Y3951D01*
X61049Y3031D01*
X60399Y1906D01*
X60063Y650D01*
Y-650D01*
X60399Y-1906D01*
X61049Y-3031D01*
X61969Y-3951D01*
X63094Y-4601D01*
X64350Y-4937D01*
X65650D01*
X66906Y-4601D01*
X68031Y-3951D01*
X68951Y-3031D01*
X69601Y-1906D01*
X69671Y-1642D01*
X70171D01*
X70242Y-1906D01*
X70892Y-3031D01*
X71811Y-3951D01*
X72937Y-4601D01*
X74193Y-4937D01*
X75493D01*
X76748Y-4601D01*
X77874Y-3951D01*
X78793Y-3031D01*
X79443Y-1906D01*
X79514Y-1642D01*
X80014D01*
X80085Y-1906D01*
X80734Y-3031D01*
X81654Y-3951D01*
X82779Y-4601D01*
X84035Y-4937D01*
X85335D01*
X86591Y-4601D01*
X87716Y-3951D01*
X88636Y-3031D01*
X89286Y-1906D01*
X89622Y-650D01*
Y650D01*
X89286Y1906D01*
X88636Y3031D01*
X87716Y3951D01*
X86591Y4601D01*
X85335Y4937D01*
D02*
G37*
G36*
X20335D02*
X19035D01*
X17779Y4601D01*
X16654Y3951D01*
X15734Y3031D01*
X15085Y1906D01*
X15014Y1642D01*
X14514D01*
X14443Y1906D01*
X13793Y3031D01*
X12874Y3951D01*
X11748Y4601D01*
X10492Y4937D01*
X9193D01*
X7937Y4601D01*
X6811Y3951D01*
X5892Y3031D01*
X5242Y1906D01*
X5171Y1642D01*
X4671D01*
X4601Y1906D01*
X3951Y3031D01*
X3031Y3951D01*
X1906Y4601D01*
X650Y4937D01*
X-650D01*
X-1906Y4601D01*
X-3031Y3951D01*
X-3951Y3031D01*
X-4601Y1906D01*
X-4937Y650D01*
Y-650D01*
X-4601Y-1906D01*
X-3951Y-3031D01*
X-3031Y-3951D01*
X-1906Y-4601D01*
X-650Y-4937D01*
X650D01*
X1906Y-4601D01*
X3031Y-3951D01*
X3951Y-3031D01*
X4601Y-1906D01*
X4671Y-1642D01*
X5171D01*
X5242Y-1906D01*
X5892Y-3031D01*
X6811Y-3951D01*
X7937Y-4601D01*
X9193Y-4937D01*
X10492D01*
X11748Y-4601D01*
X12874Y-3951D01*
X13793Y-3031D01*
X14443Y-1906D01*
X14514Y-1642D01*
X15014D01*
X15085Y-1906D01*
X15734Y-3031D01*
X16654Y-3951D01*
X17779Y-4601D01*
X19035Y-4937D01*
X20335D01*
X21591Y-4601D01*
X22716Y-3951D01*
X23636Y-3031D01*
X24286Y-1906D01*
X24622Y-650D01*
Y650D01*
X24286Y1906D01*
X23636Y3031D01*
X22716Y3951D01*
X21591Y4601D01*
X20335Y4937D01*
D02*
G37*
G36*
X349937Y-15063D02*
X340063D01*
Y-17684D01*
X339978Y-17748D01*
X339324Y-17616D01*
X338951Y-16969D01*
X338031Y-16049D01*
X336906Y-15399D01*
X335650Y-15063D01*
X334350D01*
X333094Y-15399D01*
X331969Y-16049D01*
X331049Y-16969D01*
X330399Y-18094D01*
X330259Y-18619D01*
X329741D01*
X329601Y-18094D01*
X328951Y-16969D01*
X328031Y-16049D01*
X326906Y-15399D01*
X325650Y-15063D01*
X324350D01*
X323094Y-15399D01*
X321969Y-16049D01*
X321049Y-16969D01*
X320399Y-18094D01*
X320063Y-19350D01*
Y-20650D01*
X320399Y-21906D01*
X321049Y-23031D01*
X321969Y-23951D01*
X323094Y-24601D01*
X324350Y-24937D01*
X325650D01*
X326906Y-24601D01*
X328031Y-23951D01*
X328951Y-23031D01*
X329601Y-21906D01*
X329741Y-21381D01*
X330259D01*
X330399Y-21906D01*
X331049Y-23031D01*
X331969Y-23951D01*
X333094Y-24601D01*
X334350Y-24937D01*
X335650D01*
X336906Y-24601D01*
X338031Y-23951D01*
X338951Y-23031D01*
X339324Y-22384D01*
X339978Y-22252D01*
X340063Y-22316D01*
Y-24937D01*
X349937D01*
Y-15063D01*
D02*
G37*
G36*
X284937D02*
X275063D01*
Y-17684D01*
X274978Y-17748D01*
X274324Y-17616D01*
X273951Y-16969D01*
X273031Y-16049D01*
X271906Y-15399D01*
X270650Y-15063D01*
X269350D01*
X268094Y-15399D01*
X266969Y-16049D01*
X266049Y-16969D01*
X265399Y-18094D01*
X265259Y-18619D01*
X264741D01*
X264601Y-18094D01*
X263951Y-16969D01*
X263031Y-16049D01*
X261906Y-15399D01*
X260650Y-15063D01*
X259350D01*
X258094Y-15399D01*
X256969Y-16049D01*
X256049Y-16969D01*
X255399Y-18094D01*
X255063Y-19350D01*
Y-20650D01*
X255399Y-21906D01*
X256049Y-23031D01*
X256969Y-23951D01*
X258094Y-24601D01*
X259350Y-24937D01*
X260650D01*
X261906Y-24601D01*
X263031Y-23951D01*
X263951Y-23031D01*
X264601Y-21906D01*
X264741Y-21381D01*
X265259D01*
X265399Y-21906D01*
X266049Y-23031D01*
X266969Y-23951D01*
X268094Y-24601D01*
X269350Y-24937D01*
X270650D01*
X271906Y-24601D01*
X273031Y-23951D01*
X273951Y-23031D01*
X274324Y-22384D01*
X274978Y-22252D01*
X275063Y-22316D01*
Y-24937D01*
X284937D01*
Y-15063D01*
D02*
G37*
G36*
X215650D02*
X214350D01*
X213094Y-15399D01*
X211969Y-16049D01*
X211049Y-16969D01*
X210399Y-18094D01*
X210259Y-18619D01*
X209741D01*
X209601Y-18094D01*
X208951Y-16969D01*
X208031Y-16049D01*
X206906Y-15399D01*
X205650Y-15063D01*
X204350D01*
X203094Y-15399D01*
X201969Y-16049D01*
X201049Y-16969D01*
X200676Y-17616D01*
X200022Y-17748D01*
X199937Y-17684D01*
Y-15063D01*
X190063D01*
Y-24937D01*
X199937D01*
Y-22316D01*
X200022Y-22252D01*
X200676Y-22384D01*
X201049Y-23031D01*
X201969Y-23951D01*
X203094Y-24601D01*
X204350Y-24937D01*
X205650D01*
X206906Y-24601D01*
X208031Y-23951D01*
X208951Y-23031D01*
X209601Y-21906D01*
X209741Y-21381D01*
X210259D01*
X210399Y-21906D01*
X211049Y-23031D01*
X211969Y-23951D01*
X213094Y-24601D01*
X214350Y-24937D01*
X215650D01*
X216906Y-24601D01*
X218031Y-23951D01*
X218951Y-23031D01*
X219601Y-21906D01*
X219937Y-20650D01*
Y-19350D01*
X219601Y-18094D01*
X218951Y-16969D01*
X218031Y-16049D01*
X216906Y-15399D01*
X215650Y-15063D01*
D02*
G37*
G36*
X20650D02*
X19350D01*
X18094Y-15399D01*
X16969Y-16049D01*
X16049Y-16969D01*
X15399Y-18094D01*
X15259Y-18619D01*
X14741D01*
X14601Y-18094D01*
X13951Y-16969D01*
X13031Y-16049D01*
X11906Y-15399D01*
X10650Y-15063D01*
X9350D01*
X8094Y-15399D01*
X6969Y-16049D01*
X6049Y-16969D01*
X5676Y-17616D01*
X5022Y-17748D01*
X4937Y-17684D01*
Y-15063D01*
X-4937D01*
Y-24937D01*
X4937D01*
Y-22316D01*
X5022Y-22252D01*
X5676Y-22384D01*
X6049Y-23031D01*
X6969Y-23951D01*
X8094Y-24601D01*
X9350Y-24937D01*
X10650D01*
X11906Y-24601D01*
X13031Y-23951D01*
X13951Y-23031D01*
X14601Y-21906D01*
X14741Y-21381D01*
X15259D01*
X15399Y-21906D01*
X16049Y-23031D01*
X16969Y-23951D01*
X18094Y-24601D01*
X19350Y-24937D01*
X20650D01*
X21906Y-24601D01*
X23031Y-23951D01*
X23951Y-23031D01*
X24601Y-21906D01*
X24937Y-20650D01*
Y-19350D01*
X24601Y-18094D01*
X23951Y-16969D01*
X23031Y-16049D01*
X21906Y-15399D01*
X20650Y-15063D01*
D02*
G37*
G36*
X150650D02*
X149350D01*
X148094Y-15399D01*
X146969Y-16049D01*
X146049Y-16969D01*
X145399Y-18094D01*
X145259Y-18619D01*
X144741D01*
X144601Y-18094D01*
X143951Y-16969D01*
X143031Y-16049D01*
X141906Y-15399D01*
X140650Y-15063D01*
X139350D01*
X138094Y-15399D01*
X136969Y-16049D01*
X136049Y-16969D01*
X135676Y-17616D01*
X135022Y-17748D01*
X134937Y-17684D01*
Y-15063D01*
X125063D01*
Y-24937D01*
X134937D01*
Y-22316D01*
X135022Y-22252D01*
X135676Y-22384D01*
X136049Y-23031D01*
X136969Y-23951D01*
X138094Y-24601D01*
X139350Y-24937D01*
X140650D01*
X141906Y-24601D01*
X143031Y-23951D01*
X143951Y-23031D01*
X144601Y-21906D01*
X144741Y-21381D01*
X145259D01*
X145399Y-21906D01*
X146049Y-23031D01*
X146969Y-23951D01*
X148094Y-24601D01*
X149350Y-24937D01*
X150650D01*
X151906Y-24601D01*
X153031Y-23951D01*
X153951Y-23031D01*
X154601Y-21906D01*
X154937Y-20650D01*
Y-19350D01*
X154601Y-18094D01*
X153951Y-16969D01*
X153031Y-16049D01*
X151906Y-15399D01*
X150650Y-15063D01*
D02*
G37*
G36*
X85650D02*
X84350D01*
X83094Y-15399D01*
X81969Y-16049D01*
X81049Y-16969D01*
X80399Y-18094D01*
X80259Y-18619D01*
X79741D01*
X79601Y-18094D01*
X78951Y-16969D01*
X78031Y-16049D01*
X76906Y-15399D01*
X75650Y-15063D01*
X74350D01*
X73094Y-15399D01*
X71969Y-16049D01*
X71049Y-16969D01*
X70676Y-17616D01*
X70022Y-17748D01*
X69937Y-17684D01*
Y-15063D01*
X60063D01*
Y-24937D01*
X69937D01*
Y-22316D01*
X70022Y-22252D01*
X70676Y-22384D01*
X71049Y-23031D01*
X71969Y-23951D01*
X73094Y-24601D01*
X74350Y-24937D01*
X75650D01*
X76906Y-24601D01*
X78031Y-23951D01*
X78951Y-23031D01*
X79601Y-21906D01*
X79741Y-21381D01*
X80259D01*
X80399Y-21906D01*
X81049Y-23031D01*
X81969Y-23951D01*
X83094Y-24601D01*
X84350Y-24937D01*
X85650D01*
X86906Y-24601D01*
X88031Y-23951D01*
X88951Y-23031D01*
X89601Y-21906D01*
X89937Y-20650D01*
Y-19350D01*
X89601Y-18094D01*
X88951Y-16969D01*
X88031Y-16049D01*
X86906Y-15399D01*
X85650Y-15063D01*
D02*
G37*
G36*
X505956Y42968D02*
X504596D01*
X503261Y42703D01*
X502005Y42183D01*
X500874Y41427D01*
X499912Y40465D01*
X499156Y39334D01*
X498635Y38077D01*
X498370Y36743D01*
Y35383D01*
X498635Y34049D01*
X499069Y33002D01*
X463427Y-2640D01*
X462945Y-3362D01*
X462776Y-4213D01*
X462776Y-4213D01*
Y-53083D01*
X461969Y-53549D01*
X461049Y-54469D01*
X460676Y-55116D01*
X460022Y-55248D01*
X459937Y-55184D01*
Y-52563D01*
X457224D01*
Y8386D01*
X457224Y8386D01*
X457055Y9237D01*
X456572Y9958D01*
X456572Y9958D01*
X434228Y32302D01*
Y42968D01*
X420417D01*
Y29158D01*
X431083D01*
X452776Y7465D01*
Y-52563D01*
X450063D01*
Y-55276D01*
X393067D01*
X383462Y-45672D01*
X382741Y-45189D01*
X381890Y-45020D01*
X381890Y-45020D01*
X242756D01*
X242756Y-45020D01*
X241905Y-45189D01*
X241183Y-45672D01*
X241183Y-45672D01*
X234292Y-52563D01*
X230708D01*
X223817Y-45672D01*
X223095Y-45189D01*
X222244Y-45020D01*
X222244Y-45020D01*
X47756D01*
X47756Y-45020D01*
X46905Y-45189D01*
X46183Y-45672D01*
X46183Y-45672D01*
X39292Y-52563D01*
X32563D01*
Y-62437D01*
X42437D01*
Y-59816D01*
X42522Y-59752D01*
X43176Y-59884D01*
X43549Y-60531D01*
X44469Y-61451D01*
X45594Y-62101D01*
X46850Y-62437D01*
X48150D01*
X49051Y-62196D01*
X55357Y-68502D01*
X55357Y-68502D01*
X56078Y-68984D01*
X56929Y-69153D01*
X175741D01*
X175876Y-69405D01*
X175918Y-69653D01*
X175499Y-70073D01*
X175160Y-70660D01*
X175104Y-70866D01*
X180014D01*
X179958Y-70660D01*
X179619Y-70073D01*
X179200Y-69653D01*
X179242Y-69405D01*
X179377Y-69153D01*
X234029D01*
X234029Y-69153D01*
X234880Y-68984D01*
X235602Y-68502D01*
X241705Y-62398D01*
X241850Y-62437D01*
X243150D01*
X244051Y-62196D01*
X250357Y-68502D01*
X250357Y-68502D01*
X251078Y-68984D01*
X251929Y-69153D01*
X456529D01*
X456529Y-69153D01*
X457380Y-68984D01*
X458102Y-68502D01*
X464205Y-62398D01*
X464350Y-62437D01*
X465650D01*
X466906Y-62101D01*
X468031Y-61451D01*
X468951Y-60531D01*
X469601Y-59406D01*
X469937Y-58150D01*
Y-56850D01*
X469601Y-55594D01*
X468951Y-54469D01*
X468031Y-53549D01*
X467224Y-53083D01*
Y-5134D01*
X502214Y29857D01*
X503261Y29423D01*
X504596Y29158D01*
X505956D01*
X507290Y29423D01*
X508547Y29943D01*
X509678Y30699D01*
X510639Y31661D01*
X511395Y32792D01*
X511916Y34049D01*
X512181Y35383D01*
Y36743D01*
X511916Y38077D01*
X511395Y39334D01*
X510639Y40465D01*
X509678Y41427D01*
X508547Y42183D01*
X507290Y42703D01*
X505956Y42968D01*
D02*
G37*
G36*
X308268Y-69986D02*
Y-71653D01*
X309935D01*
X309880Y-71447D01*
X309541Y-70860D01*
X309061Y-70381D01*
X308474Y-70042D01*
X308268Y-69986D01*
D02*
G37*
G36*
X306693D02*
X306487Y-70042D01*
X305899Y-70381D01*
X305420Y-70860D01*
X305081Y-71447D01*
X305026Y-71653D01*
X306693D01*
Y-69986D01*
D02*
G37*
G36*
X180014Y-72441D02*
X178347D01*
Y-74108D01*
X178553Y-74053D01*
X179140Y-73714D01*
X179619Y-73234D01*
X179958Y-72647D01*
X180014Y-72441D01*
D02*
G37*
G36*
X176772D02*
X175104D01*
X175160Y-72647D01*
X175499Y-73234D01*
X175978Y-73714D01*
X176565Y-74053D01*
X176772Y-74108D01*
Y-72441D01*
D02*
G37*
G36*
X309935Y-73228D02*
X308268D01*
Y-74896D01*
X308474Y-74840D01*
X309061Y-74501D01*
X309541Y-74022D01*
X309880Y-73435D01*
X309935Y-73228D01*
D02*
G37*
G36*
X306693D02*
X305026D01*
X305081Y-73435D01*
X305420Y-74022D01*
X305899Y-74501D01*
X306487Y-74840D01*
X306693Y-74896D01*
Y-73228D01*
D02*
G37*
%LPD*%
G36*
X390573Y-59073D02*
X390573Y-59073D01*
X391295Y-59554D01*
X392146Y-59724D01*
X392146Y-59724D01*
X450063D01*
Y-62437D01*
X457223D01*
X457415Y-62899D01*
X455608Y-64705D01*
X252850D01*
X247196Y-59051D01*
X247437Y-58150D01*
Y-56850D01*
X247101Y-55594D01*
X246451Y-54469D01*
X245531Y-53549D01*
X244406Y-52899D01*
X243150Y-52563D01*
X241850D01*
X241084Y-52768D01*
X240825Y-52320D01*
X243677Y-49468D01*
X380969D01*
X390573Y-59073D01*
D02*
G37*
G36*
X227563Y-55708D02*
Y-62437D01*
X234723D01*
X234915Y-62899D01*
X233108Y-64705D01*
X57850D01*
X52196Y-59051D01*
X52437Y-58150D01*
Y-56850D01*
X52101Y-55594D01*
X51451Y-54469D01*
X50531Y-53549D01*
X49406Y-52899D01*
X48150Y-52563D01*
X46850D01*
X46084Y-52768D01*
X45825Y-52320D01*
X48677Y-49468D01*
X221323D01*
X227563Y-55708D01*
D02*
G37*
%LPC*%
G36*
X370787Y-52600D02*
Y-56713D01*
X374900D01*
X374601Y-55594D01*
X373951Y-54469D01*
X373031Y-53549D01*
X371906Y-52899D01*
X370787Y-52600D01*
D02*
G37*
G36*
X308287D02*
Y-56713D01*
X312400D01*
X312101Y-55594D01*
X311451Y-54469D01*
X310531Y-53549D01*
X309406Y-52899D01*
X308287Y-52600D01*
D02*
G37*
G36*
X374900Y-58287D02*
X370787D01*
Y-62400D01*
X371906Y-62101D01*
X373031Y-61451D01*
X373951Y-60531D01*
X374601Y-59406D01*
X374900Y-58287D01*
D02*
G37*
G36*
X312400D02*
X308287D01*
Y-62400D01*
X309406Y-62101D01*
X310531Y-61451D01*
X311451Y-60531D01*
X312101Y-59406D01*
X312400Y-58287D01*
D02*
G37*
G36*
X364937Y-52563D02*
X355063D01*
Y-62437D01*
X364937D01*
Y-59816D01*
X365022Y-59752D01*
X365676Y-59884D01*
X366049Y-60531D01*
X366969Y-61451D01*
X368094Y-62101D01*
X369213Y-62400D01*
Y-57500D01*
Y-52600D01*
X368094Y-52899D01*
X366969Y-53549D01*
X366049Y-54469D01*
X365676Y-55116D01*
X365022Y-55248D01*
X364937Y-55184D01*
Y-52563D01*
D02*
G37*
G36*
X302437D02*
X292563D01*
Y-62437D01*
X302437D01*
Y-59816D01*
X302522Y-59752D01*
X303176Y-59884D01*
X303549Y-60531D01*
X304469Y-61451D01*
X305594Y-62101D01*
X306713Y-62400D01*
Y-57500D01*
Y-52600D01*
X305594Y-52899D01*
X304469Y-53549D01*
X303549Y-54469D01*
X303176Y-55116D01*
X302522Y-55248D01*
X302437Y-55184D01*
Y-52563D01*
D02*
G37*
G36*
X178287Y-52600D02*
Y-56713D01*
X182400D01*
X182101Y-55594D01*
X181451Y-54469D01*
X180531Y-53549D01*
X179406Y-52899D01*
X178287Y-52600D01*
D02*
G37*
G36*
X113287D02*
Y-56713D01*
X117400D01*
X117101Y-55594D01*
X116451Y-54469D01*
X115531Y-53549D01*
X114406Y-52899D01*
X113287Y-52600D01*
D02*
G37*
G36*
X117400Y-58287D02*
X113287D01*
Y-62400D01*
X114406Y-62101D01*
X115531Y-61451D01*
X116451Y-60531D01*
X117101Y-59406D01*
X117400Y-58287D01*
D02*
G37*
G36*
X182400D02*
X178287D01*
Y-62400D01*
X179406Y-62101D01*
X180531Y-61451D01*
X181451Y-60531D01*
X182101Y-59406D01*
X182400Y-58287D01*
D02*
G37*
G36*
X172437Y-52563D02*
X162563D01*
Y-62437D01*
X172437D01*
Y-59816D01*
X172522Y-59752D01*
X173176Y-59884D01*
X173549Y-60531D01*
X174469Y-61451D01*
X175594Y-62101D01*
X176713Y-62400D01*
Y-57500D01*
Y-52600D01*
X175594Y-52899D01*
X174469Y-53549D01*
X173549Y-54469D01*
X173176Y-55116D01*
X172522Y-55248D01*
X172437Y-55184D01*
Y-52563D01*
D02*
G37*
G36*
X107437D02*
X97563D01*
Y-62437D01*
X107437D01*
Y-59816D01*
X107522Y-59752D01*
X108176Y-59884D01*
X108549Y-60531D01*
X109469Y-61451D01*
X110594Y-62101D01*
X111713Y-62400D01*
Y-57500D01*
Y-52600D01*
X110594Y-52899D01*
X109469Y-53549D01*
X108549Y-54469D01*
X108176Y-55116D01*
X107522Y-55248D01*
X107437Y-55184D01*
Y-52563D01*
D02*
G37*
%LPD*%
D12*
X399606Y3937D02*
X421260D01*
X360236Y43307D02*
X399606Y3937D01*
X335630Y94488D02*
X360236Y69882D01*
Y43307D02*
Y69882D01*
X514764Y-27559D02*
Y44291D01*
X429134Y129921D02*
X514764Y44291D01*
X284449Y129921D02*
X429134D01*
X514764Y-27559D02*
X524606Y-37402D01*
X525591D01*
X273622Y119095D02*
X284449Y129921D01*
X273622Y104331D02*
X277559Y100394D01*
X273622Y104331D02*
Y119095D01*
D15*
X47756Y-47244D02*
X222244D01*
X37500Y-57500D02*
X47756Y-47244D01*
X222244D02*
X232500Y-57500D01*
X214567Y166339D02*
Y174213D01*
X217520Y177165D01*
X293670D01*
X299576Y171260D02*
X459055D01*
X293670Y177165D02*
X299576Y171260D01*
X459055D02*
X472047Y158268D01*
X219396Y161510D02*
Y163643D01*
X224803Y139961D02*
Y156102D01*
X214567Y166339D02*
X216700D01*
X219396Y163643D01*
Y161510D02*
X224803Y156102D01*
X230604Y132027D02*
Y134160D01*
X224803Y139961D02*
X230604Y134160D01*
X233300Y129331D02*
X235433D01*
X230604Y132027D02*
X233300Y129331D01*
X427953Y147835D02*
X523779Y52008D01*
Y36063D02*
Y52008D01*
X235433Y147835D02*
X427953D01*
X290354Y114173D02*
X408661D01*
X486772Y36063D01*
X465000Y-57500D02*
Y-4213D01*
X456529Y-66929D02*
X465000Y-58459D01*
Y-4213D02*
X505276Y36063D01*
X242500Y-58459D02*
Y-57500D01*
X251929Y-66929D01*
X47500Y-57500D02*
X56929Y-66929D01*
X505276Y36063D02*
Y38402D01*
X56929Y-66929D02*
X234029D01*
X242500Y-58459D01*
X465000D02*
Y-57500D01*
X251929Y-66929D02*
X456529D01*
X427323Y36063D02*
X455000Y8386D01*
X392146Y-57500D02*
X455000D01*
Y8386D01*
X242756Y-47244D02*
X381890D01*
X392146Y-57500D01*
X232500D02*
X242756Y-47244D01*
D47*
X45512Y194724D02*
X102362D01*
X15000Y225236D02*
X45512Y194724D01*
D48*
X102362Y193898D02*
D03*
D49*
X120079Y205709D02*
D03*
Y182087D02*
D03*
D50*
X214567Y166339D02*
D03*
X193701Y129331D02*
D03*
Y147835D02*
D03*
Y166339D02*
D03*
X214567Y129331D02*
D03*
Y147835D02*
D03*
X235433Y129331D02*
D03*
Y147835D02*
D03*
Y166339D02*
D03*
D51*
X339646Y223071D02*
D03*
Y204567D02*
D03*
Y186063D02*
D03*
X320630Y223071D02*
D03*
Y204567D02*
D03*
Y186063D02*
D03*
D52*
X535827Y158268D02*
D03*
Y183071D02*
D03*
Y207874D02*
D03*
X472047Y158268D02*
D03*
Y183071D02*
D03*
Y207874D02*
D03*
X375590D02*
D03*
Y183071D02*
D03*
Y158268D02*
D03*
X439370Y207874D02*
D03*
Y183071D02*
D03*
Y158268D02*
D03*
D53*
X28543Y29528D02*
D03*
X-8858D02*
D03*
X56142D02*
D03*
X93543D02*
D03*
X158543D02*
D03*
X121142D02*
D03*
X186142D02*
D03*
X223543D02*
D03*
D54*
X0Y0D02*
D03*
X9843D02*
D03*
X19685D02*
D03*
X84685D02*
D03*
X74843D02*
D03*
X65000D02*
D03*
X130000D02*
D03*
X139842D02*
D03*
X149685D02*
D03*
X214685D02*
D03*
X204842D02*
D03*
X195000D02*
D03*
X542500Y72500D02*
D03*
X307500Y-57500D02*
D03*
X465000D02*
D03*
X177500D02*
D03*
X47500D02*
D03*
X530000Y72500D02*
D03*
X370000Y75000D02*
D03*
X382500D02*
D03*
X370000Y-57500D02*
D03*
X242500D02*
D03*
X205000Y-20000D02*
D03*
X215000D02*
D03*
X140000D02*
D03*
X150000D02*
D03*
X75000D02*
D03*
X85000D02*
D03*
X10000D02*
D03*
X20000D02*
D03*
X335000D02*
D03*
X325000D02*
D03*
X270000D02*
D03*
X260000D02*
D03*
X112500Y-57500D02*
D03*
D55*
X542500Y82500D02*
D03*
X530000D02*
D03*
X370000Y85000D02*
D03*
X382500D02*
D03*
X195000Y-20000D02*
D03*
X130000D02*
D03*
X65000D02*
D03*
X0D02*
D03*
X345000D02*
D03*
X280000D02*
D03*
D56*
X297500Y-57500D02*
D03*
X455000D02*
D03*
X167500D02*
D03*
X37500D02*
D03*
X360000D02*
D03*
X232500D02*
D03*
X102500D02*
D03*
D57*
X408819Y36063D02*
D03*
X486772D02*
D03*
X505276D02*
D03*
X390315D02*
D03*
X353504Y25000D02*
D03*
X335000D02*
D03*
X288504D02*
D03*
X270000D02*
D03*
D58*
X523779Y36063D02*
D03*
X427323D02*
D03*
X316496Y25000D02*
D03*
X251496D02*
D03*
D59*
X69500Y165000D02*
D03*
Y225236D02*
D03*
X15000Y165000D02*
D03*
Y225236D02*
D03*
D60*
X277559Y165354D02*
D03*
X307480Y-72441D02*
D03*
X177559Y-71653D02*
D03*
D61*
X59055Y122047D02*
D03*
X51181Y98425D02*
D03*
X296260Y78740D02*
D03*
X328740Y55118D02*
D03*
X421260Y3937D02*
D03*
X335630Y94488D02*
D03*
X525591Y-37402D02*
D03*
X277559Y100394D02*
D03*
X290354Y114173D02*
D03*
X285433Y194488D02*
D03*
X95276Y77165D02*
D03*
X70866D02*
D03*
X35039Y95669D02*
D03*
X101181Y127559D02*
D03*
M02*
