M48
;Layer_Color=9474304
;FILE_FORMAT=2:4
INCH,TZ
;TYPE=PLATED
T04F00S00C0.0394
T06F00S00C0.0472
%
G90
G05
T04
G00X10236Y19508
M15
G01Y19272
M16
G00X12126Y18209
M15
G01X11890
M16
G00X12126Y20571
M15
G01X11890
M16
T06
G00X19114Y12933
M15
G01X19626
M16
G00X19114Y14783
M15
G01X19626
M16
G00X19114Y16634
M15
G01X19626
M16
G00X21201Y16634
M15
G01X21713
M16
G00X21201Y14783
M15
G01X21713
M16
G00X21201Y12933
M15
G01X21713
M16
G00X23287Y12933
M15
G01X23799
M16
G00X23287Y14783
M15
G01X23799
M16
G00X23287Y16634
M15
G01X23799
M16
M17
M30
