G04*
G04 #@! TF.GenerationSoftware,Altium Limited,Altium Designer,25.0.2 (28)*
G04*
G04 Layer_Physical_Order=1*
G04 Layer_Color=255*
%FSLAX25Y25*%
%MOIN*%
G70*
G04*
G04 #@! TF.SameCoordinates,806C6703-1472-4CDD-89B2-E77C97C87F0E*
G04*
G04*
G04 #@! TF.FilePolarity,Positive*
G04*
G01*
G75*
%ADD12C,0.01575*%
%ADD15C,0.02362*%
%ADD16O,0.06102X0.02362*%
%ADD17R,0.06102X0.02362*%
%ADD18R,0.03937X0.04921*%
%ADD19R,0.04921X0.03937*%
G04:AMPARAMS|DCode=20|XSize=39.37mil|YSize=39.37mil|CornerRadius=9.84mil|HoleSize=0mil|Usage=FLASHONLY|Rotation=90.000|XOffset=0mil|YOffset=0mil|HoleType=Round|Shape=RoundedRectangle|*
%AMROUNDEDRECTD20*
21,1,0.03937,0.01968,0,0,90.0*
21,1,0.01968,0.03937,0,0,90.0*
1,1,0.01968,0.00984,0.00984*
1,1,0.01968,0.00984,-0.00984*
1,1,0.01968,-0.00984,-0.00984*
1,1,0.01968,-0.00984,0.00984*
%
%ADD20ROUNDEDRECTD20*%
%ADD21R,0.05118X0.05906*%
%ADD22R,0.05906X0.05118*%
%ADD23R,0.06299X0.11811*%
%ADD47C,0.03937*%
G04:AMPARAMS|DCode=48|XSize=102.36mil|YSize=78.74mil|CornerRadius=19.68mil|HoleSize=0mil|Usage=FLASHONLY|Rotation=270.000|XOffset=0mil|YOffset=0mil|HoleType=Round|Shape=RoundedRectangle|*
%AMROUNDEDRECTD48*
21,1,0.10236,0.03937,0,0,270.0*
21,1,0.06299,0.07874,0,0,270.0*
1,1,0.03937,-0.01968,-0.03150*
1,1,0.03937,-0.01968,0.03150*
1,1,0.03937,0.01968,0.03150*
1,1,0.03937,0.01968,-0.03150*
%
%ADD48ROUNDEDRECTD48*%
G04:AMPARAMS|DCode=49|XSize=102.36mil|YSize=78.74mil|CornerRadius=19.68mil|HoleSize=0mil|Usage=FLASHONLY|Rotation=180.000|XOffset=0mil|YOffset=0mil|HoleType=Round|Shape=RoundedRectangle|*
%AMROUNDEDRECTD49*
21,1,0.10236,0.03937,0,0,180.0*
21,1,0.06299,0.07874,0,0,180.0*
1,1,0.03937,-0.03150,0.01968*
1,1,0.03937,0.03150,0.01968*
1,1,0.03937,0.03150,-0.01968*
1,1,0.03937,-0.03150,-0.01968*
%
%ADD49ROUNDEDRECTD49*%
G04:AMPARAMS|DCode=50|XSize=137.8mil|YSize=98.43mil|CornerRadius=24.61mil|HoleSize=0mil|Usage=FLASHONLY|Rotation=0.000|XOffset=0mil|YOffset=0mil|HoleType=Round|Shape=RoundedRectangle|*
%AMROUNDEDRECTD50*
21,1,0.13780,0.04921,0,0,0.0*
21,1,0.08858,0.09843,0,0,0.0*
1,1,0.04921,0.04429,-0.02461*
1,1,0.04921,-0.04429,-0.02461*
1,1,0.04921,-0.04429,0.02461*
1,1,0.04921,0.04429,0.02461*
%
%ADD50ROUNDEDRECTD50*%
G04:AMPARAMS|DCode=51|XSize=118.11mil|YSize=118.11mil|CornerRadius=29.53mil|HoleSize=0mil|Usage=FLASHONLY|Rotation=0.000|XOffset=0mil|YOffset=0mil|HoleType=Round|Shape=RoundedRectangle|*
%AMROUNDEDRECTD51*
21,1,0.11811,0.05906,0,0,0.0*
21,1,0.05906,0.11811,0,0,0.0*
1,1,0.05906,0.02953,-0.02953*
1,1,0.05906,-0.02953,-0.02953*
1,1,0.05906,-0.02953,0.02953*
1,1,0.05906,0.02953,0.02953*
%
%ADD51ROUNDEDRECTD51*%
%ADD52C,0.10236*%
%ADD53R,0.11811X0.09843*%
%ADD54C,0.07874*%
%ADD55R,0.07874X0.07874*%
%ADD56R,0.07874X0.07874*%
%ADD57C,0.11811*%
%ADD58R,0.11811X0.11811*%
%ADD59C,0.11457*%
%ADD60C,0.03150*%
%ADD61C,0.02362*%
G36*
X-17953Y238579D02*
X548976D01*
X549010Y238586D01*
X550603Y238460D01*
X552190Y238079D01*
X553698Y237455D01*
X555089Y236602D01*
X556330Y235542D01*
X557390Y234302D01*
X558242Y232910D01*
X558867Y231403D01*
X559248Y229816D01*
X559373Y228223D01*
X559366Y228189D01*
X559366Y-112520D01*
X559373Y-112554D01*
X559248Y-114146D01*
X558867Y-115733D01*
X558242Y-117241D01*
X557390Y-118632D01*
X556330Y-119873D01*
X555089Y-120933D01*
X553698Y-121786D01*
X552190Y-122410D01*
X550603Y-122791D01*
X549010Y-122916D01*
X548976Y-122910D01*
X-17953D01*
X-17987Y-122916D01*
X-19580Y-122791D01*
X-21166Y-122410D01*
X-22674Y-121786D01*
X-24065Y-120933D01*
X-25306Y-119873D01*
X-26366Y-118632D01*
X-27219Y-117241D01*
X-27843Y-115733D01*
X-28224Y-114146D01*
X-28350Y-112554D01*
X-28343Y-112520D01*
X-28343Y228189D01*
X-28350Y228223D01*
X-28224Y229816D01*
X-27843Y231403D01*
X-27219Y232910D01*
X-26366Y234302D01*
X-25306Y235542D01*
X-24065Y236602D01*
X-22674Y237455D01*
X-21166Y238079D01*
X-19580Y238460D01*
X-17987Y238586D01*
X-17953Y238579D01*
D02*
G37*
%LPC*%
G36*
X323583Y230011D02*
X317677D01*
X316645Y229875D01*
X315684Y229476D01*
X314858Y228843D01*
X314224Y228017D01*
X313826Y227056D01*
X313690Y226024D01*
Y220118D01*
X313826Y219086D01*
X314224Y218125D01*
X314858Y217299D01*
X315684Y216665D01*
X316645Y216267D01*
X317677Y216131D01*
X323583D01*
X324615Y216267D01*
X325576Y216665D01*
X326402Y217299D01*
X327035Y218125D01*
X327434Y219086D01*
X327570Y220118D01*
Y226024D01*
X327434Y227056D01*
X327035Y228017D01*
X326402Y228843D01*
X325576Y229476D01*
X324615Y229875D01*
X323583Y230011D01*
D02*
G37*
G36*
Y211507D02*
X317677D01*
X316645Y211371D01*
X315684Y210972D01*
X314858Y210339D01*
X314224Y209513D01*
X313826Y208552D01*
X313690Y207520D01*
Y206389D01*
X303976D01*
X303976Y206389D01*
X303279Y206251D01*
X302688Y205856D01*
X302688Y205855D01*
X295955Y199123D01*
X295560Y198532D01*
X295422Y197835D01*
X295422Y197835D01*
Y191945D01*
X293783D01*
Y186008D01*
X300705D01*
Y191945D01*
X299066D01*
Y197080D01*
X304731Y202745D01*
X313690D01*
Y201614D01*
X313826Y200582D01*
X314224Y199621D01*
X314858Y198795D01*
X315684Y198161D01*
X316645Y197763D01*
X317677Y197627D01*
X323583D01*
X324615Y197763D01*
X325576Y198161D01*
X326402Y198795D01*
X327035Y199621D01*
X327434Y200582D01*
X327570Y201614D01*
Y207520D01*
X327434Y208552D01*
X327035Y209513D01*
X326402Y210339D01*
X325576Y210972D01*
X324615Y211371D01*
X323583Y211507D01*
D02*
G37*
G36*
X472650Y213992D02*
X471445D01*
X470263Y213757D01*
X469149Y213296D01*
X468147Y212626D01*
X467295Y211774D01*
X466625Y210772D01*
X466164Y209659D01*
X465929Y208477D01*
Y207271D01*
X466164Y206089D01*
X466625Y204976D01*
X467295Y203974D01*
X468147Y203122D01*
X469149Y202452D01*
X470263Y201991D01*
X471445Y201756D01*
X472650D01*
X473832Y201991D01*
X474945Y202452D01*
X475947Y203122D01*
X476799Y203974D01*
X477469Y204976D01*
X477930Y206089D01*
X478165Y207271D01*
Y208477D01*
X477930Y209659D01*
X477469Y210772D01*
X476799Y211774D01*
X475947Y212626D01*
X474945Y213296D01*
X473832Y213757D01*
X472650Y213992D01*
D02*
G37*
G36*
X376193D02*
X374988D01*
X373806Y213757D01*
X372692Y213296D01*
X371691Y212626D01*
X370838Y211774D01*
X370169Y210772D01*
X369708Y209659D01*
X369472Y208477D01*
Y207271D01*
X369708Y206089D01*
X370169Y204976D01*
X370838Y203974D01*
X371691Y203122D01*
X372692Y202452D01*
X373806Y201991D01*
X374988Y201756D01*
X376193D01*
X377375Y201991D01*
X378489Y202452D01*
X379491Y203122D01*
X380343Y203974D01*
X381012Y204976D01*
X381473Y206089D01*
X381709Y207271D01*
Y208477D01*
X381473Y209659D01*
X381012Y210772D01*
X380343Y211774D01*
X379491Y212626D01*
X378489Y213296D01*
X377375Y213757D01*
X376193Y213992D01*
D02*
G37*
G36*
X104331Y200041D02*
X100394D01*
X99619Y199939D01*
X98897Y199640D01*
X98277Y199164D01*
X97801Y198544D01*
X97502Y197822D01*
X97400Y197047D01*
Y190748D01*
X97502Y189973D01*
X97801Y189251D01*
X98277Y188631D01*
X98897Y188155D01*
X99619Y187856D01*
X100394Y187754D01*
X104331D01*
X105106Y187856D01*
X105828Y188155D01*
X106448Y188631D01*
X106924Y189251D01*
X107223Y189973D01*
X107325Y190748D01*
Y197047D01*
X107223Y197822D01*
X106924Y198544D01*
X106448Y199164D01*
X105828Y199640D01*
X105106Y199939D01*
X104331Y200041D01*
D02*
G37*
G36*
X323583Y193003D02*
X321417D01*
Y186850D01*
X327570D01*
Y189016D01*
X327434Y190048D01*
X327035Y191009D01*
X326402Y191835D01*
X325576Y192469D01*
X324615Y192867D01*
X323583Y193003D01*
D02*
G37*
G36*
X319843D02*
X317677D01*
X316645Y192867D01*
X315684Y192469D01*
X314858Y191835D01*
X314224Y191009D01*
X313826Y190048D01*
X313690Y189016D01*
Y186850D01*
X319843D01*
Y193003D01*
D02*
G37*
G36*
X285867Y196669D02*
X284999D01*
X284198Y196337D01*
X283584Y195724D01*
X283252Y194922D01*
Y194054D01*
X283584Y193253D01*
X283611Y193226D01*
Y191945D01*
X281972D01*
Y186008D01*
X288894D01*
Y191945D01*
X287256D01*
Y193226D01*
X287282Y193253D01*
X287614Y194054D01*
Y194922D01*
X287282Y195724D01*
X286669Y196337D01*
X285867Y196669D01*
D02*
G37*
G36*
X300705Y184071D02*
X293783D01*
Y182925D01*
X288894D01*
Y184071D01*
X281972D01*
Y178134D01*
X288894D01*
Y179280D01*
X293783D01*
Y178134D01*
X300705D01*
Y184071D01*
D02*
G37*
G36*
X123228Y210671D02*
X116929D01*
X116154Y210569D01*
X115432Y210270D01*
X114812Y209794D01*
X114336Y209174D01*
X114037Y208452D01*
X113935Y207677D01*
Y203740D01*
X114037Y202965D01*
X114336Y202243D01*
X114812Y201623D01*
X115432Y201147D01*
X116154Y200848D01*
X116929Y200746D01*
X123228D01*
X124003Y200848D01*
X124725Y201147D01*
X125346Y201623D01*
X125821Y202243D01*
X126017Y202714D01*
X152303D01*
X153502Y201516D01*
Y196669D01*
X152347D01*
Y182858D01*
X160646D01*
Y196669D01*
X159490D01*
Y202756D01*
X159388Y203531D01*
X159089Y204253D01*
X158613Y204873D01*
X155660Y207826D01*
X155040Y208302D01*
X154318Y208601D01*
X153543Y208703D01*
X126017D01*
X125821Y209174D01*
X125346Y209794D01*
X124725Y210270D01*
X124003Y210569D01*
X123228Y210671D01*
D02*
G37*
G36*
X327570Y185276D02*
X321417D01*
Y179123D01*
X323583D01*
X324615Y179259D01*
X325576Y179657D01*
X326402Y180291D01*
X327035Y181117D01*
X327434Y182078D01*
X327570Y183110D01*
Y185276D01*
D02*
G37*
G36*
X319843D02*
X313690D01*
Y183110D01*
X313826Y182078D01*
X314224Y181117D01*
X314858Y180291D01*
X315684Y179657D01*
X316645Y179259D01*
X317677Y179123D01*
X319843D01*
Y185276D01*
D02*
G37*
G36*
X160645Y179347D02*
X157283D01*
Y173228D01*
X160645D01*
Y179347D01*
D02*
G37*
G36*
X155708D02*
X152346D01*
Y173228D01*
X155708D01*
Y179347D01*
D02*
G37*
G36*
X137654Y173087D02*
X134882D01*
Y169921D01*
X137654D01*
Y173087D01*
D02*
G37*
G36*
X133307D02*
X130535D01*
Y169921D01*
X133307D01*
Y173087D01*
D02*
G37*
G36*
X342598Y193003D02*
X336693D01*
X335661Y192867D01*
X334700Y192469D01*
X333874Y191835D01*
X333240Y191009D01*
X332842Y190048D01*
X332706Y189016D01*
Y183110D01*
X332842Y182078D01*
X333240Y181117D01*
X333874Y180291D01*
X334700Y179657D01*
X335661Y179259D01*
X336693Y179123D01*
X337823D01*
Y170125D01*
X334875Y167177D01*
X295291D01*
Y168815D01*
X289354D01*
Y161894D01*
X295291D01*
Y163532D01*
X335630D01*
X335630Y163532D01*
X336327Y163671D01*
X336919Y164066D01*
X340934Y168081D01*
X340934Y168081D01*
X341329Y168673D01*
X341468Y169370D01*
X341468Y169370D01*
Y179123D01*
X342598D01*
X343630Y179259D01*
X344592Y179657D01*
X345418Y180291D01*
X346051Y181117D01*
X346449Y182078D01*
X346585Y183110D01*
Y189016D01*
X346449Y190048D01*
X346051Y191009D01*
X345418Y191835D01*
X344592Y192469D01*
X343630Y192867D01*
X342598Y193003D01*
D02*
G37*
G36*
X287417Y168815D02*
X281480D01*
Y167177D01*
X279378D01*
X279140Y167415D01*
X278553Y167754D01*
X277898Y167929D01*
X277220D01*
X276565Y167754D01*
X275978Y167415D01*
X275499Y166935D01*
X275160Y166348D01*
X274984Y165693D01*
Y165015D01*
X275160Y164360D01*
X275499Y163773D01*
X275978Y163294D01*
X276565Y162955D01*
X277220Y162779D01*
X277898D01*
X278553Y162955D01*
X279140Y163294D01*
X279378Y163532D01*
X281480D01*
Y161894D01*
X287417D01*
Y168815D01*
D02*
G37*
G36*
X160645Y171654D02*
X157283D01*
Y165535D01*
X160645D01*
Y171654D01*
D02*
G37*
G36*
X155708D02*
X152346D01*
Y165535D01*
X155708D01*
Y171654D01*
D02*
G37*
G36*
X137654Y168347D02*
X134882D01*
Y165181D01*
X137654D01*
Y168347D01*
D02*
G37*
G36*
X133307D02*
X130535D01*
Y165181D01*
X133307D01*
Y168347D01*
D02*
G37*
G36*
X123228Y187049D02*
X116929D01*
X116154Y186947D01*
X115432Y186648D01*
X114812Y186172D01*
X114336Y185552D01*
X114037Y184830D01*
X113935Y184055D01*
Y180118D01*
X114037Y179343D01*
X114336Y178621D01*
X114812Y178001D01*
X115432Y177525D01*
X116154Y177226D01*
X116929Y177124D01*
X118256D01*
Y173087D01*
X116362D01*
Y165181D01*
X123480D01*
Y173087D01*
X121901D01*
Y177124D01*
X123228D01*
X124003Y177226D01*
X124725Y177525D01*
X125346Y178001D01*
X125821Y178621D01*
X126120Y179343D01*
X126223Y180118D01*
Y184055D01*
X126120Y184830D01*
X125821Y185552D01*
X125346Y186172D01*
X124725Y186648D01*
X124003Y186947D01*
X123228Y187049D01*
D02*
G37*
G36*
X239862Y172290D02*
X231004D01*
X230100Y172171D01*
X229259Y171822D01*
X228536Y171267D01*
X227981Y170545D01*
X227632Y169703D01*
X227514Y168799D01*
Y163878D01*
X227632Y162975D01*
X227981Y162133D01*
X228536Y161410D01*
X229259Y160855D01*
X230100Y160506D01*
X231004Y160388D01*
X239862D01*
X240766Y160506D01*
X241607Y160855D01*
X242330Y161410D01*
X242885Y162133D01*
X243234Y162975D01*
X243353Y163878D01*
Y168799D01*
X243234Y169703D01*
X242885Y170545D01*
X242330Y171267D01*
X241607Y171822D01*
X240766Y172171D01*
X239862Y172290D01*
D02*
G37*
G36*
X70163Y231965D02*
X68837D01*
X67537Y231706D01*
X66313Y231199D01*
X65211Y230463D01*
X64274Y229525D01*
X63537Y228423D01*
X63030Y227199D01*
X62772Y225899D01*
Y224573D01*
X63030Y223274D01*
X63537Y222049D01*
X64274Y220947D01*
X65211Y220010D01*
X66313Y219274D01*
X66506Y219194D01*
Y171043D01*
X66313Y170963D01*
X65211Y170226D01*
X64274Y169289D01*
X63537Y168187D01*
X63030Y166963D01*
X62772Y165663D01*
Y164337D01*
X63030Y163037D01*
X63110Y162845D01*
X46961Y146695D01*
X44307D01*
Y147260D01*
X36402D01*
Y140142D01*
X44307D01*
Y140707D01*
X48201D01*
X48976Y140809D01*
X49698Y141108D01*
X50318Y141584D01*
X67344Y158610D01*
X67537Y158530D01*
X68837Y158272D01*
X70163D01*
X71463Y158530D01*
X72687Y159037D01*
X73789Y159774D01*
X74726Y160711D01*
X75463Y161813D01*
X75970Y163037D01*
X76228Y164337D01*
Y165663D01*
X75970Y166963D01*
X75463Y168187D01*
X74726Y169289D01*
X73789Y170226D01*
X72687Y170963D01*
X72494Y171043D01*
Y219194D01*
X72687Y219274D01*
X73789Y220010D01*
X74726Y220947D01*
X75463Y222049D01*
X75970Y223274D01*
X76228Y224573D01*
Y225899D01*
X75970Y227199D01*
X75463Y228423D01*
X74726Y229525D01*
X73789Y230463D01*
X72687Y231199D01*
X71463Y231706D01*
X70163Y231965D01*
D02*
G37*
G36*
X15663D02*
X14337D01*
X13037Y231706D01*
X11813Y231199D01*
X10711Y230463D01*
X9774Y229525D01*
X9037Y228423D01*
X8530Y227199D01*
X8272Y225899D01*
Y224573D01*
X8530Y223274D01*
X9037Y222049D01*
X9774Y220947D01*
X10711Y220010D01*
X11813Y219274D01*
X12006Y219194D01*
Y171043D01*
X11813Y170963D01*
X10711Y170226D01*
X9774Y169289D01*
X9037Y168187D01*
X8530Y166963D01*
X8272Y165663D01*
Y164337D01*
X8530Y163037D01*
X9037Y161813D01*
X9774Y160711D01*
X10711Y159774D01*
X11813Y159037D01*
X13037Y158530D01*
X14337Y158272D01*
X15663D01*
X16963Y158530D01*
X18187Y159037D01*
X19289Y159774D01*
X20226Y160711D01*
X20963Y161813D01*
X21470Y163037D01*
X21728Y164337D01*
Y165663D01*
X21470Y166963D01*
X20963Y168187D01*
X20226Y169289D01*
X19289Y170226D01*
X18187Y170963D01*
X17994Y171043D01*
Y219194D01*
X18187Y219274D01*
X19289Y220010D01*
X20226Y220947D01*
X20963Y222049D01*
X21470Y223274D01*
X21728Y224573D01*
Y225899D01*
X21470Y227199D01*
X20963Y228423D01*
X20226Y229525D01*
X19289Y230463D01*
X18187Y231199D01*
X16963Y231706D01*
X15663Y231965D01*
D02*
G37*
G36*
X342598Y211507D02*
X336693D01*
X335661Y211371D01*
X334700Y210972D01*
X333874Y210339D01*
X333240Y209513D01*
X332842Y208552D01*
X332706Y207520D01*
Y201614D01*
X332842Y200582D01*
X333240Y199621D01*
X333874Y198795D01*
X334700Y198161D01*
X335661Y197763D01*
X336693Y197627D01*
X342118D01*
X348571Y191174D01*
Y166109D01*
X339796Y157334D01*
X265519D01*
X245383Y177470D01*
X244792Y177865D01*
X244094Y178004D01*
X244094Y178004D01*
X209584D01*
X208887Y177865D01*
X208295Y177470D01*
X208295Y177470D01*
X202451Y171626D01*
X202056Y171035D01*
X201918Y170337D01*
X201829Y170219D01*
X201258Y170291D01*
X201153Y170545D01*
X200598Y171267D01*
X199875Y171822D01*
X199033Y172171D01*
X198130Y172290D01*
X189272D01*
X188368Y172171D01*
X187526Y171822D01*
X186803Y171267D01*
X186249Y170545D01*
X185900Y169703D01*
X185781Y168799D01*
Y163878D01*
X185900Y162975D01*
X186249Y162133D01*
X186803Y161410D01*
X187526Y160855D01*
X188368Y160506D01*
X189272Y160388D01*
X198130D01*
X199033Y160506D01*
X199875Y160855D01*
X200598Y161410D01*
X201153Y162133D01*
X201418Y162772D01*
X201918Y162673D01*
Y151500D01*
X201418Y151401D01*
X201153Y152041D01*
X200598Y152763D01*
X199875Y153318D01*
X199033Y153667D01*
X198130Y153786D01*
X189272D01*
X188368Y153667D01*
X187526Y153318D01*
X186803Y152763D01*
X186249Y152041D01*
X185900Y151199D01*
X185781Y150295D01*
Y149657D01*
X166535D01*
X166535Y149657D01*
X165838Y149518D01*
X165247Y149123D01*
X165247Y149123D01*
X151132Y135009D01*
X150737Y134417D01*
X150598Y133720D01*
X150598Y133720D01*
Y131847D01*
X148960D01*
Y125910D01*
X155881D01*
Y131847D01*
X154243D01*
Y132965D01*
X167290Y146012D01*
X185781D01*
Y145374D01*
X185900Y144471D01*
X186249Y143629D01*
X186803Y142906D01*
X187526Y142351D01*
X188368Y142002D01*
X189272Y141884D01*
X198130D01*
X199033Y142002D01*
X199875Y142351D01*
X200598Y142906D01*
X201153Y143629D01*
X201418Y144268D01*
X201918Y144169D01*
Y140157D01*
X201918Y140157D01*
X202056Y139460D01*
X202451Y138869D01*
X207405Y133915D01*
X207115Y133537D01*
X206766Y132695D01*
X206647Y131791D01*
Y126870D01*
X206766Y125967D01*
X207115Y125125D01*
X207670Y124402D01*
X208393Y123847D01*
X209234Y123498D01*
X210138Y123380D01*
X218996D01*
X219900Y123498D01*
X220741Y123847D01*
X221464Y124402D01*
X222019Y125125D01*
X222368Y125967D01*
X222486Y126870D01*
Y131791D01*
X222368Y132695D01*
X222019Y133537D01*
X221464Y134259D01*
X220741Y134814D01*
X219900Y135163D01*
X218996Y135282D01*
X211193D01*
X205563Y140912D01*
Y169582D01*
X206609Y170628D01*
X207032Y170345D01*
X206766Y169703D01*
X206647Y168799D01*
Y163878D01*
X206766Y162975D01*
X207115Y162133D01*
X207670Y161410D01*
X208393Y160855D01*
X209234Y160506D01*
X210138Y160388D01*
X218996D01*
X219900Y160506D01*
X220741Y160855D01*
X221464Y161410D01*
X222019Y162133D01*
X222368Y162975D01*
X222486Y163878D01*
Y168799D01*
X222368Y169703D01*
X222019Y170545D01*
X221464Y171267D01*
X220741Y171822D01*
X219900Y172171D01*
X218996Y172290D01*
X210138D01*
X209234Y172171D01*
X208592Y171905D01*
X208309Y172328D01*
X210339Y174359D01*
X243340D01*
X263475Y154223D01*
X264066Y153828D01*
X264764Y153689D01*
X264764Y153689D01*
X340551D01*
X340551Y153689D01*
X341249Y153828D01*
X341840Y154223D01*
X351682Y164066D01*
X351682Y164066D01*
X352077Y164657D01*
X352216Y165354D01*
X352216Y165354D01*
Y191929D01*
X352077Y192627D01*
X351682Y193218D01*
X351682Y193218D01*
X345716Y199184D01*
X346051Y199621D01*
X346449Y200582D01*
X346585Y201614D01*
Y207520D01*
X346449Y208552D01*
X346051Y209513D01*
X345418Y210339D01*
X344592Y210972D01*
X343630Y211371D01*
X342598Y211507D01*
D02*
G37*
G36*
X472650Y164386D02*
X471445D01*
X470263Y164151D01*
X469149Y163689D01*
X468147Y163020D01*
X467295Y162168D01*
X466625Y161166D01*
X466164Y160052D01*
X465929Y158870D01*
Y157665D01*
X466164Y156483D01*
X466625Y155370D01*
X467295Y154368D01*
X468147Y153516D01*
X469149Y152846D01*
X470263Y152385D01*
X471445Y152150D01*
X472650D01*
X473832Y152385D01*
X474945Y152846D01*
X475947Y153516D01*
X476799Y154368D01*
X477469Y155370D01*
X477930Y156483D01*
X478165Y157665D01*
Y158870D01*
X477930Y160052D01*
X477469Y161166D01*
X476799Y162168D01*
X475947Y163020D01*
X474945Y163689D01*
X473832Y164151D01*
X472650Y164386D01*
D02*
G37*
G36*
X376193D02*
X374988D01*
X373806Y164151D01*
X372692Y163689D01*
X371691Y163020D01*
X370838Y162168D01*
X370169Y161166D01*
X369708Y160052D01*
X369472Y158870D01*
Y157665D01*
X369708Y156483D01*
X370153Y155408D01*
X365387Y150641D01*
X255479D01*
X248336Y157785D01*
X247745Y158180D01*
X247047Y158318D01*
X247047Y158318D01*
X216258D01*
X215560Y158180D01*
X214969Y157785D01*
X214969Y157785D01*
X214046Y156862D01*
X213651Y156271D01*
X213512Y155574D01*
X213512Y155573D01*
Y153786D01*
X210138D01*
X209234Y153667D01*
X208393Y153318D01*
X207670Y152763D01*
X207115Y152041D01*
X206766Y151199D01*
X206647Y150295D01*
Y145374D01*
X206766Y144471D01*
X207115Y143629D01*
X207670Y142906D01*
X208393Y142351D01*
X209234Y142002D01*
X210138Y141884D01*
X218996D01*
X219900Y142002D01*
X220741Y142351D01*
X221464Y142906D01*
X222019Y143629D01*
X222368Y144471D01*
X222486Y145374D01*
Y150295D01*
X222368Y151199D01*
X222019Y152041D01*
X221464Y152763D01*
X220741Y153318D01*
X219900Y153667D01*
X218996Y153786D01*
X217157D01*
Y154674D01*
X246292D01*
X253436Y147530D01*
X253436Y147530D01*
X254027Y147135D01*
X254724Y146996D01*
X366142D01*
X366142Y146996D01*
X366839Y147135D01*
X367430Y147530D01*
X372730Y152830D01*
X373806Y152385D01*
X374988Y152150D01*
X376193D01*
X377375Y152385D01*
X378489Y152846D01*
X379491Y153516D01*
X380343Y154368D01*
X381012Y155370D01*
X381473Y156483D01*
X381709Y157665D01*
Y158870D01*
X381473Y160052D01*
X381012Y161166D01*
X380343Y162168D01*
X379491Y163020D01*
X378489Y163689D01*
X377375Y164151D01*
X376193Y164386D01*
D02*
G37*
G36*
X104839Y143717D02*
X97917D01*
Y142570D01*
X94996D01*
Y143717D01*
X88075D01*
Y137779D01*
X94996D01*
Y138926D01*
X97917D01*
Y137779D01*
X104839D01*
Y143717D01*
D02*
G37*
G36*
X94996Y135843D02*
X92323D01*
Y133661D01*
X94996D01*
Y135843D01*
D02*
G37*
G36*
X90748D02*
X88075D01*
Y133661D01*
X90748D01*
Y135843D01*
D02*
G37*
G36*
X44307Y133087D02*
X41142D01*
Y130315D01*
X44307D01*
Y133087D01*
D02*
G37*
G36*
X39567D02*
X36402D01*
Y130315D01*
X39567D01*
Y133087D01*
D02*
G37*
G36*
X167595Y131846D02*
X164921D01*
Y129665D01*
X167595D01*
Y131846D01*
D02*
G37*
G36*
X163347D02*
X160673D01*
Y129665D01*
X163347D01*
Y131846D01*
D02*
G37*
G36*
X44307Y128740D02*
X41142D01*
Y125969D01*
X44307D01*
Y128740D01*
D02*
G37*
G36*
X39567D02*
X36402D01*
Y125969D01*
X39567D01*
Y128740D01*
D02*
G37*
G36*
X167595Y128091D02*
X164921D01*
Y125909D01*
X167595D01*
Y128091D01*
D02*
G37*
G36*
X163347D02*
X160673D01*
Y125909D01*
X163347D01*
Y128091D01*
D02*
G37*
G36*
X104839Y135843D02*
X97917D01*
Y129905D01*
X99359D01*
Y128821D01*
X99332Y128795D01*
X99000Y127993D01*
Y127125D01*
X99332Y126324D01*
X99946Y125710D01*
X100747Y125378D01*
X101615D01*
X102417Y125710D01*
X103030Y126324D01*
X103362Y127125D01*
Y127993D01*
X103030Y128795D01*
X103004Y128821D01*
Y129905D01*
X104839D01*
Y135843D01*
D02*
G37*
G36*
X94996Y132087D02*
X91536D01*
X88075D01*
Y129905D01*
X89713D01*
Y127723D01*
X85859Y123870D01*
X81709D01*
Y125508D01*
X79528D01*
Y122047D01*
X78740D01*
Y121260D01*
X75772D01*
Y118587D01*
X76868D01*
Y116023D01*
X76772D01*
X75921Y115854D01*
X75199Y115372D01*
X74717Y114650D01*
X74704Y114587D01*
X78642D01*
X82579D01*
X82566Y114650D01*
X82084Y115372D01*
X81363Y115854D01*
X80513Y116023D01*
Y118587D01*
X81709D01*
Y120225D01*
X86614D01*
X86614Y120225D01*
X87312Y120363D01*
X87903Y120759D01*
X92824Y125680D01*
X92824Y125680D01*
X93219Y126271D01*
X93358Y126969D01*
Y129905D01*
X94996D01*
Y132087D01*
D02*
G37*
G36*
X73835Y125508D02*
X67898D01*
Y123870D01*
X60317D01*
X60291Y123896D01*
X59489Y124228D01*
X58621D01*
X57820Y123896D01*
X57206Y123283D01*
X56874Y122481D01*
Y121613D01*
X57206Y120812D01*
X57820Y120198D01*
X58621Y119866D01*
X59489D01*
X60291Y120198D01*
X60317Y120225D01*
X67898D01*
Y118587D01*
X73835D01*
Y125508D01*
D02*
G37*
G36*
X239862Y135282D02*
X231004D01*
X230100Y135163D01*
X229259Y134814D01*
X228536Y134259D01*
X227981Y133537D01*
X227632Y132695D01*
X227514Y131791D01*
Y126870D01*
X227632Y125967D01*
X227981Y125125D01*
X228536Y124402D01*
X229259Y123847D01*
X230100Y123498D01*
X231004Y123380D01*
X239862D01*
X240766Y123498D01*
X241607Y123847D01*
X242330Y124402D01*
X242885Y125125D01*
X243234Y125967D01*
X243353Y126870D01*
Y131791D01*
X243234Y132695D01*
X242885Y133537D01*
X242330Y134259D01*
X241607Y134814D01*
X240766Y135163D01*
X239862Y135282D01*
D02*
G37*
G36*
X198130D02*
X189272D01*
X188368Y135163D01*
X187526Y134814D01*
X186803Y134259D01*
X186249Y133537D01*
X185900Y132695D01*
X185781Y131791D01*
Y126870D01*
X185900Y125967D01*
X186249Y125125D01*
X186803Y124402D01*
X187526Y123847D01*
X188368Y123498D01*
X189272Y123380D01*
X198130D01*
X199033Y123498D01*
X199875Y123847D01*
X200598Y124402D01*
X201153Y125125D01*
X201501Y125967D01*
X201620Y126870D01*
Y131791D01*
X201501Y132695D01*
X201153Y133537D01*
X200598Y134259D01*
X199875Y134814D01*
X199033Y135163D01*
X198130Y135282D01*
D02*
G37*
G36*
X77953Y125508D02*
X75772D01*
Y122835D01*
X77953D01*
Y125508D01*
D02*
G37*
G36*
X155881Y123973D02*
X148960D01*
Y118036D01*
X155881D01*
Y119182D01*
X160673D01*
Y118035D01*
X167595D01*
Y123972D01*
X160673D01*
Y122827D01*
X155881D01*
Y123973D01*
D02*
G37*
G36*
X38402Y112713D02*
X36220D01*
Y110039D01*
X38402D01*
Y112713D01*
D02*
G37*
G36*
X34646D02*
X32465D01*
Y110039D01*
X34646D01*
Y112713D01*
D02*
G37*
G36*
X320882Y111728D02*
X318701D01*
Y109055D01*
X320882D01*
Y111728D01*
D02*
G37*
G36*
X317126D02*
X314945D01*
Y109055D01*
X317126D01*
Y111728D01*
D02*
G37*
G36*
X61236Y115980D02*
X53134D01*
Y111618D01*
X55363D01*
Y111023D01*
X55315D01*
X54464Y110854D01*
X53742Y110372D01*
X53260Y109650D01*
X53091Y108799D01*
X53260Y107948D01*
X53742Y107227D01*
X54464Y106745D01*
X55315Y106575D01*
X59055D01*
X59906Y106745D01*
X60628Y107227D01*
X61110Y107948D01*
X61279Y108799D01*
X61110Y109650D01*
X60628Y110372D01*
X59906Y110854D01*
X59055Y111023D01*
X59008D01*
Y111618D01*
X61236D01*
Y115980D01*
D02*
G37*
G36*
X38402Y108465D02*
X36220D01*
Y105791D01*
X38402D01*
Y108465D01*
D02*
G37*
G36*
X34646D02*
X32465D01*
Y105791D01*
X34646D01*
Y108465D01*
D02*
G37*
G36*
X290354Y116397D02*
X290140Y116354D01*
X289920D01*
X289718Y116270D01*
X289503Y116228D01*
X289321Y116106D01*
X289119Y116022D01*
X288964Y115867D01*
X288782Y115746D01*
X288660Y115564D01*
X288505Y115409D01*
X288422Y115206D01*
X288300Y115024D01*
X288257Y114809D01*
X288200Y114672D01*
X284765Y111236D01*
X280988D01*
Y105299D01*
X287910D01*
Y108091D01*
X291927Y112109D01*
X291927Y112109D01*
X292409Y112830D01*
X292578Y113681D01*
X292578Y113681D01*
Y114173D01*
X292535Y114388D01*
Y114607D01*
X292452Y114809D01*
X292409Y115024D01*
X292287Y115206D01*
X292203Y115409D01*
X292049Y115564D01*
X291927Y115746D01*
X291745Y115867D01*
X291590Y116022D01*
X291388Y116106D01*
X291205Y116228D01*
X290990Y116270D01*
X290788Y116354D01*
X290569D01*
X290354Y116397D01*
D02*
G37*
G36*
X287910Y103362D02*
X280988D01*
Y102216D01*
X278821D01*
X278795Y102243D01*
X277993Y102575D01*
X277125D01*
X276324Y102243D01*
X275710Y101629D01*
X275378Y100828D01*
Y99960D01*
X275710Y99158D01*
X276324Y98545D01*
X277125Y98213D01*
X277993D01*
X278795Y98545D01*
X278821Y98571D01*
X280988D01*
Y97425D01*
X287910D01*
Y98384D01*
X292307D01*
Y97839D01*
X294536D01*
Y97243D01*
X294488D01*
X293637Y97074D01*
X292916Y96592D01*
X292434Y95871D01*
X292264Y95020D01*
X292434Y94169D01*
X292916Y93447D01*
X293637Y92965D01*
X294488Y92796D01*
X298228D01*
X299079Y92965D01*
X299801Y93447D01*
X300283Y94169D01*
X300452Y95020D01*
X300283Y95871D01*
X299801Y96592D01*
X299079Y97074D01*
X298228Y97243D01*
X298181D01*
Y97839D01*
X300409D01*
Y102201D01*
X292307D01*
Y102029D01*
X287910D01*
Y103362D01*
D02*
G37*
G36*
X46276Y112713D02*
X40339D01*
Y105791D01*
X41485D01*
Y104839D01*
X40339D01*
Y97917D01*
X46276D01*
Y99555D01*
X48228D01*
X48228Y99555D01*
X48794Y99668D01*
X49101Y99393D01*
X49171Y99272D01*
X49000Y98859D01*
Y97991D01*
X49332Y97190D01*
X49946Y96576D01*
X50747Y96244D01*
X51615D01*
X52417Y96576D01*
X52817Y96977D01*
X54116D01*
X54464Y96745D01*
X55315Y96575D01*
X55363D01*
Y93406D01*
X55363Y93405D01*
X55501Y92708D01*
X55896Y92117D01*
X58751Y89263D01*
X58751Y89262D01*
X59342Y88867D01*
X60039Y88729D01*
X60039Y88729D01*
X67898D01*
Y87090D01*
X68642D01*
Y86138D01*
X67898D01*
Y79216D01*
X68642D01*
Y77165D01*
X68685Y76951D01*
Y76731D01*
X68769Y76529D01*
X68812Y76314D01*
X68933Y76132D01*
X69017Y75930D01*
X69172Y75775D01*
X69294Y75593D01*
X69476Y75471D01*
X69631Y75316D01*
X69833Y75232D01*
X70015Y75111D01*
X70230Y75068D01*
X70432Y74984D01*
X70651D01*
X70866Y74941D01*
X71081Y74984D01*
X71300D01*
X71502Y75068D01*
X71717Y75111D01*
X71899Y75232D01*
X72102Y75316D01*
X72256Y75471D01*
X72439Y75593D01*
X72560Y75775D01*
X72715Y75930D01*
X72799Y76132D01*
X72921Y76314D01*
X72963Y76529D01*
X73047Y76731D01*
Y76951D01*
X73090Y77165D01*
Y79216D01*
X73835D01*
Y86138D01*
X73090D01*
Y87090D01*
X73835D01*
Y94012D01*
X67898D01*
Y92374D01*
X60794D01*
X59008Y94160D01*
Y96575D01*
X59055D01*
X59906Y96745D01*
X60628Y97227D01*
X61110Y97948D01*
X61279Y98799D01*
X61110Y99650D01*
X60628Y100372D01*
X59906Y100854D01*
X59055Y101023D01*
X55315D01*
X54464Y100854D01*
X54116Y100622D01*
X51768D01*
X51768Y100622D01*
X51640Y100596D01*
X51615Y100606D01*
X50747D01*
X50737Y100602D01*
X50454Y101026D01*
X51405Y101977D01*
X54116D01*
X54464Y101745D01*
X55315Y101575D01*
X59055D01*
X59906Y101745D01*
X60628Y102227D01*
X61110Y102948D01*
X61279Y103799D01*
X61110Y104650D01*
X60628Y105372D01*
X59906Y105854D01*
X59055Y106023D01*
X55315D01*
X54464Y105854D01*
X54116Y105622D01*
X50650D01*
X50650Y105622D01*
X49952Y105483D01*
X49361Y105088D01*
X49361Y105088D01*
X47473Y103200D01*
X46276D01*
Y104839D01*
X45129D01*
Y105791D01*
X46276D01*
Y112713D01*
D02*
G37*
G36*
X320882Y107480D02*
X317913D01*
X314945D01*
Y104807D01*
X315640D01*
Y102183D01*
X315094Y102074D01*
X314372Y101592D01*
X313890Y100871D01*
X313878Y100807D01*
X317815D01*
X321752D01*
X321740Y100871D01*
X321257Y101592D01*
X320536Y102074D01*
X320088Y102163D01*
Y104807D01*
X320882D01*
Y107480D01*
D02*
G37*
G36*
X321752Y99232D02*
X318602D01*
Y97796D01*
X319685D01*
X320536Y97965D01*
X321257Y98447D01*
X321740Y99169D01*
X321752Y99232D01*
D02*
G37*
G36*
X317028D02*
X313878D01*
X313890Y99169D01*
X314372Y98447D01*
X315094Y97965D01*
X315945Y97796D01*
X317028D01*
Y99232D01*
D02*
G37*
G36*
X332201Y97457D02*
X325279D01*
Y96691D01*
X321109D01*
X320536Y97074D01*
X319685Y97243D01*
X315945D01*
X315094Y97074D01*
X314372Y96592D01*
X313890Y95871D01*
X313721Y95020D01*
X313890Y94169D01*
X314372Y93447D01*
X315094Y92965D01*
X315945Y92796D01*
X315992D01*
Y92243D01*
X315945D01*
X315094Y92074D01*
X314372Y91592D01*
X313890Y90871D01*
X313721Y90020D01*
X313890Y89169D01*
X314372Y88447D01*
X315094Y87965D01*
X315945Y87796D01*
X319685D01*
X320536Y87965D01*
X321257Y88447D01*
X321740Y89169D01*
X321909Y90020D01*
X321740Y90871D01*
X321257Y91592D01*
X320536Y92074D01*
X319685Y92243D01*
X319637D01*
Y92796D01*
X319685D01*
X320536Y92965D01*
X320658Y93047D01*
X325279D01*
Y91520D01*
X332201D01*
Y92666D01*
X334368D01*
X334394Y92639D01*
X335196Y92307D01*
X336064D01*
X336865Y92639D01*
X337479Y93253D01*
X337811Y94054D01*
Y94922D01*
X337479Y95724D01*
X336865Y96337D01*
X336064Y96669D01*
X335196D01*
X334394Y96337D01*
X334368Y96311D01*
X332201D01*
Y97457D01*
D02*
G37*
G36*
X38402Y104839D02*
X32465D01*
Y97917D01*
X33611D01*
Y97325D01*
X33190Y96905D01*
X32858Y96103D01*
Y95235D01*
X33190Y94434D01*
X33804Y93820D01*
X34606Y93488D01*
X35473D01*
X36275Y93820D01*
X36888Y94434D01*
X37220Y95235D01*
Y96100D01*
X37255Y96276D01*
X37255Y96276D01*
Y97917D01*
X38402D01*
Y104839D01*
D02*
G37*
G36*
X97457Y94012D02*
X95276D01*
Y91339D01*
X97457D01*
Y94012D01*
D02*
G37*
G36*
X93701D02*
X91520D01*
Y91339D01*
X93701D01*
Y94012D01*
D02*
G37*
G36*
X313008Y111728D02*
X307071D01*
Y104807D01*
X307816D01*
Y97752D01*
X300766Y90702D01*
X300351Y90828D01*
X300261Y90904D01*
X299801Y91592D01*
X299079Y92074D01*
X298228Y92243D01*
X294488D01*
X293637Y92074D01*
X293290Y91842D01*
X288402D01*
Y93028D01*
X282465D01*
Y86106D01*
X283611D01*
Y85154D01*
X282465D01*
Y78232D01*
X288402D01*
Y85154D01*
X287256D01*
Y86106D01*
X288402D01*
Y88197D01*
X293290D01*
X293637Y87965D01*
X294488Y87796D01*
X296661D01*
X296929Y87296D01*
X296894Y87243D01*
X294488D01*
X293637Y87074D01*
X292916Y86592D01*
X292434Y85871D01*
X292264Y85020D01*
X292434Y84169D01*
X292916Y83447D01*
X293637Y82965D01*
X294085Y82876D01*
Y79190D01*
X294079Y79174D01*
Y78955D01*
X294036Y78740D01*
X294079Y78525D01*
Y78306D01*
X294163Y78104D01*
X294205Y77889D01*
X294327Y77707D01*
X294411Y77505D01*
X294566Y77350D01*
X294687Y77168D01*
X294869Y77046D01*
X295024Y76891D01*
X295227Y76807D01*
X295409Y76686D01*
X295624Y76643D01*
X295826Y76559D01*
X296045D01*
X296260Y76516D01*
X296475Y76559D01*
X296694D01*
X296896Y76643D01*
X297111Y76686D01*
X297293Y76807D01*
X297495Y76891D01*
X297650Y77046D01*
X297832Y77168D01*
X297882Y77217D01*
X297882Y77217D01*
X298003Y77399D01*
X298109Y77505D01*
X298166Y77643D01*
X298364Y77938D01*
X298433Y78287D01*
X298441Y78306D01*
Y78327D01*
X298533Y78789D01*
Y82856D01*
X299079Y82965D01*
X299801Y83447D01*
X311612Y95258D01*
X311612Y95258D01*
X312094Y95980D01*
X312263Y96831D01*
X312263Y96831D01*
Y104807D01*
X313008D01*
Y111728D01*
D02*
G37*
G36*
X536429Y213992D02*
X535224D01*
X534042Y213757D01*
X532929Y213296D01*
X531927Y212626D01*
X531074Y211774D01*
X530405Y210772D01*
X529944Y209659D01*
X529709Y208477D01*
Y207271D01*
X529944Y206089D01*
X530405Y204976D01*
X531074Y203974D01*
X531927Y203122D01*
X532929Y202452D01*
X534042Y201991D01*
X535224Y201756D01*
X536429D01*
X537611Y201991D01*
X538687Y202437D01*
X546796Y194328D01*
Y87437D01*
X544322D01*
Y151594D01*
X544322Y151594D01*
X544184Y152292D01*
X543789Y152883D01*
X543789Y152883D01*
X541264Y155408D01*
X541710Y156483D01*
X541945Y157665D01*
Y158870D01*
X541710Y160052D01*
X541249Y161166D01*
X540579Y162168D01*
X539727Y163020D01*
X538725Y163689D01*
X537611Y164151D01*
X536429Y164386D01*
X535224D01*
X534042Y164151D01*
X532929Y163689D01*
X531927Y163020D01*
X531074Y162168D01*
X530405Y161166D01*
X529944Y160052D01*
X529881Y159739D01*
X529382Y159788D01*
Y162719D01*
X537115Y170453D01*
X537115Y170453D01*
X537510Y171044D01*
X537649Y171742D01*
X537649Y171742D01*
Y177204D01*
X538725Y177649D01*
X539727Y178319D01*
X540579Y179171D01*
X541249Y180173D01*
X541710Y181286D01*
X541945Y182468D01*
Y183674D01*
X541710Y184855D01*
X541249Y185969D01*
X540579Y186971D01*
X539727Y187823D01*
X538725Y188493D01*
X537611Y188954D01*
X536429Y189189D01*
X535224D01*
X534042Y188954D01*
X532929Y188493D01*
X531927Y187823D01*
X531074Y186971D01*
X530405Y185969D01*
X529944Y184855D01*
X529709Y183674D01*
Y182468D01*
X529944Y181286D01*
X530405Y180173D01*
X531074Y179171D01*
X531927Y178319D01*
X532929Y177649D01*
X534004Y177204D01*
Y172497D01*
X526270Y164763D01*
X525875Y164172D01*
X525737Y163474D01*
X525737Y163474D01*
Y143701D01*
X525737Y143701D01*
X525875Y143003D01*
X526270Y142412D01*
X534296Y134387D01*
Y87437D01*
X531822D01*
Y125118D01*
X531822Y125118D01*
X531684Y125815D01*
X531289Y126407D01*
X531289Y126407D01*
X477485Y180211D01*
X477930Y181286D01*
X478165Y182468D01*
Y183674D01*
X477930Y184855D01*
X477469Y185969D01*
X476799Y186971D01*
X475947Y187823D01*
X474945Y188493D01*
X473832Y188954D01*
X472650Y189189D01*
X471445D01*
X470263Y188954D01*
X469149Y188493D01*
X468147Y187823D01*
X467295Y186971D01*
X466625Y185969D01*
X466164Y184855D01*
X465929Y183674D01*
Y182468D01*
X466164Y181286D01*
X466625Y180173D01*
X467295Y179171D01*
X468147Y178319D01*
X469149Y177649D01*
X470263Y177188D01*
X471445Y176953D01*
X472650D01*
X473832Y177188D01*
X474907Y177633D01*
X528178Y124363D01*
Y87437D01*
X525063D01*
Y77563D01*
X527684D01*
X527748Y77478D01*
X527616Y76824D01*
X526969Y76451D01*
X526049Y75531D01*
X525399Y74406D01*
X525063Y73150D01*
Y71850D01*
X525399Y70594D01*
X526049Y69469D01*
X526969Y68549D01*
X528094Y67899D01*
X529350Y67563D01*
X530650D01*
X531906Y67899D01*
X533031Y68549D01*
X533951Y69469D01*
X534601Y70594D01*
X534937Y71850D01*
Y73150D01*
X534778Y73742D01*
X537407Y76371D01*
X537407Y76371D01*
X537802Y76962D01*
X537921Y77563D01*
X540184D01*
X540248Y77478D01*
X540116Y76824D01*
X539469Y76451D01*
X538549Y75531D01*
X537899Y74406D01*
X537563Y73150D01*
Y71850D01*
X537899Y70594D01*
X538549Y69469D01*
X539469Y68549D01*
X540594Y67899D01*
X541850Y67563D01*
X543150D01*
X544406Y67899D01*
X545531Y68549D01*
X546451Y69469D01*
X547101Y70594D01*
X547437Y71850D01*
Y73150D01*
X547278Y73742D01*
X549907Y76371D01*
X549907Y76371D01*
X550302Y76962D01*
X550441Y77660D01*
X550441Y77660D01*
Y195083D01*
X550302Y195780D01*
X549907Y196371D01*
X549907Y196371D01*
X541264Y205014D01*
X541710Y206089D01*
X541945Y207271D01*
Y208477D01*
X541710Y209659D01*
X541249Y210772D01*
X540579Y211774D01*
X539727Y212626D01*
X538725Y213296D01*
X537611Y213757D01*
X536429Y213992D01*
D02*
G37*
G36*
X97457Y89764D02*
X95276D01*
Y87090D01*
X97457D01*
Y89764D01*
D02*
G37*
G36*
X93701D02*
X91520D01*
Y87090D01*
X93701D01*
Y89764D01*
D02*
G37*
G36*
X239862Y153786D02*
X231004D01*
X230100Y153667D01*
X229259Y153318D01*
X228536Y152763D01*
X227981Y152041D01*
X227632Y151199D01*
X227514Y150295D01*
Y145374D01*
X227632Y144471D01*
X227981Y143629D01*
X228536Y142906D01*
X229259Y142351D01*
X230100Y142002D01*
X231004Y141884D01*
X235755D01*
X235780Y141761D01*
X236175Y141169D01*
X267863Y109481D01*
Y97441D01*
X267863Y97441D01*
X268001Y96744D01*
X268396Y96152D01*
X274590Y89958D01*
Y86106D01*
X280528D01*
Y93028D01*
X276676D01*
X271508Y98196D01*
Y110236D01*
X271369Y110934D01*
X270974Y111525D01*
X270974Y111525D01*
X240958Y141541D01*
X241075Y142131D01*
X241607Y142351D01*
X242330Y142906D01*
X242885Y143629D01*
X243234Y144471D01*
X243353Y145374D01*
Y150295D01*
X243234Y151199D01*
X242885Y152041D01*
X242330Y152763D01*
X241607Y153318D01*
X240766Y153667D01*
X239862Y153786D01*
D02*
G37*
G36*
X80512Y101023D02*
X76772D01*
X75921Y100854D01*
X75199Y100372D01*
X74717Y99650D01*
X74548Y98799D01*
X74717Y97948D01*
X75199Y97227D01*
X75921Y96745D01*
X76772Y96575D01*
X76868D01*
Y94012D01*
X75772D01*
Y87090D01*
X76918D01*
Y86138D01*
X75772D01*
Y79216D01*
X81709D01*
Y80855D01*
X83646D01*
Y79216D01*
X89583D01*
Y86138D01*
X88437D01*
Y87090D01*
X89583D01*
Y94012D01*
X83646D01*
Y87090D01*
X84792D01*
Y86138D01*
X83646D01*
Y84500D01*
X81709D01*
Y86138D01*
X80563D01*
Y87090D01*
X81709D01*
Y94012D01*
X80513D01*
Y96576D01*
X81363Y96745D01*
X82084Y97227D01*
X82566Y97948D01*
X82736Y98799D01*
X82566Y99650D01*
X82084Y100372D01*
X81363Y100854D01*
X80512Y101023D01*
D02*
G37*
G36*
X319685Y87243D02*
X315945D01*
X315094Y87074D01*
X314372Y86592D01*
X313890Y85871D01*
X313721Y85020D01*
X313890Y84169D01*
X314372Y83447D01*
X315094Y82965D01*
X315945Y82796D01*
X315992D01*
Y77772D01*
X314453D01*
Y76626D01*
X312516D01*
Y77772D01*
X305594D01*
Y71835D01*
X312516D01*
Y72981D01*
X314453D01*
Y71835D01*
X321374D01*
Y77772D01*
X319637D01*
Y82796D01*
X319685D01*
X320536Y82965D01*
X321257Y83447D01*
X321740Y84169D01*
X321909Y85020D01*
X321740Y85871D01*
X321257Y86592D01*
X320536Y87074D01*
X319685Y87243D01*
D02*
G37*
G36*
X97457Y86138D02*
X91520D01*
Y79216D01*
X92666D01*
Y78166D01*
X92666Y78166D01*
X92804Y77468D01*
X93094Y77034D01*
Y76731D01*
X93427Y75930D01*
X94040Y75316D01*
X94842Y74984D01*
X95709D01*
X96511Y75316D01*
X97125Y75930D01*
X97457Y76731D01*
Y77599D01*
X97125Y78401D01*
X96809Y78716D01*
X97016Y79216D01*
X97457D01*
Y86138D01*
D02*
G37*
G36*
X332201Y89583D02*
X325279D01*
Y83646D01*
X326918D01*
Y77772D01*
X325279D01*
Y71835D01*
X332201D01*
Y72981D01*
X335122D01*
Y71835D01*
X342043D01*
Y77772D01*
X335122D01*
Y76626D01*
X332201D01*
Y77772D01*
X330563D01*
Y83646D01*
X332201D01*
Y89583D01*
D02*
G37*
G36*
X342598Y230011D02*
X336693D01*
X335661Y229875D01*
X334700Y229476D01*
X333874Y228843D01*
X333240Y228017D01*
X332842Y227056D01*
X332706Y226024D01*
Y220118D01*
X332842Y219086D01*
X333240Y218125D01*
X333874Y217299D01*
X334700Y216665D01*
X335661Y216267D01*
X336693Y216131D01*
X342598D01*
X343630Y216267D01*
X344592Y216665D01*
X345418Y217299D01*
X346051Y218125D01*
X346449Y219086D01*
X346585Y220118D01*
Y221248D01*
X354914D01*
X356445Y219718D01*
Y189961D01*
X356445Y189961D01*
X356584Y189263D01*
X356979Y188672D01*
X384004Y161647D01*
Y150361D01*
X360916Y127273D01*
X360521Y126682D01*
X360382Y125984D01*
X360382Y125984D01*
Y73819D01*
X360382Y73819D01*
X360521Y73122D01*
X360916Y72530D01*
X379410Y54037D01*
X379410Y54037D01*
X380001Y53641D01*
X380698Y53503D01*
X388802D01*
X402808Y39497D01*
X402699Y39334D01*
X402179Y38077D01*
X401913Y36743D01*
Y35383D01*
X402179Y34049D01*
X402699Y32792D01*
X403455Y31661D01*
X404417Y30699D01*
X405548Y29943D01*
X406805Y29423D01*
X408139Y29158D01*
X409499D01*
X410833Y29423D01*
X412090Y29943D01*
X413221Y30699D01*
X414183Y31661D01*
X414938Y32792D01*
X415459Y34049D01*
X415724Y35383D01*
Y36743D01*
X415459Y38077D01*
X414938Y39334D01*
X414183Y40465D01*
X413221Y41427D01*
X412090Y42183D01*
X410833Y42703D01*
X410641Y42741D01*
Y61260D01*
X410641Y61260D01*
X410503Y61957D01*
X410108Y62549D01*
X410108Y62549D01*
X406315Y66342D01*
Y67756D01*
X406160Y68530D01*
X405722Y69187D01*
X405065Y69625D01*
X404291Y69779D01*
X402323D01*
X401549Y69625D01*
X400892Y69187D01*
X400454Y68530D01*
X400300Y67756D01*
Y65787D01*
X400454Y65013D01*
X400892Y64357D01*
X401549Y63918D01*
X402323Y63764D01*
X403737D01*
X406996Y60505D01*
Y42741D01*
X406805Y42703D01*
X405548Y42183D01*
X405385Y42074D01*
X390845Y56614D01*
X390254Y57009D01*
X389557Y57148D01*
X389557Y57148D01*
X381453D01*
X368924Y69677D01*
X369174Y70110D01*
X369350Y70063D01*
X370650D01*
X371906Y70399D01*
X373031Y71049D01*
X373951Y71969D01*
X374601Y73094D01*
X374937Y74350D01*
Y75650D01*
X374778Y76242D01*
X377671Y79135D01*
X377671Y79135D01*
X378066Y79726D01*
X378133Y80063D01*
X380184D01*
X380248Y79978D01*
X380116Y79324D01*
X379469Y78951D01*
X378549Y78031D01*
X377899Y76906D01*
X377563Y75650D01*
Y74350D01*
X377899Y73094D01*
X378549Y71969D01*
X379469Y71049D01*
X380594Y70399D01*
X381850Y70063D01*
X383150D01*
X384406Y70399D01*
X385531Y71049D01*
X386451Y71969D01*
X387101Y73094D01*
X387437Y74350D01*
Y75650D01*
X387278Y76242D01*
X450107Y139072D01*
X450503Y139663D01*
X450641Y140360D01*
X450641Y140360D01*
Y188976D01*
X450641Y188976D01*
X450503Y189674D01*
X450107Y190265D01*
X441192Y199180D01*
Y202007D01*
X442268Y202452D01*
X443270Y203122D01*
X444122Y203974D01*
X444792Y204976D01*
X445253Y206089D01*
X445488Y207271D01*
Y208477D01*
X445253Y209659D01*
X444792Y210772D01*
X444122Y211774D01*
X443270Y212626D01*
X442268Y213296D01*
X441155Y213757D01*
X439973Y213992D01*
X438767D01*
X437585Y213757D01*
X436472Y213296D01*
X435470Y212626D01*
X434618Y211774D01*
X433948Y210772D01*
X433487Y209659D01*
X433252Y208477D01*
Y207271D01*
X433487Y206089D01*
X433948Y204976D01*
X434618Y203974D01*
X435470Y203122D01*
X436472Y202452D01*
X437548Y202007D01*
Y198425D01*
X437548Y198425D01*
X437686Y197728D01*
X438081Y197137D01*
X446996Y188222D01*
Y141115D01*
X387899Y82018D01*
X387437Y82209D01*
Y87360D01*
X440659Y140581D01*
X440659Y140581D01*
X441054Y141173D01*
X441192Y141870D01*
X441192Y141870D01*
Y152400D01*
X442268Y152846D01*
X443270Y153516D01*
X444122Y154368D01*
X444792Y155370D01*
X445253Y156483D01*
X445488Y157665D01*
Y158870D01*
X445253Y160052D01*
X444792Y161166D01*
X444122Y162168D01*
X443270Y163020D01*
X442268Y163689D01*
X441155Y164151D01*
X439973Y164386D01*
X438767D01*
X437585Y164151D01*
X436472Y163689D01*
X435470Y163020D01*
X434618Y162168D01*
X433948Y161166D01*
X433487Y160052D01*
X433252Y158870D01*
Y157665D01*
X433487Y156483D01*
X433948Y155370D01*
X434618Y154368D01*
X435470Y153516D01*
X436472Y152846D01*
X437548Y152400D01*
Y142625D01*
X384860Y89937D01*
X378204D01*
Y119328D01*
X436510Y177633D01*
X437585Y177188D01*
X438767Y176953D01*
X439973D01*
X441155Y177188D01*
X442268Y177649D01*
X443270Y178319D01*
X444122Y179171D01*
X444792Y180173D01*
X445253Y181286D01*
X445488Y182468D01*
Y183674D01*
X445253Y184855D01*
X444792Y185969D01*
X444122Y186971D01*
X443270Y187823D01*
X442268Y188493D01*
X441155Y188954D01*
X439973Y189189D01*
X438767D01*
X437585Y188954D01*
X436472Y188493D01*
X435470Y187823D01*
X434618Y186971D01*
X433948Y185969D01*
X433487Y184855D01*
X433252Y183674D01*
Y182468D01*
X433487Y181286D01*
X433933Y180211D01*
X375093Y121371D01*
X374698Y120780D01*
X374559Y120083D01*
X374559Y120083D01*
Y89937D01*
X371822D01*
Y92124D01*
X371901Y92520D01*
X371901Y92520D01*
Y125229D01*
X393021Y146349D01*
X393416Y146940D01*
X393555Y147638D01*
X393555Y147638D01*
Y170275D01*
X393555Y170276D01*
X393416Y170973D01*
X393021Y171564D01*
X393021Y171564D01*
X381883Y182702D01*
X381709Y182819D01*
Y183674D01*
X381473Y184855D01*
X381012Y185969D01*
X380343Y186971D01*
X379491Y187823D01*
X378489Y188493D01*
X377375Y188954D01*
X376193Y189189D01*
X374988D01*
X373806Y188954D01*
X372692Y188493D01*
X371691Y187823D01*
X370838Y186971D01*
X370169Y185969D01*
X369708Y184855D01*
X369472Y183674D01*
Y182468D01*
X369579Y181934D01*
X369118Y181688D01*
X360090Y190716D01*
Y220472D01*
X360090Y220472D01*
X359951Y221170D01*
X359556Y221761D01*
X359556Y221761D01*
X356958Y224359D01*
X356367Y224755D01*
X355669Y224893D01*
X355669Y224893D01*
X346585D01*
Y226024D01*
X346449Y227056D01*
X346051Y228017D01*
X345418Y228843D01*
X344592Y229476D01*
X343630Y229875D01*
X342598Y230011D01*
D02*
G37*
G36*
X82579Y113012D02*
X78642D01*
X74704D01*
X74717Y112948D01*
X75199Y112227D01*
X75921Y111745D01*
X76207Y111688D01*
X76453Y111129D01*
X76336Y110936D01*
X75921Y110854D01*
X75199Y110372D01*
X74717Y109650D01*
X74548Y108799D01*
X74717Y107948D01*
X75199Y107227D01*
X75921Y106745D01*
X76418Y106646D01*
Y105953D01*
X75921Y105854D01*
X75199Y105372D01*
X74717Y104650D01*
X74548Y103799D01*
X74717Y102948D01*
X75199Y102227D01*
X75921Y101745D01*
X76772Y101575D01*
X80512D01*
X81363Y101745D01*
X82084Y102227D01*
X82566Y102948D01*
X82736Y103799D01*
X82566Y104650D01*
X82129Y105305D01*
X82267Y105805D01*
X95866D01*
X104486Y97185D01*
Y70866D01*
Y-20079D01*
X104588Y-20854D01*
X104887Y-21576D01*
X105363Y-22196D01*
X142784Y-59617D01*
X143404Y-60093D01*
X143704Y-60217D01*
X144127Y-60392D01*
X144902Y-60494D01*
X162563D01*
Y-62437D01*
X172437D01*
Y-59816D01*
X172522Y-59752D01*
X173176Y-59884D01*
X173549Y-60531D01*
X174469Y-61451D01*
X174506Y-61472D01*
Y-71595D01*
X174608Y-72369D01*
X174907Y-73092D01*
X175383Y-73712D01*
X175442Y-73771D01*
X176062Y-74247D01*
X176784Y-74546D01*
X177559Y-74648D01*
X178334Y-74546D01*
X179056Y-74247D01*
X179676Y-73771D01*
X180152Y-73151D01*
X180451Y-72429D01*
X180553Y-71653D01*
X180494Y-71205D01*
Y-61472D01*
X180531Y-61451D01*
X181451Y-60531D01*
X182101Y-59406D01*
X182437Y-58150D01*
Y-56850D01*
X182101Y-55594D01*
X181451Y-54469D01*
X180531Y-53549D01*
X179406Y-52899D01*
X178150Y-52563D01*
X176850D01*
X175594Y-52899D01*
X174469Y-53549D01*
X173549Y-54469D01*
X173176Y-55116D01*
X172522Y-55248D01*
X172437Y-55184D01*
Y-52563D01*
X170317D01*
Y-41594D01*
X173484Y-38427D01*
X375728D01*
X378896Y-41594D01*
Y-63720D01*
X376713Y-65904D01*
X363546D01*
X362994Y-65351D01*
Y-62437D01*
X364937D01*
Y-59816D01*
X365022Y-59752D01*
X365676Y-59884D01*
X366049Y-60531D01*
X366969Y-61451D01*
X368094Y-62101D01*
X369350Y-62437D01*
X370650D01*
X371906Y-62101D01*
X373031Y-61451D01*
X373951Y-60531D01*
X374601Y-59406D01*
X374937Y-58150D01*
Y-56850D01*
X374601Y-55594D01*
X373951Y-54469D01*
X373031Y-53549D01*
X371906Y-52899D01*
X370650Y-52563D01*
X369350D01*
X368094Y-52899D01*
X366969Y-53549D01*
X366049Y-54469D01*
X365676Y-55116D01*
X365022Y-55248D01*
X364937Y-55184D01*
Y-52563D01*
X358226D01*
X358032Y-52537D01*
X357837Y-52563D01*
X355063D01*
Y-55337D01*
X355037Y-55532D01*
X355063Y-55726D01*
Y-62437D01*
X357006D01*
Y-66591D01*
X357108Y-67366D01*
X357407Y-68089D01*
X357883Y-68709D01*
X360189Y-71015D01*
X360809Y-71491D01*
X361108Y-71614D01*
X361531Y-71790D01*
X362306Y-71892D01*
X377953D01*
X378728Y-71790D01*
X379450Y-71491D01*
X380070Y-71015D01*
X384007Y-67078D01*
X384483Y-66458D01*
X384782Y-65736D01*
X384884Y-64961D01*
Y-40354D01*
X384782Y-39579D01*
X384607Y-39156D01*
X384483Y-38857D01*
X384007Y-38237D01*
X379086Y-33316D01*
X378466Y-32840D01*
X377743Y-32541D01*
X376969Y-32439D01*
X172244D01*
X171469Y-32541D01*
X171046Y-32716D01*
X170747Y-32840D01*
X170127Y-33316D01*
X165206Y-38237D01*
X164730Y-38857D01*
X164431Y-39579D01*
X164329Y-40354D01*
Y-52563D01*
X162563D01*
Y-54506D01*
X146142D01*
X110474Y-18838D01*
Y63601D01*
X110974Y63993D01*
X111417Y63935D01*
X309055D01*
X309250Y63961D01*
X312516D01*
Y69898D01*
X309250D01*
X309055Y69923D01*
X280888D01*
X280495Y70423D01*
X280553Y70866D01*
Y81693D01*
X280528Y81888D01*
Y85154D01*
X274590D01*
Y81888D01*
X274565Y81693D01*
Y72106D01*
X272382Y69923D01*
X112657D01*
X110474Y72106D01*
Y98425D01*
X110372Y99200D01*
X110197Y99623D01*
X110073Y99922D01*
X109598Y100542D01*
X99224Y110916D01*
X98603Y111392D01*
X97881Y111691D01*
X97106Y111793D01*
X82267D01*
X82129Y112293D01*
X82566Y112948D01*
X82579Y113012D01*
D02*
G37*
G36*
X332201Y69898D02*
X325279D01*
Y63961D01*
X326918D01*
Y56380D01*
X326891Y56354D01*
X326559Y55552D01*
Y54684D01*
X326891Y53883D01*
X327505Y53269D01*
X328306Y52937D01*
X329174D01*
X329976Y53269D01*
X330589Y53883D01*
X330921Y54684D01*
Y55552D01*
X330589Y56354D01*
X330563Y56380D01*
Y63961D01*
X332201D01*
Y69898D01*
D02*
G37*
G36*
X530685Y42968D02*
X516874D01*
Y29158D01*
X530685D01*
Y42968D01*
D02*
G37*
G36*
X500748Y69779D02*
X498779D01*
X498005Y69625D01*
X497349Y69187D01*
X496910Y68530D01*
X496756Y67756D01*
Y65787D01*
X496910Y65013D01*
X497349Y64357D01*
X497941Y63961D01*
Y43914D01*
X497941Y43914D01*
X498080Y43216D01*
X498475Y42625D01*
X500274Y40827D01*
X499912Y40465D01*
X499156Y39334D01*
X498635Y38077D01*
X498370Y36743D01*
Y35383D01*
X498635Y34049D01*
X499156Y32792D01*
X499912Y31661D01*
X500874Y30699D01*
X502005Y29943D01*
X503261Y29423D01*
X504596Y29158D01*
X505956D01*
X507290Y29423D01*
X508547Y29943D01*
X509678Y30699D01*
X510639Y31661D01*
X511395Y32792D01*
X511916Y34049D01*
X512181Y35383D01*
Y36743D01*
X511916Y38077D01*
X511395Y39334D01*
X510639Y40465D01*
X509678Y41427D01*
X508547Y42183D01*
X507290Y42703D01*
X505956Y42968D01*
X504596D01*
X503504Y42751D01*
X501586Y44669D01*
Y63961D01*
X502179Y64357D01*
X502617Y65013D01*
X502771Y65787D01*
Y67756D01*
X502617Y68530D01*
X502179Y69187D01*
X501522Y69625D01*
X500748Y69779D01*
D02*
G37*
G36*
X487452Y42968D02*
X486092D01*
X484757Y42703D01*
X483501Y42183D01*
X482370Y41427D01*
X481408Y40465D01*
X480652Y39334D01*
X480131Y38077D01*
X479866Y36743D01*
Y35383D01*
X480131Y34049D01*
X480652Y32792D01*
X481408Y31661D01*
X482370Y30699D01*
X483501Y29943D01*
X484757Y29423D01*
X486092Y29158D01*
X487452D01*
X488786Y29423D01*
X490043Y29943D01*
X491174Y30699D01*
X492135Y31661D01*
X492891Y32792D01*
X493412Y34049D01*
X493677Y35383D01*
Y36743D01*
X493412Y38077D01*
X492891Y39334D01*
X492135Y40465D01*
X491174Y41427D01*
X490043Y42183D01*
X488786Y42703D01*
X487452Y42968D01*
D02*
G37*
G36*
X342043Y69898D02*
X335122D01*
Y63961D01*
X342043D01*
Y65107D01*
X358694D01*
X384304Y39497D01*
X384195Y39334D01*
X383675Y38077D01*
X383410Y36743D01*
Y35383D01*
X383675Y34049D01*
X384195Y32792D01*
X384951Y31661D01*
X385913Y30699D01*
X387044Y29943D01*
X388301Y29423D01*
X389635Y29158D01*
X390995D01*
X392329Y29423D01*
X393586Y29943D01*
X394717Y30699D01*
X395679Y31661D01*
X396434Y32792D01*
X396955Y34049D01*
X397220Y35383D01*
Y36743D01*
X396955Y38077D01*
X396434Y39334D01*
X395679Y40465D01*
X394717Y41427D01*
X393586Y42183D01*
X392329Y42703D01*
X390995Y42968D01*
X389635D01*
X388301Y42703D01*
X387044Y42183D01*
X386881Y42074D01*
X360737Y68218D01*
X360146Y68613D01*
X359449Y68752D01*
X359449Y68752D01*
X342043D01*
Y69898D01*
D02*
G37*
G36*
X230449Y35449D02*
X216638D01*
Y23606D01*
X230449D01*
Y35449D01*
D02*
G37*
G36*
X193047D02*
X179236D01*
Y23606D01*
X193047D01*
Y35449D01*
D02*
G37*
G36*
X165449D02*
X151638D01*
Y23606D01*
X165449D01*
Y35449D01*
D02*
G37*
G36*
X128047D02*
X114236D01*
Y23606D01*
X128047D01*
Y35449D01*
D02*
G37*
G36*
X100449D02*
X86638D01*
Y23606D01*
X100449D01*
Y35449D01*
D02*
G37*
G36*
X63047D02*
X49236D01*
Y23606D01*
X63047D01*
Y35449D01*
D02*
G37*
G36*
X35449D02*
X21638D01*
Y23606D01*
X35449D01*
Y35449D01*
D02*
G37*
G36*
X-1953D02*
X-15764D01*
Y23606D01*
X-1953D01*
Y35449D01*
D02*
G37*
G36*
X321374Y69898D02*
X314453D01*
Y63961D01*
X316091D01*
Y56102D01*
X316091Y56102D01*
X316230Y55405D01*
X316625Y54814D01*
X324499Y46940D01*
X324499Y46940D01*
X325090Y46545D01*
X325787Y46406D01*
X325787Y46406D01*
X352592D01*
X376664Y22333D01*
X376664Y22333D01*
X377255Y21938D01*
X377953Y21800D01*
X421021D01*
X421021Y21800D01*
X421719Y21938D01*
X422310Y22333D01*
X427406Y27429D01*
X427801Y28020D01*
X427939Y28718D01*
X428097Y29158D01*
X434228D01*
Y42968D01*
X420417D01*
Y29158D01*
X423326D01*
X423517Y28695D01*
X420266Y25444D01*
X378708D01*
X354635Y49517D01*
X354044Y49912D01*
X353346Y50051D01*
X353346Y50051D01*
X326542D01*
X319736Y56857D01*
Y63961D01*
X321374D01*
Y69898D01*
D02*
G37*
G36*
X436024Y6944D02*
X434055D01*
X433281Y6790D01*
X432625Y6352D01*
X432229Y5759D01*
X422522D01*
X422495Y5786D01*
X421694Y6118D01*
X420826D01*
X420024Y5786D01*
X419411Y5173D01*
X419079Y4371D01*
Y3503D01*
X419411Y2702D01*
X420024Y2088D01*
X420826Y1756D01*
X421694D01*
X422495Y2088D01*
X422522Y2115D01*
X432229D01*
X432625Y1522D01*
X433281Y1084D01*
X434055Y930D01*
X436024D01*
X436798Y1084D01*
X437454Y1522D01*
X437893Y2179D01*
X438047Y2953D01*
Y4921D01*
X437893Y5695D01*
X437454Y6352D01*
X436798Y6790D01*
X436024Y6944D01*
D02*
G37*
G36*
X215335Y4937D02*
X214035D01*
X212779Y4601D01*
X211654Y3951D01*
X210735Y3031D01*
X210085Y1906D01*
X210014Y1642D01*
X209514D01*
X209443Y1906D01*
X208793Y3031D01*
X207874Y3951D01*
X206748Y4601D01*
X205492Y4937D01*
X204193D01*
X202937Y4601D01*
X201811Y3951D01*
X200892Y3031D01*
X200242Y1906D01*
X200171Y1642D01*
X199671D01*
X199601Y1906D01*
X198951Y3031D01*
X198031Y3951D01*
X196906Y4601D01*
X195650Y4937D01*
X194350D01*
X193094Y4601D01*
X191969Y3951D01*
X191049Y3031D01*
X190399Y1906D01*
X190063Y650D01*
Y-650D01*
X190399Y-1906D01*
X191049Y-3031D01*
X191969Y-3951D01*
X192776Y-4417D01*
Y-15063D01*
X190063D01*
Y-24937D01*
X199937D01*
Y-22316D01*
X200022Y-22252D01*
X200676Y-22384D01*
X201049Y-23031D01*
X201969Y-23951D01*
X203094Y-24601D01*
X204350Y-24937D01*
X205650D01*
X206906Y-24601D01*
X208031Y-23951D01*
X208951Y-23031D01*
X209601Y-21906D01*
X209741Y-21381D01*
X210259D01*
X210399Y-21906D01*
X211049Y-23031D01*
X211969Y-23951D01*
X213094Y-24601D01*
X214350Y-24937D01*
X215650D01*
X216906Y-24601D01*
X218031Y-23951D01*
X218951Y-23031D01*
X219601Y-21906D01*
X219937Y-20650D01*
Y-19350D01*
X219601Y-18094D01*
X218951Y-16969D01*
X218031Y-16049D01*
X217066Y-15492D01*
Y-4326D01*
X217716Y-3951D01*
X218636Y-3031D01*
X219286Y-1906D01*
X219622Y-650D01*
Y650D01*
X219286Y1906D01*
X218636Y3031D01*
X217716Y3951D01*
X216591Y4601D01*
X215335Y4937D01*
D02*
G37*
G36*
X150335D02*
X149035D01*
X147779Y4601D01*
X146654Y3951D01*
X145734Y3031D01*
X145085Y1906D01*
X145014Y1642D01*
X144514D01*
X144443Y1906D01*
X143793Y3031D01*
X142874Y3951D01*
X141748Y4601D01*
X140492Y4937D01*
X139193D01*
X137937Y4601D01*
X136811Y3951D01*
X135892Y3031D01*
X135242Y1906D01*
X135171Y1642D01*
X134671D01*
X134601Y1906D01*
X133951Y3031D01*
X133031Y3951D01*
X131906Y4601D01*
X130650Y4937D01*
X129350D01*
X128094Y4601D01*
X126969Y3951D01*
X126049Y3031D01*
X125399Y1906D01*
X125063Y650D01*
Y-650D01*
X125399Y-1906D01*
X126049Y-3031D01*
X126969Y-3951D01*
X127776Y-4417D01*
Y-15063D01*
X125063D01*
Y-24937D01*
X134937D01*
Y-22316D01*
X135022Y-22252D01*
X135676Y-22384D01*
X136049Y-23031D01*
X136969Y-23951D01*
X138094Y-24601D01*
X139350Y-24937D01*
X140650D01*
X141906Y-24601D01*
X143031Y-23951D01*
X143951Y-23031D01*
X144601Y-21906D01*
X144741Y-21381D01*
X145259D01*
X145399Y-21906D01*
X146049Y-23031D01*
X146969Y-23951D01*
X148094Y-24601D01*
X149350Y-24937D01*
X150650D01*
X151906Y-24601D01*
X153031Y-23951D01*
X153951Y-23031D01*
X154601Y-21906D01*
X154937Y-20650D01*
Y-19350D01*
X154601Y-18094D01*
X153951Y-16969D01*
X153031Y-16049D01*
X152066Y-15492D01*
Y-4326D01*
X152716Y-3951D01*
X153636Y-3031D01*
X154286Y-1906D01*
X154622Y-650D01*
Y650D01*
X154286Y1906D01*
X153636Y3031D01*
X152716Y3951D01*
X151591Y4601D01*
X150335Y4937D01*
D02*
G37*
G36*
X85335D02*
X84035D01*
X82779Y4601D01*
X81654Y3951D01*
X80734Y3031D01*
X80085Y1906D01*
X80014Y1642D01*
X79514D01*
X79443Y1906D01*
X78793Y3031D01*
X77874Y3951D01*
X76748Y4601D01*
X75493Y4937D01*
X74193D01*
X72937Y4601D01*
X71811Y3951D01*
X70892Y3031D01*
X70242Y1906D01*
X70171Y1642D01*
X69671D01*
X69601Y1906D01*
X68951Y3031D01*
X68031Y3951D01*
X66906Y4601D01*
X65650Y4937D01*
X64350D01*
X63094Y4601D01*
X61969Y3951D01*
X61049Y3031D01*
X60399Y1906D01*
X60063Y650D01*
Y-650D01*
X60399Y-1906D01*
X61049Y-3031D01*
X61969Y-3951D01*
X62776Y-4417D01*
Y-15063D01*
X60063D01*
Y-24937D01*
X69937D01*
Y-22316D01*
X70022Y-22252D01*
X70676Y-22384D01*
X71049Y-23031D01*
X71969Y-23951D01*
X73094Y-24601D01*
X74350Y-24937D01*
X75650D01*
X76906Y-24601D01*
X78031Y-23951D01*
X78951Y-23031D01*
X79601Y-21906D01*
X79741Y-21381D01*
X80259D01*
X80399Y-21906D01*
X81049Y-23031D01*
X81969Y-23951D01*
X83094Y-24601D01*
X84350Y-24937D01*
X85650D01*
X86906Y-24601D01*
X88031Y-23951D01*
X88951Y-23031D01*
X89601Y-21906D01*
X89937Y-20650D01*
Y-19350D01*
X89601Y-18094D01*
X88951Y-16969D01*
X88031Y-16049D01*
X87066Y-15492D01*
Y-4326D01*
X87716Y-3951D01*
X88636Y-3031D01*
X89286Y-1906D01*
X89622Y-650D01*
Y650D01*
X89286Y1906D01*
X88636Y3031D01*
X87716Y3951D01*
X86591Y4601D01*
X85335Y4937D01*
D02*
G37*
G36*
X20335D02*
X19035D01*
X17779Y4601D01*
X16654Y3951D01*
X15734Y3031D01*
X15085Y1906D01*
X15014Y1642D01*
X14514D01*
X14443Y1906D01*
X13793Y3031D01*
X12874Y3951D01*
X11748Y4601D01*
X10492Y4937D01*
X9193D01*
X7937Y4601D01*
X6811Y3951D01*
X5892Y3031D01*
X5242Y1906D01*
X5171Y1642D01*
X4671D01*
X4601Y1906D01*
X3951Y3031D01*
X3031Y3951D01*
X1906Y4601D01*
X650Y4937D01*
X-650D01*
X-1906Y4601D01*
X-3031Y3951D01*
X-3951Y3031D01*
X-4601Y1906D01*
X-4937Y650D01*
Y-650D01*
X-4601Y-1906D01*
X-3951Y-3031D01*
X-3031Y-3951D01*
X-2224Y-4417D01*
Y-15063D01*
X-4937D01*
Y-24937D01*
X4937D01*
Y-22316D01*
X5022Y-22252D01*
X5676Y-22384D01*
X6049Y-23031D01*
X6969Y-23951D01*
X8094Y-24601D01*
X9350Y-24937D01*
X10650D01*
X11906Y-24601D01*
X13031Y-23951D01*
X13951Y-23031D01*
X14601Y-21906D01*
X14741Y-21381D01*
X15259D01*
X15399Y-21906D01*
X16049Y-23031D01*
X16969Y-23951D01*
X18094Y-24601D01*
X19350Y-24937D01*
X20650D01*
X21906Y-24601D01*
X23031Y-23951D01*
X23951Y-23031D01*
X24601Y-21906D01*
X24937Y-20650D01*
Y-19350D01*
X24601Y-18094D01*
X23951Y-16969D01*
X23031Y-16049D01*
X22066Y-15492D01*
Y-4326D01*
X22716Y-3951D01*
X23636Y-3031D01*
X24286Y-1906D01*
X24622Y-650D01*
Y650D01*
X24286Y1906D01*
X23636Y3031D01*
X22716Y3951D01*
X21591Y4601D01*
X20335Y4937D01*
D02*
G37*
G36*
X354184Y31905D02*
X352824D01*
X351490Y31640D01*
X350233Y31120D01*
X349102Y30364D01*
X348140Y29402D01*
X347384Y28271D01*
X346864Y27014D01*
X346598Y25680D01*
Y24320D01*
X346864Y22986D01*
X347384Y21729D01*
X348140Y20598D01*
X349102Y19636D01*
X350233Y18880D01*
X351280Y18447D01*
Y-10575D01*
X346792Y-15063D01*
X340063D01*
Y-17684D01*
X339978Y-17748D01*
X339324Y-17616D01*
X338951Y-16969D01*
X338031Y-16049D01*
X337224Y-15583D01*
Y18447D01*
X338271Y18880D01*
X339402Y19636D01*
X340364Y20598D01*
X341120Y21729D01*
X341640Y22986D01*
X341905Y24320D01*
Y25680D01*
X341640Y27014D01*
X341120Y28271D01*
X340364Y29402D01*
X339402Y30364D01*
X338271Y31120D01*
X337014Y31640D01*
X335680Y31905D01*
X334320D01*
X332986Y31640D01*
X331729Y31120D01*
X330598Y30364D01*
X329636Y29402D01*
X328880Y28271D01*
X328360Y27014D01*
X328095Y25680D01*
Y24320D01*
X328360Y22986D01*
X328880Y21729D01*
X329636Y20598D01*
X330598Y19636D01*
X331729Y18880D01*
X332776Y18447D01*
Y-15583D01*
X331969Y-16049D01*
X331049Y-16969D01*
X330399Y-18094D01*
X330259Y-18619D01*
X329741D01*
X329601Y-18094D01*
X328951Y-16969D01*
X328031Y-16049D01*
X326906Y-15399D01*
X325650Y-15063D01*
X324350D01*
X323449Y-15304D01*
X318720Y-10575D01*
Y18094D01*
X323402D01*
Y31905D01*
X309591D01*
Y18094D01*
X314272D01*
Y-11496D01*
X314272Y-11496D01*
X314441Y-12347D01*
X314924Y-13069D01*
X320304Y-18449D01*
X320063Y-19350D01*
Y-20650D01*
X320399Y-21906D01*
X321049Y-23031D01*
X321969Y-23951D01*
X323094Y-24601D01*
X324350Y-24937D01*
X325650D01*
X326906Y-24601D01*
X328031Y-23951D01*
X328951Y-23031D01*
X329601Y-21906D01*
X329741Y-21381D01*
X330259D01*
X330399Y-21906D01*
X331049Y-23031D01*
X331969Y-23951D01*
X333094Y-24601D01*
X334350Y-24937D01*
X335650D01*
X336906Y-24601D01*
X338031Y-23951D01*
X338951Y-23031D01*
X339324Y-22384D01*
X339978Y-22252D01*
X340063Y-22316D01*
Y-24937D01*
X349937D01*
Y-18208D01*
X355076Y-13069D01*
X355076Y-13069D01*
X355558Y-12347D01*
X355728Y-11496D01*
X355728Y-11496D01*
Y18447D01*
X356775Y18880D01*
X357906Y19636D01*
X358868Y20598D01*
X359624Y21729D01*
X360144Y22986D01*
X360409Y24320D01*
Y25680D01*
X360144Y27014D01*
X359624Y28271D01*
X358868Y29402D01*
X357906Y30364D01*
X356775Y31120D01*
X355518Y31640D01*
X354184Y31905D01*
D02*
G37*
G36*
X289184D02*
X287824D01*
X286490Y31640D01*
X285233Y31120D01*
X284102Y30364D01*
X283140Y29402D01*
X282384Y28271D01*
X281864Y27014D01*
X281598Y25680D01*
Y24320D01*
X281864Y22986D01*
X282384Y21729D01*
X283140Y20598D01*
X284102Y19636D01*
X285233Y18880D01*
X286280Y18447D01*
Y-10575D01*
X281792Y-15063D01*
X275063D01*
Y-17684D01*
X274978Y-17748D01*
X274324Y-17616D01*
X273951Y-16969D01*
X273031Y-16049D01*
X272224Y-15583D01*
Y18447D01*
X273271Y18880D01*
X274402Y19636D01*
X275364Y20598D01*
X276120Y21729D01*
X276640Y22986D01*
X276905Y24320D01*
Y25680D01*
X276640Y27014D01*
X276120Y28271D01*
X275364Y29402D01*
X274402Y30364D01*
X273271Y31120D01*
X272014Y31640D01*
X270680Y31905D01*
X269320D01*
X267986Y31640D01*
X266729Y31120D01*
X265598Y30364D01*
X264636Y29402D01*
X263880Y28271D01*
X263360Y27014D01*
X263094Y25680D01*
Y24320D01*
X263360Y22986D01*
X263880Y21729D01*
X264636Y20598D01*
X265598Y19636D01*
X266729Y18880D01*
X267776Y18447D01*
Y-15583D01*
X266969Y-16049D01*
X266049Y-16969D01*
X265399Y-18094D01*
X265259Y-18619D01*
X264741D01*
X264601Y-18094D01*
X263951Y-16969D01*
X263031Y-16049D01*
X261906Y-15399D01*
X260650Y-15063D01*
X259350D01*
X258449Y-15304D01*
X253720Y-10575D01*
Y18094D01*
X258402D01*
Y31905D01*
X244590D01*
Y18094D01*
X249272D01*
Y-11496D01*
X249272Y-11496D01*
X249442Y-12347D01*
X249924Y-13069D01*
X255304Y-18449D01*
X255063Y-19350D01*
Y-20650D01*
X255399Y-21906D01*
X256049Y-23031D01*
X256969Y-23951D01*
X258094Y-24601D01*
X259350Y-24937D01*
X260650D01*
X261906Y-24601D01*
X263031Y-23951D01*
X263951Y-23031D01*
X264601Y-21906D01*
X264741Y-21381D01*
X265259D01*
X265399Y-21906D01*
X266049Y-23031D01*
X266969Y-23951D01*
X268094Y-24601D01*
X269350Y-24937D01*
X270650D01*
X271906Y-24601D01*
X273031Y-23951D01*
X273951Y-23031D01*
X274324Y-22384D01*
X274978Y-22252D01*
X275063Y-22316D01*
Y-24937D01*
X284937D01*
Y-18208D01*
X290076Y-13069D01*
X290076Y-13069D01*
X290559Y-12347D01*
X290728Y-11496D01*
X290728Y-11496D01*
Y18447D01*
X291775Y18880D01*
X292906Y19636D01*
X293868Y20598D01*
X294623Y21729D01*
X295144Y22986D01*
X295409Y24320D01*
Y25680D01*
X295144Y27014D01*
X294623Y28271D01*
X293868Y29402D01*
X292906Y30364D01*
X291775Y31120D01*
X290518Y31640D01*
X289184Y31905D01*
D02*
G37*
G36*
X526024Y-35221D02*
X525157D01*
X524355Y-35552D01*
X523741Y-36166D01*
X523410Y-36968D01*
Y-37835D01*
X523741Y-38637D01*
X523768Y-38664D01*
Y-42465D01*
X523176Y-42861D01*
X522737Y-43517D01*
X522583Y-44291D01*
Y-46260D01*
X522737Y-47034D01*
X523176Y-47690D01*
X523832Y-48129D01*
X524606Y-48283D01*
X526575D01*
X527349Y-48129D01*
X528005Y-47690D01*
X528444Y-47034D01*
X528598Y-46260D01*
Y-44291D01*
X528444Y-43517D01*
X528005Y-42861D01*
X527413Y-42465D01*
Y-38664D01*
X527440Y-38637D01*
X527772Y-37835D01*
Y-36968D01*
X527440Y-36166D01*
X526826Y-35552D01*
X526024Y-35221D01*
D02*
G37*
G36*
X308150Y-52563D02*
X306850D01*
X305594Y-52899D01*
X304469Y-53549D01*
X303549Y-54469D01*
X303176Y-55116D01*
X302522Y-55248D01*
X302437Y-55184D01*
Y-52563D01*
X298287D01*
Y-57500D01*
Y-62437D01*
X302437D01*
Y-59816D01*
X302522Y-59752D01*
X303176Y-59884D01*
X303549Y-60531D01*
X304469Y-61451D01*
X304506Y-61472D01*
Y-72291D01*
X304486Y-72441D01*
X304588Y-73216D01*
X304887Y-73938D01*
X305363Y-74558D01*
X305983Y-75034D01*
X306705Y-75333D01*
X307480Y-75435D01*
X308255Y-75333D01*
X308977Y-75034D01*
X309597Y-74558D01*
X309617Y-74538D01*
X310093Y-73918D01*
X310392Y-73196D01*
X310494Y-72421D01*
Y-61472D01*
X310531Y-61451D01*
X311451Y-60531D01*
X312101Y-59406D01*
X312437Y-58150D01*
Y-56850D01*
X312101Y-55594D01*
X311451Y-54469D01*
X310531Y-53549D01*
X309406Y-52899D01*
X308150Y-52563D01*
D02*
G37*
G36*
X113150D02*
X111850D01*
X110594Y-52899D01*
X109469Y-53549D01*
X108549Y-54469D01*
X108176Y-55116D01*
X107522Y-55248D01*
X107437Y-55184D01*
Y-52563D01*
X103287D01*
Y-57500D01*
Y-62437D01*
X107437D01*
Y-59816D01*
X107522Y-59752D01*
X108176Y-59884D01*
X108549Y-60531D01*
X109469Y-61451D01*
X110594Y-62101D01*
X111850Y-62437D01*
X113150D01*
X114406Y-62101D01*
X115531Y-61451D01*
X116451Y-60531D01*
X117101Y-59406D01*
X117437Y-58150D01*
Y-56850D01*
X117101Y-55594D01*
X116451Y-54469D01*
X115531Y-53549D01*
X114406Y-52899D01*
X113150Y-52563D01*
D02*
G37*
G36*
X48150D02*
X46850D01*
X45594Y-52899D01*
X44469Y-53549D01*
X43549Y-54469D01*
X43176Y-55116D01*
X42522Y-55248D01*
X42437Y-55184D01*
Y-52563D01*
X32563D01*
Y-62437D01*
X42437D01*
Y-59816D01*
X42522Y-59752D01*
X43176Y-59884D01*
X43549Y-60531D01*
X44469Y-61451D01*
X45594Y-62101D01*
X46850Y-62437D01*
X48150D01*
X49406Y-62101D01*
X50531Y-61451D01*
X51451Y-60531D01*
X52101Y-59406D01*
X52437Y-58150D01*
Y-56850D01*
X52101Y-55594D01*
X51451Y-54469D01*
X50531Y-53549D01*
X49406Y-52899D01*
X48150Y-52563D01*
D02*
G37*
G36*
X465650D02*
X464350D01*
X463094Y-52899D01*
X461969Y-53549D01*
X461049Y-54469D01*
X460676Y-55116D01*
X460022Y-55248D01*
X459937Y-55184D01*
Y-52563D01*
X450063D01*
Y-62437D01*
X459937D01*
Y-59816D01*
X460022Y-59752D01*
X460676Y-59884D01*
X461049Y-60531D01*
X461969Y-61451D01*
X463094Y-62101D01*
X464350Y-62437D01*
X465650D01*
X466906Y-62101D01*
X468031Y-61451D01*
X468951Y-60531D01*
X469601Y-59406D01*
X469937Y-58150D01*
Y-56850D01*
X469601Y-55594D01*
X468951Y-54469D01*
X468031Y-53549D01*
X466906Y-52899D01*
X465650Y-52563D01*
D02*
G37*
G36*
X243150D02*
X241850D01*
X240594Y-52899D01*
X239469Y-53549D01*
X238549Y-54469D01*
X238176Y-55116D01*
X237522Y-55248D01*
X237437Y-55184D01*
Y-52563D01*
X227563D01*
Y-62437D01*
X237437D01*
Y-59816D01*
X237522Y-59752D01*
X238176Y-59884D01*
X238549Y-60531D01*
X239469Y-61451D01*
X240594Y-62101D01*
X241850Y-62437D01*
X243150D01*
X244406Y-62101D01*
X245531Y-61451D01*
X246451Y-60531D01*
X247101Y-59406D01*
X247437Y-58150D01*
Y-56850D01*
X247101Y-55594D01*
X246451Y-54469D01*
X245531Y-53549D01*
X244406Y-52899D01*
X243150Y-52563D01*
D02*
G37*
G36*
X101713D02*
X97563D01*
Y-56713D01*
X101713D01*
Y-52563D01*
D02*
G37*
G36*
X296713D02*
X292563D01*
Y-56713D01*
X296713D01*
Y-52563D01*
D02*
G37*
G36*
Y-58287D02*
X292563D01*
Y-62437D01*
X296713D01*
Y-58287D01*
D02*
G37*
G36*
X101713D02*
X97563D01*
Y-62437D01*
X101713D01*
Y-58287D01*
D02*
G37*
%LPD*%
D12*
X297244Y188976D02*
Y197835D01*
X303976Y204567D01*
X320630D01*
X277559Y165354D02*
X284449D01*
X292323D02*
X335630D01*
X339646Y169370D02*
Y186063D01*
X335630Y165354D02*
X339646Y169370D01*
X340551Y155512D02*
X350394Y165354D01*
X264764Y155512D02*
X340551D01*
X350394Y165354D02*
Y191929D01*
X209584Y176181D02*
X244094D01*
X264764Y155512D01*
X203740Y170337D02*
X209584Y176181D01*
X203740Y140157D02*
Y170337D01*
X216258Y156496D02*
X247047D01*
X214567Y147835D02*
X215335Y148603D01*
Y155574D01*
X216258Y156496D01*
X247047D02*
X254724Y148819D01*
X366142D01*
X375590Y158268D01*
X59055Y122047D02*
X70866D01*
X57185Y108799D02*
Y113799D01*
X51394Y98425D02*
X51768Y98799D01*
X51181Y98425D02*
X51394D01*
X51768Y98799D02*
X57185D01*
Y93405D02*
X60039Y90551D01*
X70866D01*
X57185Y93405D02*
Y98799D01*
X328740Y55118D02*
Y66929D01*
X421260Y3937D02*
X435039D01*
X328740Y94488D02*
X335630D01*
X377953Y23622D02*
X421021D01*
X426117Y28718D02*
Y34857D01*
X427323Y36063D01*
X421021Y23622D02*
X426117Y28718D01*
X525591Y-45276D02*
Y-37402D01*
X277559Y100394D02*
X284449D01*
X269685Y97441D02*
X277559Y89567D01*
X237463Y142458D02*
X269685Y110236D01*
Y97441D02*
Y110236D01*
X235433Y147835D02*
X237463Y145804D01*
Y142458D02*
Y145804D01*
X380698Y55325D02*
X389557D01*
X362205Y73819D02*
Y125984D01*
Y73819D02*
X380698Y55325D01*
X362205Y125984D02*
X385827Y149606D01*
X358268Y189961D02*
X385827Y162402D01*
X358268Y189961D02*
Y220472D01*
X385827Y149606D02*
Y162402D01*
X375590Y183071D02*
X377248Y181414D01*
X391732Y147638D02*
Y170276D01*
X377248Y181414D02*
X380594D01*
X391732Y170276D01*
X370079Y125984D02*
X391732Y147638D01*
X359449Y66929D02*
X390315Y36063D01*
X338583Y66929D02*
X359449D01*
X353346Y48228D02*
X377953Y23622D01*
X325787Y48228D02*
X353346D01*
X317913Y56102D02*
X325787Y48228D01*
X317913Y56102D02*
Y66929D01*
X203740Y140157D02*
X214567Y129331D01*
X499764Y43914D02*
Y66772D01*
Y43914D02*
X505276Y38402D01*
X403307Y66772D02*
X408819Y61260D01*
Y36063D02*
Y61260D01*
X389557Y55325D02*
X408819Y36063D01*
X355669Y223071D02*
X358268Y220472D01*
X339646Y223071D02*
X355669D01*
X285433Y181102D02*
X297244D01*
X340073Y204567D02*
X343133Y201507D01*
Y199190D02*
X350394Y191929D01*
X339646Y204567D02*
X340073D01*
X343133Y199190D02*
Y201507D01*
X296358Y95020D02*
Y100020D01*
X284636Y100207D02*
X296171D01*
X284449Y100394D02*
X284636Y100207D01*
X296171D02*
X296358Y100020D01*
X285886Y90020D02*
X296358D01*
X285433Y89567D02*
X285886Y90020D01*
X285433Y81693D02*
Y89567D01*
X328740Y74803D02*
X338583D01*
X328740D02*
Y86614D01*
X317815Y74902D02*
Y85020D01*
Y74902D02*
X317913Y74803D01*
X309055D02*
X317913D01*
X317966Y94869D02*
X328359D01*
X328740Y94488D01*
X317815Y95020D02*
X317966Y94869D01*
X317815Y90020D02*
Y95020D01*
Y90020D02*
X317966Y89869D01*
X285433Y188976D02*
Y194488D01*
X95276Y77165D02*
Y77378D01*
X94488Y78166D02*
Y82677D01*
Y78166D02*
X95276Y77378D01*
X35039Y95882D02*
X35433Y96276D01*
Y101378D01*
X35039Y95669D02*
Y95882D01*
X101181Y127559D02*
Y132677D01*
X101378Y132874D01*
X370079Y92520D02*
Y125984D01*
X370000Y85000D02*
Y92441D01*
X370079Y92520D01*
X376382Y80423D02*
Y120083D01*
X439370Y183071D01*
X370000Y75000D02*
X370959D01*
X376382Y80423D01*
X439370Y198425D02*
Y207874D01*
X448819Y140360D02*
Y188976D01*
X439370Y198425D02*
X448819Y188976D01*
X383459Y75000D02*
X448819Y140360D01*
X382500Y75000D02*
X383459D01*
X382500Y85000D02*
X439370Y141870D01*
Y158268D01*
X527559Y163474D02*
X535827Y171742D01*
X527559Y143701D02*
X536118Y135142D01*
X527559Y143701D02*
Y163474D01*
X536118Y77660D02*
Y135142D01*
X530000Y72500D02*
X530959D01*
X536118Y77660D01*
X535827Y171742D02*
Y183071D01*
X530000Y82500D02*
Y125118D01*
X472047Y183071D02*
X530000Y125118D01*
X542500Y72500D02*
X543459D01*
X548618Y77660D01*
Y195083D01*
X535827Y207874D02*
X548618Y195083D01*
X535827Y158268D02*
X542500Y151594D01*
Y82500D02*
Y151594D01*
X43307Y101378D02*
Y109252D01*
Y101378D02*
X48228D01*
X50650Y103799D01*
X57185D01*
X86614Y82677D02*
Y90551D01*
X78740Y82677D02*
X86614D01*
X78740D02*
Y90551D01*
X78691Y90600D02*
Y98750D01*
X78642Y98799D02*
X78691Y98750D01*
Y90600D02*
X78740Y90551D01*
X166535Y147835D02*
X193701D01*
X152421Y133720D02*
X166535Y147835D01*
X152421Y128879D02*
Y133720D01*
X164134Y121004D02*
X164134Y121004D01*
X152421Y121005D02*
X152421Y121004D01*
X164134D01*
X119921Y169134D02*
X120079Y169291D01*
Y182756D01*
X78691Y113848D02*
Y121998D01*
X78642Y113799D02*
X78691Y113848D01*
Y121998D02*
X78740Y122047D01*
X86614D02*
X91535Y126969D01*
Y132874D01*
X78740Y122047D02*
X86614D01*
X91535Y140748D02*
X101378D01*
D15*
X70866Y82677D02*
Y90551D01*
X296309Y78789D02*
Y84970D01*
X296260Y78740D02*
X296309Y78789D01*
Y84970D02*
X296358Y85020D01*
X284941Y108268D02*
X290354Y113681D01*
Y114173D01*
X284449Y108268D02*
X284941D01*
X296358Y85020D02*
X298228D01*
X310039Y96831D02*
Y108268D01*
X298228Y85020D02*
X310039Y96831D01*
X317864Y100069D02*
Y108219D01*
X317815Y100020D02*
X317864Y100069D01*
Y108219D02*
X317913Y108268D01*
X70866Y77165D02*
Y82677D01*
X78642Y103799D02*
Y108799D01*
X345000Y-20000D02*
X353504Y-11496D01*
Y25000D01*
X335000Y-20000D02*
Y25000D01*
X316496Y-11496D02*
X325000Y-20000D01*
X316496Y-11496D02*
Y25000D01*
X280000Y-20000D02*
X288504Y-11496D01*
Y25000D01*
X270000Y-20000D02*
Y25000D01*
X251496Y-11496D02*
Y25000D01*
Y-11496D02*
X260000Y-20000D01*
X214843Y-19842D02*
Y-158D01*
X214685Y0D02*
X214843Y-158D01*
Y-19842D02*
X215000Y-20000D01*
X204842Y0D02*
X204921Y-79D01*
Y-19921D02*
Y-79D01*
Y-19921D02*
X205000Y-20000D01*
X195000D02*
Y0D01*
X149685D02*
X149843Y-158D01*
Y-19842D02*
Y-158D01*
Y-19842D02*
X150000Y-20000D01*
X139921Y-19921D02*
Y-79D01*
Y-19921D02*
X140000Y-20000D01*
X139842Y0D02*
X139921Y-79D01*
X130000Y-20000D02*
Y0D01*
X84685D02*
X84842Y-158D01*
Y-19842D02*
Y-158D01*
Y-19842D02*
X85000Y-20000D01*
X74921Y-19921D02*
Y-79D01*
Y-19921D02*
X75000Y-20000D01*
X74843Y0D02*
X74921Y-79D01*
X65000Y-20000D02*
Y0D01*
X19685D02*
X19842Y-158D01*
Y-19842D02*
Y-158D01*
Y-19842D02*
X20000Y-20000D01*
X9921Y-19921D02*
Y-79D01*
Y-19921D02*
X10000Y-20000D01*
X9843Y0D02*
X9921Y-79D01*
X0Y-20000D02*
Y0D01*
D16*
X317815Y85020D02*
D03*
Y90020D02*
D03*
Y95020D02*
D03*
Y100020D02*
D03*
X296358Y85020D02*
D03*
Y90020D02*
D03*
Y95020D02*
D03*
X57185Y108799D02*
D03*
Y103799D02*
D03*
Y98799D02*
D03*
X78642Y113799D02*
D03*
Y108799D02*
D03*
Y103799D02*
D03*
Y98799D02*
D03*
D17*
X296358Y100020D02*
D03*
X57185Y113799D02*
D03*
D18*
X310039Y108268D02*
D03*
X317913D02*
D03*
X277559Y89567D02*
D03*
X285433D02*
D03*
X277559Y81693D02*
D03*
X285433D02*
D03*
X292323Y165354D02*
D03*
X35433Y109252D02*
D03*
X43307D02*
D03*
Y101378D02*
D03*
X35433D02*
D03*
X70866Y90551D02*
D03*
X78740D02*
D03*
X70866Y82677D02*
D03*
X78740D02*
D03*
X94488Y90551D02*
D03*
X86614D02*
D03*
X70866Y122047D02*
D03*
X78740D02*
D03*
X86614Y82677D02*
D03*
X94488D02*
D03*
X284449Y165354D02*
D03*
D19*
X284449Y100394D02*
D03*
Y108268D02*
D03*
X328740Y94488D02*
D03*
Y86614D02*
D03*
X309055Y66929D02*
D03*
Y74803D02*
D03*
X317913Y66929D02*
D03*
Y74803D02*
D03*
X328740Y66929D02*
D03*
Y74803D02*
D03*
X338583D02*
D03*
Y66929D02*
D03*
X164134Y128878D02*
D03*
Y121004D02*
D03*
X152421Y121005D02*
D03*
Y128879D02*
D03*
X285433Y181102D02*
D03*
Y188976D02*
D03*
X101378Y140748D02*
D03*
Y132874D02*
D03*
X297244Y188976D02*
D03*
Y181102D02*
D03*
X91535Y132874D02*
D03*
Y140748D02*
D03*
D20*
X525591Y-45276D02*
D03*
X403307Y66772D02*
D03*
X435039Y3937D02*
D03*
X499764Y66772D02*
D03*
D21*
X134095Y169134D02*
D03*
X119921D02*
D03*
D22*
X40354Y129528D02*
D03*
Y143701D02*
D03*
D23*
X156496Y189764D02*
D03*
X156496Y172441D02*
D03*
D47*
X156496Y189764D02*
Y202756D01*
X153543Y205709D02*
X156496Y202756D01*
X120079Y205709D02*
X153543D01*
X307480Y-72441D02*
X307500Y-72421D01*
Y-57500D01*
X177500Y-71595D02*
X177559Y-71653D01*
X177500Y-71595D02*
Y-57500D01*
X167323Y-57323D02*
Y-40354D01*
Y-57323D02*
X167500Y-57500D01*
X167323Y-40354D02*
X172244Y-35433D01*
X376969D02*
X381890Y-40354D01*
X172244Y-35433D02*
X376969D01*
X381890Y-64961D02*
Y-40354D01*
X377953Y-68898D02*
X381890Y-64961D01*
X360000Y-66591D02*
X362306Y-68898D01*
X360000Y-66591D02*
Y-57500D01*
X362306Y-68898D02*
X377953D01*
X358032Y-55532D02*
X360000Y-57500D01*
X107480Y70866D02*
Y98425D01*
Y-20079D02*
Y70866D01*
X111417Y66929D01*
X273622D01*
X107480Y-20079D02*
X144902Y-57500D01*
X97106Y108799D02*
X107480Y98425D01*
X273622Y66929D02*
X277559Y70866D01*
X273622Y66929D02*
X309055D01*
X277559Y70866D02*
Y81693D01*
X78642Y108799D02*
X97106D01*
X144902Y-57500D02*
X167500D01*
X48201Y143701D02*
X69500Y165000D01*
X40354Y143701D02*
X48201D01*
X69500Y165000D02*
Y225236D01*
X15000Y165000D02*
Y225236D01*
D48*
X102362Y193898D02*
D03*
D49*
X120079Y205709D02*
D03*
Y182087D02*
D03*
D50*
X214567Y166339D02*
D03*
X193701Y129331D02*
D03*
Y147835D02*
D03*
Y166339D02*
D03*
X214567Y129331D02*
D03*
Y147835D02*
D03*
X235433Y129331D02*
D03*
Y147835D02*
D03*
Y166339D02*
D03*
D51*
X339646Y223071D02*
D03*
Y204567D02*
D03*
Y186063D02*
D03*
X320630Y223071D02*
D03*
Y204567D02*
D03*
Y186063D02*
D03*
D52*
X535827Y158268D02*
D03*
Y183071D02*
D03*
Y207874D02*
D03*
X472047Y158268D02*
D03*
Y183071D02*
D03*
Y207874D02*
D03*
X375590D02*
D03*
Y183071D02*
D03*
Y158268D02*
D03*
X439370Y207874D02*
D03*
Y183071D02*
D03*
Y158268D02*
D03*
D53*
X28543Y29528D02*
D03*
X-8858D02*
D03*
X56142D02*
D03*
X93543D02*
D03*
X158543D02*
D03*
X121142D02*
D03*
X186142D02*
D03*
X223543D02*
D03*
D54*
X0Y0D02*
D03*
X9843D02*
D03*
X19685D02*
D03*
X84685D02*
D03*
X74843D02*
D03*
X65000D02*
D03*
X130000D02*
D03*
X139842D02*
D03*
X149685D02*
D03*
X214685D02*
D03*
X204842D02*
D03*
X195000D02*
D03*
X542500Y72500D02*
D03*
X307500Y-57500D02*
D03*
X465000D02*
D03*
X177500D02*
D03*
X47500D02*
D03*
X530000Y72500D02*
D03*
X370000Y75000D02*
D03*
X382500D02*
D03*
X370000Y-57500D02*
D03*
X242500D02*
D03*
X205000Y-20000D02*
D03*
X215000D02*
D03*
X140000D02*
D03*
X150000D02*
D03*
X75000D02*
D03*
X85000D02*
D03*
X10000D02*
D03*
X20000D02*
D03*
X335000D02*
D03*
X325000D02*
D03*
X270000D02*
D03*
X260000D02*
D03*
X112500Y-57500D02*
D03*
D55*
X542500Y82500D02*
D03*
X530000D02*
D03*
X370000Y85000D02*
D03*
X382500D02*
D03*
X195000Y-20000D02*
D03*
X130000D02*
D03*
X65000D02*
D03*
X0D02*
D03*
X345000D02*
D03*
X280000D02*
D03*
D56*
X297500Y-57500D02*
D03*
X455000D02*
D03*
X167500D02*
D03*
X37500D02*
D03*
X360000D02*
D03*
X232500D02*
D03*
X102500D02*
D03*
D57*
X408819Y36063D02*
D03*
X486772D02*
D03*
X505276D02*
D03*
X390315D02*
D03*
X353504Y25000D02*
D03*
X335000D02*
D03*
X288504D02*
D03*
X270000D02*
D03*
D58*
X523779Y36063D02*
D03*
X427323D02*
D03*
X316496Y25000D02*
D03*
X251496D02*
D03*
D59*
X69500Y165000D02*
D03*
Y225236D02*
D03*
X15000Y165000D02*
D03*
Y225236D02*
D03*
D60*
X277559Y165354D02*
D03*
X307480Y-72441D02*
D03*
X177559Y-71653D02*
D03*
D61*
X59055Y122047D02*
D03*
X51181Y98425D02*
D03*
X296260Y78740D02*
D03*
X328740Y55118D02*
D03*
X421260Y3937D02*
D03*
X335630Y94488D02*
D03*
X525591Y-37402D02*
D03*
X277559Y100394D02*
D03*
X290354Y114173D02*
D03*
X285433Y194488D02*
D03*
X95276Y77165D02*
D03*
X70866D02*
D03*
X35039Y95669D02*
D03*
X101181Y127559D02*
D03*
M02*
