M48
;Layer_Color=9474304
;FILE_FORMAT=2:4
INCH,TZ
;TYPE=PLATED
T01F00S00C0.0157
T02F00S00C0.0236
T03F00S00C0.0394
T05F00S00C0.0433
T08F00S00C0.0630
T09F00S00C0.0764
%
T01
X52559Y-3740
X42126Y394
X9528Y7717
X7087
X5118Y9843
X3504Y9567
X5906Y12205
X10118Y12756
X29035Y11417
X27756Y10039
X29626Y7874
X32874Y5512
X28543Y19449
X33563Y9449
T02
X17756Y-7165
X30748Y-7244
X27756Y16535
T03
X36000Y-5750
X37000
X34500Y-2000
X33500
X45500Y-5750
X46500
X30750
X29750
X24250
X23250
X17750
X19500Y-2000
X20500
X21500
X26000
X27000
X28000
X32500
X15000
X14000
X13000
X8500
X7500
X6500
X2000
X3750Y-5750
X4750
X10250
X11250
X16750
X1000Y-2000
X0
X37000Y7500
Y8500
X38250
Y7500
X53000Y7250
Y8250
X54250
Y7250
T05
X19500Y0
X20484
X21469
X14969
X13984
X13000
X8468
X7484
X6500
X1969
X984
X0
T08
X48677Y3606
X50528
X52378
X42732
X40882
X39032
X35350Y2500
X33500
X31650
X28850
X27000
X25150
X32063Y18606
Y20457
X33965
Y18606
X37559Y18307
Y20787
Y15827
X43937
Y18307
Y20787
X47205
Y18307
Y15827
X53583
Y18307
Y20787
X33965Y22307
X32063
T09
X1500Y16500
X6950
Y22524
X1500
M30
